<svg width="500" height="500" viewBox="0 0 500 500" fill="none" xmlns="http://www.w3.org/2000/svg">
<rect width="500" height="500" fill="white"/>
<path fill-rule="evenodd" clip-rule="evenodd" d="M386.98 500H113.017C83.0434 500 54.2969 488.093 33.102 466.898C11.9072 445.703 0 416.957 0 386.983V113.017C0 83.0433 11.9072 54.297 33.102 33.1021C54.2969 11.9072 83.0434 0 113.017 0H386.98C401.821 0 416.518 2.92328 430.23 8.60294C443.941 14.2826 456.4 22.6074 466.895 33.1021C477.39 43.5967 485.715 56.0557 491.394 69.7676C497.074 83.4795 499.997 98.1758 499.997 113.017V386.98C499.997 401.822 497.075 416.518 491.395 430.231C485.716 443.943 477.391 456.402 466.896 466.897C456.401 477.392 443.942 485.717 430.23 491.397C416.518 497.077 401.822 500 386.98 500Z" fill="#2130AC"/>
<path d="M239.754 33.9626C185.764 36.6786 134.721 59.4051 96.5765 97.7108C58.4325 136.017 35.9221 187.155 33.4345 241.156C29.4193 336.679 77.1649 408.695 160.108 441.558C163.169 442.776 166.483 443.227 169.758 442.87C173.034 442.514 176.173 441.361 178.9 439.512C181.628 437.664 183.862 435.176 185.408 432.266C186.953 429.356 187.762 426.112 187.766 422.816V242.17C187.766 233.367 183.075 231.096 176.18 230.812C133.603 229.108 105.686 246.052 88.8102 255.389C86.0696 250.207 84.0626 244.67 82.847 238.936C148.008 195.597 196.092 214.171 196.092 214.171C177.464 205.244 138.328 197.832 82.6795 228.321C84.139 200.141 94.941 173.729 105.445 159.741C152.921 135.491 208.563 137.828 250.283 165.989C294.039 136.229 352.183 137.107 394.988 159.65C406.614 172.713 418.228 212.334 418.134 227.824C349.909 195.427 318.179 206.794 299.514 215.73C299.514 215.73 350.974 197.296 416.91 238.896C415.944 244.728 414.093 250.377 411.421 255.65C388.369 239.734 353.243 229.156 324.327 230.778C316.77 231.198 312.159 232.873 312.159 242.184V422.893C312.157 426.181 312.96 429.419 314.497 432.326C316.034 435.232 318.258 437.719 320.976 439.568C323.694 441.418 326.823 442.576 330.091 442.939C333.358 443.303 336.665 442.862 339.723 441.655C420.028 409.933 466.814 342.123 466.814 250.51C466.814 221.176 460.86 192.147 449.315 165.181C437.769 138.215 420.87 113.873 399.642 93.6275C378.414 73.3824 353.299 57.656 325.816 47.4004C298.333 37.1447 269.055 32.5732 239.754 33.9626Z" fill="white"/>
<path d="M247.343 253.983C247.664 251.427 252.216 251.427 252.537 253.983C253.903 264.972 254.809 275.956 255.53 286.948C256.575 303.742 257.088 320.535 257.069 337.329C257.083 354.122 256.576 370.916 255.55 387.71C254.826 398.733 253.917 409.765 252.537 420.788C252.216 423.344 247.664 423.344 247.343 420.788C245.963 409.765 245.049 398.733 244.331 387.71C243.286 370.916 242.779 354.122 242.812 337.329C242.844 320.535 243.357 303.742 244.351 286.948C245.069 275.959 245.98 264.975 247.343 253.983Z" fill="#FF4C45"/>
<path d="M215.693 282.425C215.803 281.902 216.089 281.432 216.504 281.096C216.919 280.759 217.437 280.575 217.972 280.575C218.506 280.575 219.025 280.759 219.44 281.096C219.854 281.432 220.141 281.902 220.251 282.425C220.966 288.876 221.483 295.322 221.912 301.774C222.648 313.581 223.01 325.388 222.997 337.196C222.983 349.003 222.627 360.81 221.926 372.617C221.497 379.103 220.983 385.589 220.254 392.074C220.144 392.597 219.857 393.067 219.442 393.404C219.027 393.741 218.509 393.924 217.975 393.924C217.44 393.924 216.922 393.741 216.507 393.404C216.092 393.067 215.806 392.597 215.696 392.074C214.966 385.589 214.452 379.103 214.023 372.617C213.288 360.81 212.746 349.003 212.751 337.196C212.757 325.388 213.299 313.581 214.038 301.774C214.461 295.328 214.977 288.876 215.693 282.425Z" fill="#FCBD00"/>
<path d="M279.645 282.296C279.75 281.771 280.034 281.299 280.448 280.96C280.862 280.621 281.381 280.436 281.916 280.436C282.452 280.436 282.97 280.621 283.384 280.96C283.799 281.299 284.083 281.771 284.188 282.296C284.918 288.788 285.432 295.282 285.861 301.773C286.596 313.58 287.212 325.441 287.221 337.249C287.229 349.056 286.61 360.818 285.875 372.616C285.446 379.148 284.924 385.679 284.188 392.21C284.083 392.735 283.799 393.207 283.384 393.546C282.97 393.885 282.452 394.07 281.916 394.07C281.381 394.07 280.862 393.885 280.448 393.546C280.034 393.207 279.75 392.735 279.645 392.21C278.909 385.679 278.387 379.148 277.958 372.616C277.221 360.809 276.865 349.002 276.887 337.195C276.91 325.388 277.272 313.58 277.972 301.773C278.392 295.282 278.92 288.788 279.645 282.296Z" fill="#FCBD00"/>
</svg>
