<svg width="32" height="32" viewBox="0 0 32 32" fill="none" xmlns="http://www.w3.org/2000/svg">
<path d="M22.9971 4H8.99707C8.46682 4.00061 7.95847 4.21151 7.58353 4.58646C7.20859 4.9614 6.99768 5.46975 6.99707 6V28C6.99708 28.1785 7.04487 28.3538 7.13547 28.5076C7.22608 28.6614 7.3562 28.7881 7.51233 28.8746C7.66845 28.9612 7.8449 29.0043 8.02334 28.9997C8.20178 28.995 8.37572 28.9426 8.5271 28.848L15.9962 24.1792L23.4671 28.848C23.6185 28.9426 23.7924 28.995 23.9709 28.9997C24.1493 29.0043 24.3257 28.9612 24.4819 28.8746C24.638 28.7881 24.7681 28.6614 24.8587 28.5076C24.9493 28.3538 24.9971 28.1785 24.9971 28V6C24.9965 5.46975 24.7856 4.9614 24.4106 4.58646C24.0357 4.21151 23.5273 4.00061 22.9971 4Z" fill="black"/>
</svg>
