<svg width="178" height="162" viewBox="0 0 178 162" fill="none" xmlns="http://www.w3.org/2000/svg">
<g clip-path="url(#clip0_407_4850)">
<path d="M153.4 14.8963L4.25195 58.2578L8.20247 71.7874L157.351 28.4259L153.4 14.8963Z" fill="#3F3D56"/>
<path d="M22.073 120.404L0.089651 45.1167C-0.0733271 44.5585 -0.00740718 43.9586 0.272899 43.4489C0.553205 42.9392 1.02494 42.5615 1.58433 42.3989L147.117 0.0885086C147.676 -0.07357 148.277 -0.00757005 148.788 0.272029C149.299 0.551627 149.677 1.02198 149.841 1.57983L169.316 68.2791L168.714 68.4543L149.238 1.75507C149.121 1.35677 148.851 1.02099 148.486 0.821308C148.121 0.621625 147.692 0.574313 147.293 0.689744L1.75991 43.0001C1.36034 43.1163 1.02339 43.3861 0.82317 43.7501C0.622952 44.1142 0.575866 44.5427 0.692273 44.9414L22.6756 120.229L22.073 120.404Z" fill="#3F3D56"/>
<path d="M137.104 68.5885C136.663 68.5881 136.233 68.445 135.88 68.1806C135.527 67.9162 135.269 67.5448 135.145 67.122L131.458 54.4944C131.307 53.9761 131.369 53.4194 131.629 52.9463C131.889 52.4732 132.327 52.1223 132.846 51.9708L145.501 48.2916C146.02 48.1413 146.578 48.2026 147.052 48.4623C147.526 48.722 147.878 49.1587 148.03 49.6767L151.717 62.3043C151.868 62.8226 151.806 63.3793 151.546 63.8524C151.286 64.3255 150.848 64.6763 150.329 64.8279L137.674 68.507C137.489 68.561 137.297 68.5885 137.104 68.5885Z" fill="#6C63FF"/>
<path d="M21.7326 45.349C21.6947 45.2192 21.6496 45.0917 21.5976 44.9669C21.2438 44.11 20.5851 43.4138 19.748 43.012C18.911 42.6103 17.9547 42.5314 17.0629 42.7904C16.1711 43.0495 15.4067 43.6283 14.9166 44.4156C14.4265 45.2029 14.2452 46.1432 14.4077 47.0557C14.4305 47.1888 14.4609 47.3206 14.4987 47.4503C14.7279 48.2308 15.2043 48.9163 15.8566 49.4041C16.5089 49.8919 17.302 50.1556 18.1172 50.156C18.4731 50.1567 18.8272 50.1061 19.1686 50.0056C20.1267 49.7263 20.9347 49.0792 21.4154 48.2062C21.896 47.3333 22.0101 46.3057 21.7326 45.349ZM18.9928 49.4044C18.1938 49.6358 17.3354 49.5415 16.6059 49.1424C15.8763 48.7432 15.3353 48.0716 15.1012 47.2749C15.0645 47.1451 15.0351 47.0134 15.0133 46.8803C14.8956 46.1285 15.0563 45.3596 15.4655 44.7174C15.8747 44.0752 16.5043 43.6038 17.2365 43.3912C17.9688 43.1786 18.7536 43.2394 19.4442 43.5623C20.1348 43.8851 20.6838 44.4479 20.9888 45.1454C21.0456 45.2679 21.0928 45.3946 21.1301 45.5243C21.3617 46.3217 21.2667 47.1781 20.8659 47.9056C20.4652 48.6331 19.7915 49.1721 18.9928 49.4044V49.4044Z" fill="#6C63FF"/>
<path d="M12.4948 48.0333C12.294 47.345 12.3133 46.6114 12.55 45.9346C12.7868 45.2578 13.2292 44.6716 13.8156 44.2575C13.2662 44.2308 12.7183 44.3355 12.2176 44.5628C11.717 44.7901 11.278 45.1336 10.9373 45.5645C10.5966 45.9954 10.364 46.5013 10.2589 47.04C10.1538 47.5788 10.1793 48.1348 10.3331 48.6618C10.487 49.1887 10.7648 49.6714 11.1435 50.0695C11.5221 50.4676 11.9907 50.7697 12.51 50.9505C13.0293 51.1314 13.5845 51.1858 14.1291 51.1092C14.6738 51.0327 15.1923 50.8273 15.6413 50.5103C14.9238 50.4754 14.2351 50.218 13.6711 49.774C13.1071 49.33 12.6959 48.7215 12.4948 48.0333Z" fill="#6C63FF"/>
<path d="M110.056 63.5527C109.99 63.3131 109.876 63.0889 109.722 62.8931C109.569 62.6972 109.378 62.5336 109.161 62.4114C108.944 62.2892 108.704 62.211 108.457 62.1811C108.209 62.1513 107.958 62.1704 107.718 62.2375L86.8826 68.0528L84.6387 68.6791H98.73L100.974 68.0528L108.741 65.8858C109.226 65.75 109.636 65.4281 109.883 64.9907C110.129 64.5533 110.192 64.0361 110.056 63.5527Z" fill="#CCCCCC"/>
<path d="M95.3142 59.2093C95.1785 58.726 94.8559 58.3163 94.4174 58.0702C93.979 57.8241 93.4605 57.7619 92.9761 57.8972L61.7116 66.6218C61.2747 66.7453 60.8964 67.0205 60.6449 67.3977C60.3935 67.775 60.2853 68.2295 60.3401 68.6793H68.434L70.6809 68.053L93.9992 61.5455C94.4838 61.4093 94.8945 61.0868 95.141 60.6488C95.3876 60.2108 95.4499 59.6931 95.3142 59.2093Z" fill="#CCCCCC"/>
<path d="M175.803 68.0522H24.2184C23.6359 68.0529 23.0775 68.2841 22.6657 68.695C22.2538 69.106 22.0221 69.6632 22.0215 70.2444V159.808C22.0221 160.389 22.2538 160.946 22.6656 161.357C23.0775 161.768 23.6359 161.999 24.2184 162H175.803C176.385 161.999 176.943 161.768 177.355 161.357C177.767 160.946 177.999 160.389 177.999 159.808V70.2444C177.999 69.6632 177.767 69.106 177.355 68.695C176.943 68.2841 176.385 68.0529 175.803 68.0522ZM177.372 159.808C177.372 160.223 177.206 160.621 176.912 160.915C176.618 161.208 176.219 161.373 175.803 161.374H24.2184C23.8022 161.373 23.4032 161.208 23.1089 160.915C22.8147 160.621 22.6493 160.223 22.6492 159.808V70.2444C22.6493 69.8291 22.8147 69.431 23.109 69.1374C23.4032 68.8438 23.8022 68.6787 24.2184 68.6786H175.803C176.219 68.6787 176.618 68.8438 176.912 69.1374C177.206 69.431 177.372 69.8291 177.372 70.2444V159.808Z" fill="#3F3D56"/>
<path d="M38.9692 80.2663C38.2243 80.2663 37.4962 80.0459 36.8769 79.633C36.2575 79.2201 35.7748 78.6332 35.4898 77.9465C35.2048 77.2598 35.1302 76.5042 35.2755 75.7753C35.4208 75.0463 35.7795 74.3767 36.3062 73.8512C36.8329 73.3256 37.5039 72.9677 38.2345 72.8227C38.965 72.6777 39.7222 72.7521 40.4104 73.0365C41.0986 73.321 41.6867 73.8026 42.1006 74.4206C42.5144 75.0386 42.7352 75.7651 42.7352 76.5084C42.7341 77.5047 42.337 78.4599 41.6309 79.1644C40.9249 79.8689 39.9677 80.2652 38.9692 80.2663ZM38.9692 73.3768C38.3485 73.3768 37.7417 73.5605 37.2256 73.9046C36.7095 74.2487 36.3072 74.7378 36.0697 75.31C35.8322 75.8822 35.77 76.5119 35.8911 77.1193C36.0122 77.7268 36.3111 78.2848 36.75 78.7228C37.1889 79.1607 37.7481 79.459 38.3569 79.5798C38.9657 79.7006 39.5967 79.6386 40.1702 79.4016C40.7437 79.1646 41.2338 78.7632 41.5787 78.2482C41.9235 77.7332 42.1076 77.1278 42.1076 76.5084C42.1066 75.6781 41.7757 74.8821 41.1873 74.2951C40.599 73.708 39.8012 73.3777 38.9692 73.3768Z" fill="#6C63FF"/>
<path d="M33.1149 76.5082C33.115 75.7914 33.3392 75.0924 33.7562 74.5087C34.1732 73.925 34.7623 73.4857 35.4414 73.2518C34.9214 73.0728 34.3661 73.0204 33.8217 73.0989C33.2773 73.1774 32.7595 73.3846 32.3116 73.7032C31.8637 74.0218 31.4986 74.4426 31.2467 74.9305C30.9947 75.4184 30.8633 75.9594 30.8633 76.5082C30.8633 77.0571 30.9947 77.598 31.2467 78.0859C31.4986 78.5738 31.8637 78.9946 32.3116 79.3132C32.7595 79.6318 33.2773 79.839 33.8217 79.9175C34.3661 79.996 34.9214 79.9436 35.4414 79.7646C34.7623 79.5308 34.1732 79.0914 33.7562 78.5077C33.3392 77.924 33.115 77.225 33.1149 76.5082Z" fill="#6C63FF"/>
<path d="M54.2347 120.908C53.4859 120.907 52.7679 120.609 52.2384 120.081C51.7089 119.553 51.411 118.836 51.4102 118.089V109.634C51.4102 108.886 51.7077 108.169 52.2374 107.641C52.7671 107.112 53.4856 106.815 54.2347 106.815C54.9838 106.815 55.7023 107.112 56.232 107.641C56.7617 108.169 57.0593 108.886 57.0593 109.634V118.089C57.0584 118.836 56.7605 119.553 56.231 120.081C55.7015 120.609 54.9836 120.907 54.2347 120.908Z" fill="#6C63FF"/>
<path d="M61.7659 120.908C61.0171 120.907 60.2992 120.609 59.7696 120.081C59.2401 119.553 58.9423 118.836 58.9414 118.089V109.634C58.9414 108.886 59.239 108.169 59.7687 107.641C60.2984 107.112 61.0168 106.815 61.7659 106.815C62.5151 106.815 63.2335 107.112 63.7632 107.641C64.2929 108.169 64.5905 108.886 64.5905 109.634V118.089C64.5896 118.836 64.2918 119.553 63.7623 120.081C63.2327 120.609 62.5148 120.907 61.7659 120.908Z" fill="#6C63FF"/>
<path d="M69.2992 120.908C68.5503 120.907 67.8324 120.609 67.3029 120.081C66.7733 119.553 66.4755 118.836 66.4746 118.089V109.634C66.4746 108.886 66.7722 108.169 67.3019 107.641C67.8316 107.112 68.55 106.815 69.2992 106.815C70.0483 106.815 70.7667 107.112 71.2964 107.641C71.8261 108.169 72.1237 108.886 72.1237 109.634V118.089C72.1228 118.836 71.825 119.553 71.2955 120.081C70.766 120.609 70.048 120.907 69.2992 120.908Z" fill="#6C63FF"/>
<path d="M80.9105 120.908C80.1616 120.907 79.4437 120.609 78.9142 120.081C78.3847 119.553 78.0868 118.836 78.0859 118.089V109.634C78.0859 108.886 78.3835 108.169 78.9132 107.641C79.4429 107.112 80.1614 106.815 80.9105 106.815C81.6596 106.815 82.378 107.112 82.9077 107.641C83.4374 108.169 83.735 108.886 83.735 109.634V118.089C83.7342 118.836 83.4363 119.553 82.9068 120.081C82.3773 120.609 81.6593 120.907 80.9105 120.908Z" fill="#6C63FF"/>
<path d="M88.4417 120.908C87.6929 120.907 86.975 120.609 86.4454 120.081C85.9159 119.553 85.618 118.836 85.6172 118.089V109.634C85.6172 108.886 85.9148 108.169 86.4445 107.641C86.9742 107.112 87.6926 106.815 88.4417 106.815C89.1909 106.815 89.9093 107.112 90.439 107.641C90.9687 108.169 91.2663 108.886 91.2663 109.634V118.089C91.2654 118.836 90.9676 119.553 90.4381 120.081C89.9085 120.609 89.1906 120.907 88.4417 120.908Z" fill="#6C63FF"/>
<path d="M95.9749 120.908C95.2261 120.907 94.5082 120.609 93.9786 120.081C93.4491 119.553 93.1512 118.836 93.1504 118.089V109.634C93.1504 108.886 93.448 108.169 93.9777 107.641C94.5074 107.112 95.2258 106.815 95.9749 106.815C96.7241 106.815 97.4425 107.112 97.9722 107.641C98.5019 108.169 98.7995 108.886 98.7995 109.634V118.089C98.7986 118.836 98.5008 119.553 97.9713 120.081C97.4418 120.609 96.7238 120.907 95.9749 120.908Z" fill="#6C63FF"/>
<path d="M107.586 120.908C106.837 120.907 106.119 120.609 105.59 120.081C105.06 119.553 104.763 118.836 104.762 118.089V109.634C104.762 108.886 105.059 108.169 105.589 107.641C106.119 107.112 106.837 106.815 107.586 106.815C108.335 106.815 109.054 107.112 109.584 107.641C110.113 108.169 110.411 108.886 110.411 109.634V118.089C110.41 118.836 110.112 119.553 109.583 120.081C109.053 120.609 108.335 120.907 107.586 120.908Z" fill="#6C63FF"/>
<path d="M115.119 120.908C114.371 120.907 113.653 120.609 113.123 120.081C112.594 119.553 112.296 118.836 112.295 118.089V109.634C112.295 108.886 112.593 108.169 113.122 107.641C113.652 107.112 114.37 106.815 115.119 106.815C115.869 106.815 116.587 107.112 117.117 107.641C117.646 108.169 117.944 108.886 117.944 109.634V118.089C117.943 118.836 117.645 119.553 117.116 120.081C116.586 120.609 115.868 120.907 115.119 120.908Z" fill="#6C63FF"/>
<path d="M122.651 120.908C121.902 120.907 121.184 120.609 120.654 120.081C120.125 119.553 119.827 118.836 119.826 118.089V109.634C119.826 108.886 120.124 108.169 120.653 107.641C121.183 107.112 121.902 106.815 122.651 106.815C123.4 106.815 124.118 107.112 124.648 107.641C125.178 108.169 125.475 108.886 125.475 109.634V118.089C125.474 118.836 125.177 119.553 124.647 120.081C124.118 120.609 123.4 120.907 122.651 120.908Z" fill="#6C63FF"/>
<path d="M134.264 120.908C133.515 120.907 132.797 120.609 132.268 120.081C131.738 119.553 131.44 118.836 131.439 118.089V109.634C131.439 108.886 131.737 108.169 132.267 107.641C132.796 107.112 133.515 106.815 134.264 106.815C135.013 106.815 135.732 107.112 136.261 107.641C136.791 108.169 137.089 108.886 137.089 109.634V118.089C137.088 118.836 136.79 119.553 136.26 120.081C135.731 120.609 135.013 120.907 134.264 120.908Z" fill="#6C63FF"/>
<path d="M141.795 120.908C141.046 120.907 140.328 120.609 139.799 120.081C139.269 119.553 138.972 118.836 138.971 118.089V109.634C138.971 108.886 139.268 108.169 139.798 107.641C140.328 107.112 141.046 106.815 141.795 106.815C142.544 106.815 143.263 107.112 143.792 107.641C144.322 108.169 144.62 108.886 144.62 109.634V118.089C144.619 118.836 144.321 119.553 143.792 120.081C143.262 120.609 142.544 120.907 141.795 120.908Z" fill="#6C63FF"/>
<path d="M149.327 120.908C148.578 120.907 147.86 120.609 147.33 120.081C146.801 119.553 146.503 118.836 146.502 118.089V109.634C146.502 108.886 146.8 108.169 147.329 107.641C147.859 107.112 148.577 106.815 149.327 106.815C150.076 106.815 150.794 107.112 151.324 107.641C151.853 108.169 152.151 108.886 152.151 109.634V118.089C152.15 118.836 151.852 119.553 151.323 120.081C150.793 120.609 150.075 120.907 149.327 120.908Z" fill="#6C63FF"/>
<path d="M73.3846 152.275H32.7612C32.2578 152.275 31.7751 152.076 31.4192 151.721C31.0632 151.366 30.8633 150.884 30.8633 150.382C30.8633 149.879 31.0632 149.398 31.4192 149.042C31.7751 148.687 32.2578 148.488 32.7612 148.488H73.3846C73.8879 148.488 74.3707 148.687 74.7266 149.042C75.0825 149.398 75.2824 149.879 75.2824 150.382C75.2824 150.884 75.0825 151.366 74.7266 151.721C74.3707 152.076 73.8879 152.275 73.3846 152.275Z" fill="#E6E6E6"/>
<path d="M60.3594 144.133H45.7846C45.2813 144.133 44.7985 143.934 44.4426 143.579C44.0867 143.223 43.8867 142.742 43.8867 142.239C43.8867 141.737 44.0867 141.256 44.4426 140.9C44.7985 140.545 45.2813 140.346 45.7846 140.346H60.3594C60.8627 140.346 61.3455 140.545 61.7014 140.9C62.0573 141.256 62.2573 141.737 62.2573 142.239C62.2573 142.742 62.0573 143.223 61.7014 143.579C61.3455 143.934 60.8627 144.133 60.3594 144.133Z" fill="#E6E6E6"/>
<path d="M177.26 86.7734H22.5371V87.3997H177.26V86.7734Z" fill="#3F3D56"/>
</g>
<defs>
<clipPath id="clip0_407_4850">
<rect width="178" height="162" fill="white"/>
</clipPath>
</defs>
</svg>
