<svg width="30" height="30" viewBox="0 0 30 30" fill="none" xmlns="http://www.w3.org/2000/svg">
<path d="M15 0.375C12.1075 0.375 9.27986 1.23274 6.87479 2.83976C4.46972 4.44677 2.5952 6.73089 1.48827 9.40325C0.381337 12.0756 0.091713 15.0162 0.656022 17.8532C1.22033 20.6902 2.61323 23.2961 4.65857 25.3414C6.70391 27.3868 9.30984 28.7797 12.1468 29.344C14.9838 29.9083 17.9244 29.6187 20.5968 28.5117C23.2691 27.4048 25.5532 25.5303 27.1602 23.1252C28.7673 20.7201 29.625 17.8926 29.625 15C29.6205 11.1226 28.0782 7.40526 25.3365 4.66351C22.5947 1.92176 18.8774 0.379481 15 0.375ZM21.9653 12.4391L13.7146 20.3141C13.5048 20.5137 13.2263 20.625 12.9368 20.625C12.6472 20.625 12.3687 20.5137 12.1589 20.3141L8.03467 16.3766C7.81921 16.1702 7.69447 15.8867 7.68787 15.5884C7.68126 15.2901 7.79333 15.0014 7.99945 14.7857C8.20558 14.5699 8.4889 14.4448 8.78719 14.4378C9.08548 14.4309 9.37435 14.5426 9.59034 14.7484L12.9368 17.9443L20.4097 10.8109C20.6257 10.6051 20.9145 10.4934 21.2128 10.5003C21.5111 10.5073 21.7944 10.6324 22.0006 10.8482C22.2067 11.0639 22.3188 11.3526 22.3121 11.6509C22.3055 11.9492 22.1808 12.2327 21.9653 12.4391Z" fill="#4FBF67"/>
</svg>
