<svg width="213" height="168" viewBox="0 0 213 168" fill="none" xmlns="http://www.w3.org/2000/svg">
<g clip-path="url(#clip0_372_4176)">
<path d="M17.6946 81.0723C17.4791 81.0725 17.2725 81.1586 17.1201 81.3117C16.9678 81.4647 16.8821 81.6723 16.8818 81.8887V166.312C16.8821 166.529 16.9678 166.736 17.1201 166.889C17.2725 167.042 17.4791 167.129 17.6946 167.129H123.06C123.276 167.129 123.482 167.042 123.635 166.889C123.787 166.736 123.873 166.529 123.873 166.312V95.4405C123.873 95.224 123.787 95.0165 123.635 94.8634C123.482 94.7103 123.276 94.6242 123.06 94.6239H62.5873C61.9734 94.6244 61.3814 94.3947 60.9274 93.9796L47.3321 81.57C46.9814 81.2494 46.5242 81.0719 46.05 81.0723H17.6946Z" fill="#3F3D56"/>
<path d="M66.3561 70.1625C66.2244 70.085 66.0675 70.0631 65.9198 70.1016C65.7721 70.1401 65.6457 70.236 65.5682 70.368L34.3652 123.71C34.2881 123.842 34.2663 124 34.3046 124.148C34.343 124.297 34.4384 124.424 34.5698 124.501L77.3457 149.754C77.4773 149.832 77.6342 149.854 77.7819 149.815C77.9296 149.777 78.0561 149.681 78.1335 149.549L109.337 96.2069C109.414 96.0746 109.435 95.917 109.397 95.7686C109.359 95.6202 109.263 95.4932 109.132 95.4154L66.3561 70.1625Z" fill="#E6E6E6"/>
<path d="M67.0112 72.6952C66.8795 72.6177 66.7226 72.5958 66.5749 72.6343C66.4272 72.6729 66.3008 72.7687 66.2233 72.9007L36.8867 123.052C36.8095 123.184 36.7878 123.342 36.8261 123.49C36.8645 123.639 36.9599 123.766 37.0913 123.844L76.6913 147.222C76.8229 147.299 76.9798 147.321 77.1275 147.282C77.2752 147.244 77.4017 147.148 77.4791 147.016L106.816 96.8647C106.893 96.7324 106.915 96.5748 106.876 96.4264C106.838 96.278 106.743 96.151 106.611 96.0732L67.0112 72.6952Z" fill="white"/>
<path d="M59.5287 97.4693L88.7076 114.695C88.8053 114.753 88.9135 114.791 89.0258 114.806C89.138 114.822 89.2523 114.816 89.3621 114.787C89.4718 114.758 89.5749 114.708 89.6653 114.64C89.7558 114.571 89.8319 114.485 89.8894 114.387C89.9468 114.289 89.9845 114.18 90.0001 114.067C90.0158 113.954 90.0092 113.84 89.9807 113.729C89.9522 113.619 89.9023 113.516 89.834 113.425C89.7657 113.334 89.6802 113.257 89.5824 113.2L60.4035 95.9738C60.3058 95.9158 60.1976 95.8779 60.0852 95.862C59.9728 95.8461 59.8584 95.8526 59.7485 95.8812C59.6387 95.9098 59.5355 95.9598 59.4449 96.0285C59.3543 96.0972 59.2781 96.1831 59.2206 96.2814C59.1631 96.3797 59.1254 96.4884 59.1098 96.6014C59.0942 96.7143 59.1008 96.8292 59.1295 96.9395C59.1581 97.0499 59.2081 97.1535 59.2766 97.2444C59.3451 97.3353 59.4307 97.4117 59.5287 97.4693V97.4693Z" fill="#E6E6E6"/>
<path d="M67.4293 83.388L86.7875 94.8162C87.0602 94.9772 87.4772 94.7729 87.7187 94.3599C87.9603 93.9469 87.9351 93.4816 87.6623 93.3206L68.3042 81.8924C68.0314 81.7314 67.6145 81.9357 67.3729 82.3487C67.1313 82.7617 67.1566 83.227 67.4293 83.388Z" fill="#E6E6E6"/>
<path d="M64.9215 87.6751L84.2797 99.1033C84.5524 99.2643 84.9694 99.06 85.211 98.6471C85.4525 98.2341 85.4273 97.7687 85.1545 97.6077L65.7964 86.1796C65.5236 86.0185 65.1067 86.2228 64.8651 86.6358C64.6235 87.0488 64.6488 87.5141 64.9215 87.6751Z" fill="#E6E6E6"/>
<path d="M56.7007 102.305L85.8796 119.531C86.077 119.647 86.3123 119.68 86.5337 119.622C86.7552 119.564 86.9448 119.421 87.0607 119.222C87.1766 119.024 87.2095 118.788 87.1521 118.565C87.0947 118.343 86.9516 118.152 86.7544 118.035L57.5755 100.81C57.3781 100.693 57.1428 100.66 56.9214 100.718C56.6999 100.776 56.5104 100.92 56.3944 101.118C56.2785 101.317 56.2456 101.553 56.303 101.775C56.3605 101.998 56.5035 102.189 56.7007 102.305Z" fill="#E6E6E6"/>
<path d="M53.8713 107.141L83.0502 124.367C83.2476 124.483 83.4829 124.516 83.7043 124.458C83.9258 124.4 84.1154 124.256 84.2313 124.058C84.3472 123.86 84.3801 123.624 84.3227 123.401C84.2653 123.179 84.1222 122.988 83.925 122.871L54.7461 105.645C54.6484 105.588 54.5403 105.55 54.428 105.534C54.3157 105.518 54.2014 105.525 54.0916 105.554C53.9819 105.582 53.8789 105.632 53.7884 105.701C53.6979 105.77 53.6218 105.856 53.5643 105.954C53.5069 106.052 53.4693 106.161 53.4536 106.273C53.4379 106.386 53.4445 106.501 53.473 106.611C53.5015 106.721 53.5514 106.825 53.6197 106.916C53.688 107.007 53.7735 107.083 53.8713 107.141V107.141Z" fill="#E6E6E6"/>
<path d="M51.0422 111.976L80.2211 129.202C80.4185 129.318 80.6537 129.351 80.875 129.293C81.0964 129.235 81.2858 129.091 81.4017 128.893C81.5176 128.695 81.5505 128.459 81.4931 128.236C81.4358 128.014 81.2929 127.824 81.0959 127.707L51.917 110.481C51.8193 110.423 51.7111 110.385 51.5989 110.37C51.4866 110.354 51.3723 110.361 51.2625 110.389C51.1528 110.418 51.0498 110.468 50.9593 110.537C50.8688 110.605 50.7927 110.691 50.7352 110.789C50.6778 110.887 50.6402 110.996 50.6245 111.109C50.6088 111.222 50.6154 111.336 50.6439 111.447C50.6724 111.557 50.7223 111.66 50.7906 111.751C50.8589 111.842 50.9444 111.919 51.0422 111.976V111.976Z" fill="#E6E6E6"/>
<path d="M48.214 116.812L77.3929 134.038C77.4907 134.096 77.5988 134.133 77.7111 134.149C77.8234 134.165 77.9377 134.158 78.0474 134.13C78.1571 134.101 78.2602 134.051 78.3507 133.982C78.4411 133.914 78.5173 133.828 78.5747 133.729C78.6322 133.631 78.6698 133.523 78.6855 133.41C78.7011 133.297 78.6945 133.182 78.666 133.072C78.6375 132.962 78.5877 132.858 78.5193 132.767C78.451 132.676 78.3655 132.6 78.2678 132.542L49.0889 115.316C48.8915 115.2 48.656 115.167 48.4344 115.225C48.2128 115.282 48.0231 115.426 47.9071 115.625C47.7911 115.823 47.7583 116.06 47.8158 116.282C47.8734 116.505 48.0166 116.695 48.214 116.812Z" fill="#E6E6E6"/>
<path d="M45.3849 121.648L74.5638 138.874C74.7612 138.99 74.9967 139.023 75.2183 138.965C75.4399 138.908 75.6296 138.764 75.7456 138.565C75.8616 138.367 75.8945 138.131 75.8369 137.908C75.7793 137.685 75.6361 137.495 75.4387 137.378L46.2598 120.152C46.162 120.095 46.0539 120.057 45.9416 120.041C45.8293 120.025 45.7151 120.032 45.6053 120.061C45.4956 120.089 45.3925 120.139 45.3021 120.208C45.2116 120.277 45.1354 120.362 45.078 120.461C45.0206 120.559 44.9829 120.667 44.9673 120.78C44.9516 120.893 44.9582 121.008 44.9867 121.118C45.0152 121.228 45.0651 121.332 45.1334 121.423C45.2017 121.514 45.2872 121.59 45.3849 121.648Z" fill="#E6E6E6"/>
<path d="M92.8371 104.9C95.3484 104.9 97.3842 102.855 97.3842 100.332C97.3842 97.8093 95.3484 95.7642 92.8371 95.7642C90.3258 95.7642 88.29 97.8093 88.29 100.332C88.29 102.855 90.3258 104.9 92.8371 104.9Z" fill="#E6E6E6"/>
<path d="M30.0526 85.5242C29.9033 85.4925 29.7475 85.5216 29.6196 85.6051C29.4916 85.6886 29.4018 85.8196 29.3698 85.9695L16.5574 146.486C16.5258 146.636 16.5548 146.793 16.6379 146.921C16.7209 147.05 16.8514 147.14 17.0006 147.172L65.5302 157.541C65.6795 157.573 65.8352 157.544 65.9632 157.461C66.0912 157.377 66.181 157.246 66.2129 157.096L79.0254 96.5794C79.0569 96.4294 79.028 96.273 78.9449 96.1444C78.8618 96.0158 78.7313 95.9256 78.5821 95.8935L30.0526 85.5242Z" fill="#E6E6E6"/>
<path d="M31.4708 87.7191C31.3215 87.6874 31.1658 87.7164 31.0378 87.7999C30.9098 87.8834 30.82 88.0144 30.7881 88.1644L18.742 145.061C18.7104 145.211 18.7393 145.368 18.8224 145.496C18.9055 145.625 19.036 145.715 19.1852 145.747L64.1117 155.347C64.261 155.378 64.4167 155.349 64.5447 155.266C64.6727 155.182 64.7625 155.051 64.7944 154.901L76.8405 98.0043C76.8721 97.8544 76.8432 97.6979 76.7601 97.5693C76.677 97.4408 76.5465 97.3505 76.3973 97.3185L31.4708 87.7191Z" fill="white"/>
<path d="M65.2743 120.672L32.1706 113.599C32.0596 113.575 31.9542 113.53 31.8606 113.466C31.7669 113.401 31.6869 113.319 31.625 113.223C31.5631 113.128 31.5206 113.021 31.4999 112.908C31.4791 112.796 31.4806 112.681 31.5042 112.57C31.5279 112.458 31.5731 112.352 31.6375 112.258C31.7018 112.165 31.784 112.084 31.8792 112.022C31.9745 111.96 32.081 111.918 32.1926 111.897C32.3043 111.876 32.4189 111.878 32.5299 111.902L65.6336 118.975C65.7446 118.999 65.85 119.044 65.9436 119.109C66.0372 119.173 66.1173 119.256 66.1792 119.351C66.2411 119.447 66.2836 119.554 66.3043 119.666C66.3251 119.778 66.3236 119.893 66.2999 120.004C66.2763 120.116 66.2311 120.222 66.1667 120.316C66.1024 120.41 66.0202 120.49 65.9249 120.552C65.8297 120.614 65.7232 120.656 65.6116 120.677C65.4999 120.698 65.3853 120.696 65.2743 120.672Z" fill="#E6E6E6"/>
<path d="M68.9061 104.925L46.944 100.233C46.6346 100.166 46.4642 99.7331 46.5634 99.2645C46.6626 98.796 46.9939 98.4697 47.3033 98.5359L69.2653 103.228C69.5747 103.295 69.7451 103.728 69.6459 104.197C69.5467 104.665 69.2155 104.991 68.9061 104.925Z" fill="#E6E6E6"/>
<path d="M67.8758 109.789L45.9138 105.097C45.6044 105.031 45.4339 104.597 45.5331 104.129C45.6323 103.66 45.9636 103.334 46.273 103.4L68.235 108.093C68.5445 108.159 68.7149 108.592 68.6157 109.061C68.5165 109.529 68.1852 109.856 67.8758 109.789Z" fill="#E6E6E6"/>
<path d="M64.1131 126.159L31.0094 119.086C30.7858 119.037 30.5903 118.902 30.466 118.709C30.3416 118.516 30.2985 118.282 30.346 118.057C30.3936 117.832 30.528 117.636 30.7197 117.51C30.9115 117.385 31.1448 117.341 31.3686 117.389L64.4724 124.462C64.5833 124.486 64.6884 124.531 64.7819 124.596C64.8753 124.66 64.9552 124.743 65.0169 124.838C65.0787 124.934 65.1211 125.04 65.1417 125.152C65.1624 125.264 65.1608 125.379 65.1373 125.491C65.1137 125.602 65.0685 125.708 65.0042 125.802C64.94 125.896 64.858 125.976 64.7629 126.038C64.6678 126.1 64.5615 126.143 64.45 126.163C64.3385 126.184 64.224 126.182 64.1131 126.159Z" fill="#E6E6E6"/>
<path d="M62.951 131.645L29.8473 124.571C29.6237 124.523 29.4282 124.388 29.3038 124.195C29.1795 124.002 29.1364 123.768 29.1839 123.543C29.2315 123.318 29.3659 123.122 29.5576 122.996C29.7494 122.871 29.9827 122.827 30.2065 122.875L63.3102 129.948C63.4211 129.972 63.5263 130.017 63.6197 130.081C63.7132 130.146 63.793 130.228 63.8548 130.324C63.9165 130.419 63.9589 130.526 63.9796 130.638C64.0002 130.75 63.9987 130.865 63.9751 130.977C63.9515 131.088 63.9063 131.194 63.8421 131.288C63.7779 131.381 63.6959 131.462 63.6008 131.524C63.5057 131.586 63.3993 131.628 63.2879 131.649C63.1764 131.67 63.0619 131.668 62.951 131.645Z" fill="#E6E6E6"/>
<path d="M61.79 137.131L28.6862 130.057C28.5752 130.034 28.4698 129.989 28.3762 129.924C28.2826 129.86 28.2025 129.777 28.1406 129.682C28.0787 129.586 28.0362 129.479 28.0155 129.367C27.9948 129.255 27.9963 129.14 28.0199 129.028C28.0435 128.917 28.0888 128.811 28.1531 128.717C28.2174 128.623 28.2996 128.543 28.3949 128.481C28.4901 128.419 28.5966 128.376 28.7083 128.356C28.8199 128.335 28.9345 128.337 29.0455 128.361L62.1492 135.434C62.3728 135.482 62.5683 135.617 62.6926 135.81C62.817 136.003 62.8601 136.238 62.8126 136.462C62.765 136.687 62.6306 136.884 62.4388 137.009C62.2471 137.134 62.0138 137.178 61.79 137.131Z" fill="#E6E6E6"/>
<path d="M60.6288 142.617L27.5251 135.544C27.414 135.52 27.3087 135.475 27.2151 135.41C27.1214 135.346 27.0414 135.264 26.9795 135.168C26.9176 135.072 26.8751 134.965 26.8544 134.853C26.8336 134.741 26.8351 134.626 26.8587 134.515C26.8823 134.403 26.9276 134.297 26.992 134.203C27.0563 134.109 27.1385 134.029 27.2337 133.967C27.329 133.905 27.4355 133.863 27.5471 133.842C27.6588 133.821 27.7734 133.823 27.8843 133.847L60.9881 140.92C61.0991 140.944 61.2045 140.989 61.2981 141.053C61.3917 141.118 61.4718 141.2 61.5337 141.296C61.5956 141.392 61.6381 141.498 61.6588 141.611C61.6795 141.723 61.6781 141.838 61.6544 141.949C61.6308 142.061 61.5855 142.167 61.5212 142.261C61.4569 142.354 61.3747 142.435 61.2794 142.497C61.1842 142.559 61.0777 142.601 60.966 142.622C60.8544 142.643 60.7398 142.641 60.6288 142.617Z" fill="#E6E6E6"/>
<path d="M59.4676 148.103L26.3639 141.029C26.1403 140.981 25.9448 140.846 25.8205 140.653C25.6961 140.46 25.653 140.226 25.7005 140.001C25.7481 139.776 25.8825 139.58 26.0742 139.454C26.266 139.329 26.4993 139.285 26.7231 139.333L59.8268 146.406C59.9379 146.429 60.0433 146.475 60.1369 146.539C60.2305 146.604 60.3106 146.686 60.3725 146.782C60.4344 146.877 60.4769 146.984 60.4976 147.096C60.5183 147.208 60.5168 147.323 60.4932 147.435C60.4696 147.547 60.4243 147.652 60.36 147.746C60.2956 147.84 60.2135 147.92 60.1182 147.982C60.023 148.044 59.9165 148.087 59.8048 148.108C59.6932 148.128 59.5786 148.127 59.4676 148.103Z" fill="#E6E6E6"/>
<path d="M38.7737 104.769C41.2849 104.769 43.3208 102.724 43.3208 100.201C43.3208 97.6785 41.2849 95.6333 38.7737 95.6333C36.2624 95.6333 34.2266 97.6785 34.2266 100.201C34.2266 102.724 36.2624 104.769 38.7737 104.769Z" fill="#E6E6E6"/>
<path d="M133.717 88.762C134.116 89.1083 134.588 89.3604 135.097 89.4998C135.606 89.6392 136.14 89.6624 136.659 89.5677C137.178 89.473 137.669 89.2627 138.097 88.9524C138.525 88.6421 138.878 88.2395 139.131 87.7742L142.861 80.9092L140.04 78.5601L133.891 83.2402C133.471 83.56 133.127 83.9701 132.885 84.4406C132.643 84.911 132.509 85.4299 132.492 85.9592C132.475 86.4886 132.577 87.015 132.788 87.4999C133 87.9849 133.317 88.4161 133.717 88.762Z" fill="#FFB9B9"/>
<path d="M138.084 79.1899L142.44 82.7188L166.186 64.2276L164.781 32.0444C163.445 33.1177 162.335 34.4464 161.514 35.9535C160.692 37.4607 160.177 39.1164 159.997 40.8249L155.929 59.0049L138.084 79.1899Z" fill="#3243DC"/>
<path d="M183.89 154.001H189.791L190.353 102.057H178.551L183.89 154.001Z" fill="#FFB9B9"/>
<path d="M169.277 156.825H175.178L175.74 101.492L163.938 100.928L169.277 156.825Z" fill="#FFB9B9"/>
<path d="M161.689 106.574L176.302 107.139L176.864 104.033L177.707 108.268L191.196 107.703C191.194 93.973 190.902 78.8013 192.601 73.5439L161.408 76.6493C158.952 87.2873 158.649 97.3653 161.689 106.574Z" fill="#2F2E41"/>
<path d="M187.288 167.552C190.443 167.552 192.916 168.782 192.629 165.627L191.812 154.956C191.796 154.504 191.65 154.066 191.391 153.696C191.132 153.326 190.772 153.04 190.354 152.872C188.105 150.225 185.857 149.942 183.609 152.025C182.878 152.943 182.452 154.068 182.39 155.242L181.933 165.839C181.775 168.92 184.218 167.552 187.288 167.552Z" fill="#2F2E41"/>
<path d="M158.482 167.702L173.48 167.303C174.101 167.216 174.668 166.902 175.073 166.421C175.477 165.94 175.69 165.325 175.671 164.696L175.954 157.333C175.972 156.97 175.848 156.615 175.61 156.342C175.371 156.069 175.035 155.901 174.675 155.874L172.368 155.695C172.095 153.174 170.567 152.563 168.434 152.872L161.69 160.494L157.245 161.745C156.533 161.945 155.918 162.4 155.516 163.024C155.113 163.648 154.952 164.398 155.062 165.134C155.18 165.928 155.606 166.643 156.246 167.124C156.887 167.605 157.69 167.812 158.482 167.702Z" fill="#2F2E41"/>
<path d="M175.741 21.3166C180.552 21.3166 184.452 17.3984 184.452 12.565C184.452 7.73168 180.552 3.81348 175.741 3.81348C170.93 3.81348 167.029 7.73168 167.029 12.565C167.029 17.3984 170.93 21.3166 175.741 21.3166Z" fill="#FFB9B9"/>
<path d="M171.244 28.0921L186.138 23.8574C182.807 22.5557 181.521 20.2851 182.204 17.082H172.368C173.633 21.9073 173.638 25.845 171.244 28.0921Z" fill="#FFB9B9"/>
<path d="M160.565 80.3193C168.971 81.3984 176.715 78.129 184.03 75.6612C187.333 74.5472 190.66 75.7102 193.725 73.8262C192.4 60.7082 193.687 45.9319 196.503 30.1852C196.663 29.2938 196.496 28.3741 196.031 27.5977C195.567 26.8213 194.837 26.2413 193.977 25.9658L184.733 23.0107L176.583 25.8338L172.368 26.6807L163.688 32.5725C163.182 32.9162 162.785 33.3996 162.545 33.9646C162.305 34.5295 162.233 35.152 162.337 35.7571C164.945 50.5662 164.341 65.7663 160.565 80.3193Z" fill="#3243DC"/>
<path d="M184.171 75.8019L186.981 83.1419L189.791 78.9073L186.138 75.2373L184.171 75.8019Z" fill="#FFB9B9"/>
<path d="M167.381 9.44451C170.768 7.26064 174.146 6.5413 177.515 7.15575C178.54 7.34788 179.515 7.74949 180.379 8.33568C181.243 8.92188 181.978 9.68015 182.538 10.5635C183.098 11.4468 183.471 12.4363 183.635 13.4706C183.799 14.505 183.749 15.5621 183.49 16.5764C183.483 16.6038 183.476 16.6311 183.469 16.6585L183.972 15.7078C185.308 13.1866 185.763 10.2884 185.266 7.47641C184.885 5.31706 183.737 3.37005 182.035 1.99662C180.333 0.623181 178.193 -0.0834378 176.011 0.00785935L174.116 0.0871853C171.935 0.178469 169.86 1.05537 168.27 2.55749C166.68 4.05961 165.681 6.08657 165.457 8.26763C165.433 8.50317 165.476 8.74065 165.581 8.95262C165.686 9.1646 165.848 9.34241 166.05 9.4655C166.251 9.5886 166.483 9.65195 166.718 9.64823C166.954 9.64452 167.184 9.57389 167.381 9.44451Z" fill="#2F2E41"/>
<path d="M185.576 75.2374L189.51 80.319L203.28 59.7105L202.089 38.7735C201.938 36.1069 201.117 33.5221 199.704 31.2597C198.291 28.9973 196.331 27.1306 194.007 25.8335L194.288 58.0166L185.576 75.2374Z" fill="#3243DC"/>
<path d="M96.7526 57.0125C96.6236 56.9306 96.4676 56.9033 96.3186 56.9368C96.1697 56.9703 96.0401 57.0618 95.9583 57.1912L62.9769 109.442C62.8954 109.572 62.8683 109.728 62.9016 109.878C62.935 110.028 63.026 110.158 63.1548 110.24L105.056 136.932C105.185 137.014 105.341 137.041 105.49 137.008C105.639 136.974 105.768 136.883 105.85 136.754L138.831 84.5026C138.913 84.3731 138.94 84.2163 138.907 84.0667C138.873 83.9171 138.782 83.7869 138.654 83.7046L96.7526 57.0125Z" fill="#3243DC"/>
<path d="M97.3209 59.5657C97.1919 59.4838 97.0358 59.4566 96.8869 59.4901C96.738 59.5236 96.6084 59.615 96.5265 59.7444L65.5179 108.87C65.4364 109 65.4093 109.156 65.4426 109.306C65.476 109.456 65.567 109.586 65.6958 109.668L104.486 134.378C104.615 134.46 104.771 134.488 104.92 134.454C105.069 134.421 105.198 134.329 105.28 134.2L136.289 85.0741C136.37 84.9445 136.397 84.7877 136.364 84.6381C136.331 84.4885 136.24 84.3583 136.111 84.2761L97.3209 59.5657Z" fill="white"/>
<path d="M117.592 102.279L89.0094 84.0715C88.9137 84.0105 88.8308 83.9312 88.7656 83.838C88.7004 83.7448 88.654 83.6397 88.6293 83.5285C88.6045 83.4174 88.6017 83.3024 88.6212 83.1902C88.6407 83.078 88.6819 82.9707 88.7426 82.8745C88.8034 82.7784 88.8823 82.6951 88.9751 82.6296C89.0678 82.5641 89.1725 82.5175 89.2831 82.4926C89.3938 82.4677 89.5082 82.465 89.6199 82.4845C89.7316 82.5041 89.8384 82.5455 89.9341 82.6065L118.516 100.814C118.612 100.875 118.695 100.955 118.76 101.048C118.825 101.141 118.872 101.246 118.896 101.357C118.921 101.468 118.924 101.583 118.905 101.695C118.885 101.808 118.844 101.915 118.783 102.011C118.722 102.107 118.643 102.191 118.551 102.256C118.458 102.322 118.353 102.368 118.243 102.393C118.132 102.418 118.018 102.421 117.906 102.401C117.794 102.382 117.687 102.34 117.592 102.279Z" fill="#3243DC"/>
<path d="M126.452 88.787L107.49 76.7075C107.223 76.5373 107.213 76.0714 107.469 75.6669C107.724 75.2624 108.148 75.0724 108.415 75.2426L127.377 87.3221C127.644 87.4923 127.654 87.9582 127.398 88.3627C127.143 88.7673 126.719 88.9573 126.452 88.787Z" fill="#3243DC"/>
<path d="M123.801 92.9863L104.839 80.9068C104.571 80.7366 104.562 80.2707 104.817 79.8661C105.073 79.4616 105.496 79.2716 105.763 79.4418L124.726 91.5213C124.993 91.6915 125.002 92.1574 124.747 92.562C124.492 92.9665 124.068 93.1565 123.801 92.9863Z" fill="#3243DC"/>
<path d="M114.601 107.016L86.0192 88.8087C85.8261 88.6853 85.6897 88.4901 85.6399 88.2658C85.59 88.0415 85.6309 87.8064 85.7534 87.6123C85.8759 87.4182 86.0701 87.2809 86.2933 87.2306C86.5165 87.1802 86.7505 87.2209 86.9439 87.3437L115.526 105.551C115.622 105.612 115.705 105.692 115.77 105.785C115.835 105.878 115.881 105.983 115.906 106.094C115.931 106.205 115.934 106.32 115.914 106.433C115.895 106.545 115.854 106.652 115.793 106.748C115.732 106.845 115.653 106.928 115.56 106.993C115.468 107.059 115.363 107.105 115.252 107.13C115.142 107.155 115.027 107.158 114.916 107.138C114.804 107.119 114.697 107.077 114.601 107.016H114.601Z" fill="#3243DC"/>
<path d="M111.612 111.753L83.0299 93.545C82.8369 93.4217 82.7005 93.2264 82.6506 93.0021C82.6008 92.7778 82.6416 92.5428 82.7641 92.3487C82.8866 92.1546 83.0808 92.0173 83.3041 91.9669C83.5273 91.9165 83.7613 91.9572 83.9546 92.08L112.537 110.288C112.633 110.349 112.716 110.428 112.781 110.521C112.846 110.614 112.893 110.719 112.918 110.831C112.943 110.942 112.945 111.057 112.926 111.169C112.907 111.282 112.865 111.389 112.805 111.485C112.744 111.582 112.665 111.665 112.572 111.73C112.479 111.796 112.374 111.842 112.263 111.867C112.153 111.892 112.038 111.895 111.926 111.875C111.815 111.855 111.708 111.814 111.612 111.753Z" fill="#3243DC"/>
<path d="M108.622 116.49L80.0397 98.2821C79.9438 98.2212 79.8607 98.1419 79.7954 98.0487C79.73 97.9555 79.6836 97.8503 79.6587 97.7391C79.6338 97.6278 79.631 97.5128 79.6504 97.4005C79.6699 97.2881 79.7112 97.1808 79.7719 97.0845C79.8327 96.9882 79.9118 96.9049 80.0046 96.8394C80.0974 96.7738 80.2022 96.7273 80.313 96.7025C80.4237 96.6776 80.5383 96.675 80.6501 96.6947C80.7618 96.7143 80.8686 96.7559 80.9644 96.8171L109.547 115.025C109.74 115.148 109.876 115.343 109.926 115.568C109.976 115.792 109.935 116.027 109.812 116.221C109.69 116.415 109.496 116.553 109.272 116.603C109.049 116.653 108.815 116.613 108.622 116.49Z" fill="#3243DC"/>
<path d="M105.632 121.226L77.0495 103.019C76.8561 102.896 76.7193 102.7 76.6693 102.476C76.6193 102.251 76.6601 102.016 76.7827 101.822C76.9053 101.628 77.0997 101.49 77.3232 101.44C77.5466 101.39 77.7808 101.431 77.9742 101.554L106.556 119.761C106.749 119.885 106.886 120.08 106.936 120.304C106.985 120.529 106.945 120.764 106.822 120.958C106.7 121.152 106.505 121.289 106.282 121.34C106.059 121.39 105.825 121.349 105.632 121.226Z" fill="#3243DC"/>
<path d="M102.641 125.963L74.0592 107.756C73.9635 107.695 73.8806 107.615 73.8154 107.522C73.7502 107.429 73.7038 107.324 73.6791 107.213C73.6543 107.101 73.6516 106.987 73.671 106.874C73.6905 106.762 73.7317 106.655 73.7924 106.559C73.8532 106.462 73.9321 106.379 74.0249 106.314C74.1176 106.248 74.2223 106.202 74.3329 106.177C74.4436 106.152 74.558 106.149 74.6697 106.169C74.7814 106.188 74.8882 106.23 74.9839 106.291L103.566 124.498C103.759 124.621 103.896 124.817 103.946 125.041C103.996 125.266 103.956 125.501 103.833 125.695C103.71 125.89 103.516 126.027 103.292 126.077C103.069 126.127 102.835 126.086 102.641 125.963Z" fill="#3243DC"/>
<path d="M99.842 78.3889C102.353 78.3889 104.389 76.3438 104.389 73.8209C104.389 71.2981 102.353 69.2529 99.842 69.2529C97.3307 69.2529 95.2949 71.2981 95.2949 73.8209C95.2949 76.3438 97.3307 78.3889 99.842 78.3889Z" fill="#3243DC"/>
<path d="M10.5325 103.247C10.4181 103.247 10.3049 103.271 10.2005 103.318C10.0961 103.365 10.0027 103.433 9.92643 103.519C9.85019 103.605 9.79283 103.706 9.75809 103.815C9.72335 103.925 9.71202 104.04 9.72485 104.154L16.7701 166.969C16.7924 167.168 16.8871 167.352 17.0361 167.486C17.1851 167.62 17.3779 167.694 17.5778 167.694H123.176C123.376 167.694 123.569 167.62 123.718 167.486C123.867 167.352 123.961 167.168 123.983 166.969L131.029 104.154C131.041 104.04 131.03 103.925 130.995 103.815C130.961 103.706 130.903 103.605 130.827 103.519C130.751 103.433 130.658 103.364 130.554 103.317C130.449 103.27 130.336 103.246 130.221 103.247H10.5325Z" fill="#E6E6E6"/>
<path d="M20.1395 113.796L53.9832 113.612C54.2119 113.61 54.4307 113.518 54.5914 113.354C54.7521 113.191 54.8416 112.97 54.8404 112.74C54.8391 112.51 54.7472 112.29 54.5847 112.129C54.4223 111.967 54.2026 111.877 53.9739 111.877L20.1302 112.062C19.9012 112.063 19.6821 112.155 19.5211 112.319C19.36 112.482 19.2703 112.704 19.2715 112.934C19.2727 113.164 19.3649 113.384 19.5277 113.546C19.6905 113.707 19.9105 113.797 20.1395 113.796Z" fill="white"/>
<path d="M20.1395 119.16L40.2135 118.976C40.4422 118.974 40.6609 118.881 40.8216 118.718C40.9823 118.554 41.0718 118.334 41.0706 118.104C41.0694 117.874 40.9774 117.654 40.815 117.492C40.6525 117.331 40.4328 117.24 40.2041 117.241L20.1302 117.425C19.9012 117.427 19.6821 117.519 19.5211 117.683C19.36 117.846 19.2703 118.067 19.2715 118.297C19.2727 118.527 19.3649 118.747 19.5277 118.909C19.6905 119.071 19.9105 119.161 20.1395 119.16Z" fill="white"/>
<path d="M212.889 168H0V167.384H213L212.889 168Z" fill="#3F3D56"/>
</g>
<defs>
<clipPath id="clip0_372_4176">
<rect width="213" height="168" fill="white"/>
</clipPath>
</defs>
</svg>
