<svg width="120" height="36" viewBox="0 0 120 36" fill="none" xmlns="http://www.w3.org/2000/svg">
<g clip-path="url(#clip0_22_2)">
<path d="M18.6616 0.0539619C-1.2416 0.403162 -7.61839 29.172 11.4208 35.8692C11.6947 35.9797 11.9912 36.0222 12.2851 35.9932C12.579 35.9642 12.8615 35.8646 13.1085 35.7027C13.3555 35.5408 13.5597 35.3216 13.7036 35.0637C13.8475 34.8057 13.9268 34.5168 13.9348 34.2216V18.348C13.8148 15.3996 4.69477 19.3224 4.93477 19.5096C4.68678 19.0575 4.50377 18.5727 4.39117 18.0696C10.3144 14.262 14.6872 15.8928 14.6872 15.8928C12.994 15.108 9.43482 14.4528 4.37682 17.1372C4.48706 14.9738 5.20443 12.8852 6.44679 11.1107C8.50266 10.0586 10.7957 9.55618 13.1032 9.65206C15.4106 9.74794 17.6541 10.439 19.6156 11.658C21.577 10.4454 23.8172 9.75725 26.1212 9.65975C28.4251 9.56224 30.7155 10.0586 32.7724 11.1012C33.9697 12.8876 34.694 14.9488 34.8772 17.0916C28.6744 14.2452 25.7884 15.2424 24.0928 16.0284C24.0928 16.0284 28.7728 14.4096 34.7668 18.0684C34.6783 18.5823 34.5099 19.0791 34.2676 19.5408C33.112 18.5364 25.4272 15.7404 25.2424 18.3564V34.2348C25.2504 34.5293 25.3294 34.8176 25.4727 35.075C25.616 35.3324 25.8194 35.5514 26.0656 35.7133C26.3117 35.8752 26.5933 35.9752 26.8865 36.0049C27.1796 36.0345 27.4756 35.9929 27.7492 35.8836C47.6764 28.7148 39.6376 -1.44124 18.6616 0.0539619Z" fill="#2130AC"/>
<path d="M19.3529 18.8088C20.3717 17.6352 20.1341 25.6548 20.2373 26.3856C20.1401 27.1116 20.3657 35.166 19.3529 33.9744C18.7912 28.9348 18.7912 23.8484 19.3529 18.8088Z" fill="#FF4C45"/>
<path d="M16.4738 21.3984C17.303 20.3928 17.0439 25.8528 17.1375 26.3784C17.0403 26.9292 17.3114 32.3388 16.4738 31.3692C16.1233 28.0548 16.1233 24.7127 16.4738 21.3984Z" fill="#FF4C45"/>
<path d="M22.2894 21.3828C23.1042 20.3868 22.875 25.8492 22.977 26.3796C22.8726 26.9352 23.1114 32.3376 22.2894 31.3764C21.9491 28.0539 21.9491 24.7053 22.2894 21.3828Z" fill="#FF4C45"/>
<path d="M46.5564 10.5539C46.5546 10.4912 46.5659 10.4288 46.5896 10.3706C46.6133 10.3125 46.6489 10.26 46.6941 10.2164C46.7393 10.1728 46.7931 10.139 46.852 10.1174C46.9109 10.0958 46.9737 10.0867 47.0363 10.0908C47.3039 10.3308 60.5076 9.52675 60.0576 10.5539C59.9892 10.8419 60.1968 12.5688 59.9268 12.7692C59.9268 13.1028 55.0271 12.8568 54.8303 12.9276C54.7019 13.2876 55.0787 26.742 54.6995 27.0132C54.5435 27.3132 52.5288 27.102 52.2564 27.162C51.1764 27.75 52.008 13.1052 51.7608 12.9276C51.648 12.888 46.566 13.0476 46.6908 12.7968C46.422 12.6072 46.6092 10.8491 46.5564 10.5539Z" fill="#0F0F54"/>
<path d="M65.0724 14.9412C64.8228 14.5812 63.2232 14.8212 62.8668 14.7564C62.7819 14.7514 62.697 14.7648 62.6178 14.7956C62.5385 14.8264 62.4669 14.874 62.4078 14.9351C62.3486 14.9962 62.3034 15.0693 62.2751 15.1494C62.2469 15.2296 62.2363 15.315 62.244 15.3996C62.5368 15.7188 61.536 27.9204 62.8752 27.1596C63.432 27.0108 65.3952 27.5892 65.292 26.526V15.3936C65.2885 15.3071 65.2673 15.2223 65.2295 15.1444C65.1917 15.0666 65.1382 14.9974 65.0724 14.9412Z" fill="#0F0F54"/>
<path d="M65.1131 10.2504C64.8587 9.94683 63.2183 10.1472 62.8667 10.0908C62.7811 10.0794 62.6941 10.0881 62.6125 10.1161C62.5309 10.1442 62.4569 10.1908 62.3964 10.2524C62.336 10.314 62.2908 10.3888 62.2643 10.471C62.2378 10.5531 62.2308 10.6403 62.2439 10.7256C62.3579 11.2788 61.8611 13.0728 62.8775 12.9816C63.4595 12.8724 65.3579 13.374 65.2919 12.3036C65.2307 11.9544 65.4527 10.4904 65.1131 10.2504Z" fill="#FF4C45"/>
<path d="M69.2099 14.0736C69.5699 13.542 70.5587 13.8408 71.0879 13.7676C71.9111 13.7484 71.7527 15.012 71.8583 15.5304C74.9231 11.3592 81.4799 14.3496 81.0047 19.3705C80.9303 19.6333 81.1967 26.9964 80.8259 26.9772C80.5859 27.3372 79.0703 27.0972 78.7043 27.168C78.1391 27.1608 78.0095 27 77.9975 26.448C77.9327 25.6704 78.1775 18.888 77.8067 18.3312C77.0663 15.9144 73.5275 15.8953 72.4259 18.0673C71.7059 19.3381 72.4439 25.4496 72.0203 26.8176C71.8607 27.4536 70.1855 27.0636 69.7571 27.1656C69.3155 27.1656 69.0851 26.9616 69.0827 26.532C69.2351 26.1144 68.8259 14.4396 69.2099 14.0736Z" fill="#0F0F54"/>
<path d="M94.4077 26.2152C94.455 25.9078 94.4799 25.5974 94.4821 25.2864C90.7621 29.6664 83.3341 25.8648 83.6593 20.4348C83.3449 14.9304 90.8257 10.986 94.6189 15.4764C94.8025 14.8764 94.5277 13.7448 95.4097 13.7364C96.0589 13.8324 97.3213 13.3992 97.4041 14.3592C97.1977 16.6728 97.9189 26.1408 96.8449 28.1208C95.4517 31.4808 91.2685 32.5608 88.0045 31.5072C87.2293 31.1472 85.2325 30.6804 85.7461 29.562C86.0737 29.2548 86.5501 27.9048 87.1549 28.1808C89.3689 29.8128 93.9457 29.4228 94.4077 26.2152ZM86.6233 20.4348C86.5705 25.8432 94.4629 25.8468 94.6093 20.5296C94.6681 15.1104 86.5969 14.9148 86.6233 20.4348Z" fill="#0F0F54"/>
<path d="M100.581 10.776C100.47 9.72121 102.487 10.2732 103.027 10.1424C103.187 10.154 103.335 10.2261 103.443 10.344C103.551 10.4618 103.61 10.6164 103.607 10.776V26.532C103.614 26.6198 103.603 26.7082 103.572 26.7911C103.542 26.8739 103.495 26.9493 103.433 27.012C103.187 27.3396 101.548 27.0972 101.201 27.1704C100.753 27.1704 100.583 26.9664 100.578 26.5368C100.581 26.532 100.581 10.776 100.581 10.776Z" fill="#0F0F54"/>
<path d="M120 26.538C119.962 27.5088 118.368 27.06 117.763 27.1608C116.966 27.2076 117.101 26.1408 117.036 25.632C113.083 29.7936 105.806 25.8972 106.066 20.4528C105.768 14.9208 113.436 10.9812 117.204 15.4944C117.341 14.9916 117.174 13.6344 118.006 13.734C118.584 13.8024 119.951 13.4628 120 14.3568V26.538ZM109.03 20.4504C108.983 25.9188 116.993 25.8336 117.016 20.4504C116.974 15.0792 108.997 14.9928 109.03 20.4564V20.4504Z" fill="#0F0F54"/>
</g>
<defs>
<clipPath id="clip0_22_2">
<rect width="120" height="36" fill="white"/>
</clipPath>
</defs>
</svg>
