<svg width="22" height="22" viewBox="0 0 22 22" fill="none" xmlns="http://www.w3.org/2000/svg">
<path d="M5.656 16.5C5.84538 15.9632 6.19659 15.4984 6.66121 15.1697C7.12583 14.8409 7.68099 14.6644 8.25016 14.6644C8.81933 14.6644 9.37449 14.8409 9.83911 15.1697C10.3037 15.4984 10.6549 15.9632 10.8443 16.5H20.1668V18.3333H10.8443C10.6549 18.87 10.3037 19.3348 9.83911 19.6636C9.37449 19.9923 8.81933 20.1689 8.25016 20.1689C7.68099 20.1689 7.12583 19.9923 6.66121 19.6636C6.19659 19.3348 5.84538 18.87 5.656 18.3333H1.8335V16.5H5.656ZM11.156 10.0833C11.3454 9.54656 11.6966 9.08178 12.1612 8.75302C12.6258 8.42427 13.181 8.24772 13.7502 8.24772C14.3193 8.24772 14.8745 8.42427 15.3391 8.75302C15.8037 9.08178 16.1549 9.54656 16.3443 10.0833H20.1668V11.9166H16.3443C16.1549 12.4534 15.8037 12.9182 15.3391 13.2469C14.8745 13.5757 14.3193 13.7522 13.7502 13.7522C13.181 13.7522 12.6258 13.5757 12.1612 13.2469C11.6966 12.9182 11.3454 12.4534 11.156 11.9166H1.8335V10.0833H11.156ZM5.656 3.66663C5.84538 3.1299 6.19659 2.66512 6.66121 2.33636C7.12583 2.0076 7.68099 1.83105 8.25016 1.83105C8.81933 1.83105 9.37449 2.0076 9.83911 2.33636C10.3037 2.66512 10.6549 3.1299 10.8443 3.66663H20.1668V5.49997H10.8443C10.6549 6.03671 10.3037 6.50149 9.83911 6.83024C9.37449 7.159 8.81933 7.33555 8.25016 7.33555C7.68099 7.33555 7.12583 7.159 6.66121 6.83024C6.19659 6.50149 5.84538 6.03671 5.656 5.49997H1.8335V3.66663H5.656ZM8.25016 5.49997C8.49328 5.49997 8.72644 5.40339 8.89834 5.23148C9.07025 5.05957 9.16683 4.82642 9.16683 4.5833C9.16683 4.34019 9.07025 4.10703 8.89834 3.93512C8.72644 3.76321 8.49328 3.66663 8.25016 3.66663C8.00705 3.66663 7.77389 3.76321 7.60198 3.93512C7.43007 4.10703 7.3335 4.34019 7.3335 4.5833C7.3335 4.82642 7.43007 5.05957 7.60198 5.23148C7.77389 5.40339 8.00705 5.49997 8.25016 5.49997ZM13.7502 11.9166C13.9933 11.9166 14.2264 11.8201 14.3983 11.6481C14.5703 11.4762 14.6668 11.2431 14.6668 11C14.6668 10.7569 14.5703 10.5237 14.3983 10.3518C14.2264 10.1799 13.9933 10.0833 13.7502 10.0833C13.507 10.0833 13.2739 10.1799 13.102 10.3518C12.9301 10.5237 12.8335 10.7569 12.8335 11C12.8335 11.2431 12.9301 11.4762 13.102 11.6481C13.2739 11.8201 13.507 11.9166 13.7502 11.9166ZM8.25016 18.3333C8.49328 18.3333 8.72644 18.2367 8.89834 18.0648C9.07025 17.8929 9.16683 17.6597 9.16683 17.4166C9.16683 17.1735 9.07025 16.9404 8.89834 16.7685C8.72644 16.5965 8.49328 16.5 8.25016 16.5C8.00705 16.5 7.77389 16.5965 7.60198 16.7685C7.43007 16.9404 7.3335 17.1735 7.3335 17.4166C7.3335 17.6597 7.43007 17.8929 7.60198 18.0648C7.77389 18.2367 8.00705 18.3333 8.25016 18.3333Z" fill="white"/>
</svg>
