<svg width="26" height="26" viewBox="0 0 26 26" fill="none" xmlns="http://www.w3.org/2000/svg">
<path d="M13 8.125V13" stroke="black" stroke-width="1.5" stroke-linecap="round" stroke-linejoin="round"/>
<path d="M17.2219 15.4375L13 13" stroke="black" stroke-width="1.5" stroke-linecap="round" stroke-linejoin="round"/>
<path d="M7.29541 10.1274H3.23291V6.06494" stroke="black" stroke-width="1.5" stroke-linecap="round" stroke-linejoin="round"/>
<path d="M6.68005 19.3198C7.92999 20.5697 9.5225 21.4209 11.2562 21.7658C12.9899 22.1106 14.7869 21.9336 16.4201 21.2572C18.0532 20.5807 19.449 19.4352 20.4311 17.9654C21.4131 16.4956 21.9373 14.7677 21.9373 13C21.9373 11.2323 21.4131 9.50436 20.4311 8.03459C19.449 6.56483 18.0532 5.41929 16.4201 4.74283C14.7869 4.06637 12.9899 3.88938 11.2562 4.23424C9.5225 4.57909 7.92999 5.4303 6.68005 6.68024L3.23291 10.1274" stroke="black" stroke-width="1.5" stroke-linecap="round" stroke-linejoin="round"/>
</svg>
