<svg width="32" height="32" viewBox="0 0 32 32" fill="none" xmlns="http://www.w3.org/2000/svg">
<g opacity="0.5">
<path d="M18.9993 25.9992V19.9991C18.9993 19.7339 18.8939 19.4795 18.7064 19.292C18.5188 19.1044 18.2645 18.9991 17.9993 18.9991H13.9993C13.7341 18.9991 13.4797 19.1044 13.2922 19.292C13.1046 19.4795 12.9993 19.7339 12.9993 19.9991V25.9992C12.9993 26.2644 12.8939 26.5187 12.7064 26.7063C12.5189 26.8938 12.2646 26.9992 11.9994 26.9992L6.00012 27C5.86879 27 5.73874 26.9741 5.6174 26.9239C5.49606 26.8737 5.38581 26.8 5.29294 26.7071C5.20007 26.6143 5.12639 26.504 5.07613 26.3827C5.02587 26.2614 5 26.1313 5 26V14.4424C5 14.3031 5.02911 14.1653 5.08547 14.0379C5.14183 13.9105 5.22418 13.7963 5.32726 13.7026L15.3266 4.6107C15.5106 4.44334 15.7505 4.35059 15.9993 4.35059C16.2481 4.35058 16.4879 4.44331 16.672 4.61066L26.6727 13.7025C26.7758 13.7963 26.8582 13.9105 26.9145 14.0379C26.9709 14.1653 27 14.3031 27 14.4425V26C27 26.1313 26.9741 26.2614 26.9239 26.3827C26.8736 26.504 26.7999 26.6143 26.7071 26.7071C26.6142 26.8 26.5039 26.8737 26.3826 26.9239C26.2613 26.9742 26.1312 27 25.9999 27L19.9991 26.9992C19.7339 26.9992 19.4796 26.8938 19.2921 26.7063C19.1046 26.5187 18.9993 26.2644 18.9993 25.9992V25.9992Z" stroke="black" stroke-width="2" stroke-linecap="round" stroke-linejoin="round"/>
</g>
</svg>
