<svg width="32" height="32" viewBox="0 0 32 32" fill="none" xmlns="http://www.w3.org/2000/svg">
<path d="M27.3456 12.9625L17.3447 3.87054C16.9774 3.53417 16.4974 3.34762 15.9993 3.34766C15.5012 3.34769 15.0212 3.53431 14.6539 3.87072L4.6548 12.9625C4.44879 13.1501 4.28417 13.3786 4.17145 13.6334C4.05872 13.8882 4.00038 14.1637 4.00013 14.4423V25.9542C3.9944 26.4568 4.17271 26.9442 4.50147 27.3244C4.68876 27.5373 4.91939 27.7077 5.1779 27.8242C5.43641 27.9407 5.71684 28.0006 6.00038 27.9999H11.9957C12.261 27.9999 12.5153 27.8945 12.7028 27.707C12.8904 27.5194 12.9957 27.2651 12.9957 26.9999V20.999C12.9957 20.7337 13.1011 20.4794 13.2886 20.2918C13.4762 20.1043 13.7305 19.999 13.9957 19.999H17.9957C18.261 19.999 18.5153 20.1043 18.7028 20.2918C18.8904 20.4794 18.9957 20.7337 18.9957 20.999V26.9999C18.9957 27.2651 19.1011 27.5194 19.2886 27.707C19.4762 27.8945 19.7305 27.9999 19.9957 27.9999H26.0029C26.3315 28.0042 26.6557 27.9243 26.9447 27.7679C27.2636 27.5957 27.5301 27.3405 27.7159 27.0293C27.9017 26.718 27.9999 26.3623 28.0001 25.9999V14.4424C27.9999 14.1638 27.9415 13.8883 27.8288 13.6335C27.7161 13.3787 27.5515 13.1502 27.3456 12.9625Z" fill="black"/>
</svg>
