<svg width="28" height="28" viewBox="0 0 28 28" fill="none" xmlns="http://www.w3.org/2000/svg">
<g opacity="0.5">
<path d="M9.625 7H23.625" stroke="white" stroke-width="1.5" stroke-linecap="round" stroke-linejoin="round"/>
<path d="M9.62598 14H23.6253" stroke="white" stroke-width="1.5" stroke-linecap="round" stroke-linejoin="round"/>
<path d="M9.62598 21H23.6253" stroke="white" stroke-width="1.5" stroke-linecap="round" stroke-linejoin="round"/>
<path d="M4.8125 8.3125C5.53737 8.3125 6.125 7.72487 6.125 7C6.125 6.27513 5.53737 5.6875 4.8125 5.6875C4.08763 5.6875 3.5 6.27513 3.5 7C3.5 7.72487 4.08763 8.3125 4.8125 8.3125Z" fill="white"/>
<path d="M4.8125 15.3125C5.53737 15.3125 6.125 14.7249 6.125 14C6.125 13.2751 5.53737 12.6875 4.8125 12.6875C4.08763 12.6875 3.5 13.2751 3.5 14C3.5 14.7249 4.08763 15.3125 4.8125 15.3125Z" fill="white"/>
<path d="M4.8125 22.3125C5.53737 22.3125 6.125 21.7249 6.125 21C6.125 20.2751 5.53737 19.6875 4.8125 19.6875C4.08763 19.6875 3.5 20.2751 3.5 21C3.5 21.7249 4.08763 22.3125 4.8125 22.3125Z" fill="white"/>
</g>
</svg>
