<svg width="194" height="126" viewBox="0 0 194 126" fill="none" xmlns="http://www.w3.org/2000/svg">
<g clip-path="url(#clip0_370_3917)">
<path d="M194 59.1564C194 64.1694 192.109 68.9977 188.704 72.6762C185.299 76.3547 180.631 78.6123 175.634 78.9977C175.466 79.0105 175.295 79.0233 175.124 79.0309V60.1438C175.124 59.955 175.082 59.7686 175.001 59.5982C174.92 59.4278 174.801 59.2777 174.655 59.159C174.638 59.1416 174.619 59.1262 174.598 59.1131C174.58 59.098 174.56 59.0844 174.54 59.0723C174.361 58.9569 174.155 58.8883 173.943 58.8727C173.73 58.8571 173.517 58.895 173.323 58.983L173.111 58.5186C173.343 58.4132 173.594 58.3584 173.849 58.3579L159.319 45.8388C159.432 45.7112 159.549 45.5862 159.666 45.4612C162.405 42.5732 165.947 40.5732 169.835 39.7195C173.722 38.8658 177.776 39.1977 181.473 40.6723C185.17 42.147 188.339 44.6965 190.572 47.9915C192.805 51.2866 193.999 55.1757 194 59.1564Z" fill="#F2F2F2"/>
<path d="M5.04498 72.7257C4.97273 72.3565 4.98229 71.9759 5.073 71.6108C5.16371 71.2457 5.33336 70.9049 5.57 70.6124C5.80664 70.32 6.10451 70.083 6.44263 69.9181C6.78075 69.7532 7.1509 69.6645 7.52701 69.6582L18.9958 56.0029L21.8591 59.6645L10.1707 72.3731C10.1394 73.0057 9.87719 73.6049 9.4337 74.0571C8.99022 74.5093 8.3963 74.7831 7.76448 74.8265C7.13267 74.87 6.50687 74.6802 6.00565 74.293C5.50443 73.9058 5.16262 73.3481 5.045 72.7257H5.04498Z" fill="#FFB8B8"/>
<path d="M59.5059 55.9186C59.4256 56.0347 59.3546 56.157 59.2935 56.2842L46.7707 58.0746L44.8691 55.66L40.8506 58.0541L44.628 63.9447L59.9009 59.4417C60.3039 59.8066 60.8085 60.0401 61.3474 60.1112C61.8864 60.1823 62.4343 60.0876 62.9181 59.8397C63.402 59.5918 63.7989 59.2025 64.0561 58.7235C64.3134 58.2444 64.4187 57.6984 64.3581 57.1581C64.2975 56.6177 64.0739 56.1086 63.717 55.6984C63.3601 55.2883 62.8868 54.9965 62.36 54.862C61.8333 54.7274 61.2781 54.7564 60.7683 54.9452C60.2584 55.1339 59.8181 55.4734 59.5059 55.9186Z" fill="#FFB8B8"/>
<path d="M38.1152 101.543L40.3313 103.75L49.8968 96.2512L46.6262 92.994L38.1152 101.543Z" fill="#FFB8B8"/>
<path d="M42.5562 110.064L35.5916 103.128L38.2709 100.437L42.5446 104.693C42.898 105.045 43.1786 105.463 43.3704 105.923C43.5622 106.384 43.6615 106.878 43.6626 107.376C43.6637 107.875 43.5665 108.369 43.3767 108.83C43.1868 109.292 42.908 109.711 42.5561 110.064L42.5562 110.064Z" fill="#2F2E41"/>
<path d="M26.3355 122.711H29.4627L30.9503 110.647H26.335L26.3355 122.711Z" fill="#FFB8B8"/>
<path d="M35.4937 125.615L25.6653 125.616L25.6652 121.818L31.6962 121.817C32.1948 121.817 32.6886 121.916 33.1494 122.106C33.6101 122.297 34.0287 122.577 34.3813 122.93C34.734 123.282 35.0137 123.701 35.2045 124.162C35.3954 124.623 35.4936 125.116 35.4937 125.615Z" fill="#2F2E41"/>
<path d="M25.656 113.393L22.094 87.1185C21.5365 83.1477 21.7095 79.1084 22.6044 75.1998C23.3354 72.0587 24.3229 69.8829 25.5395 68.7332C25.7315 68.553 25.9773 68.4407 26.2393 68.4136L38 67.1882C38.2265 67.1651 38.455 67.2068 38.6587 67.3086C38.8624 67.4105 39.0329 67.5681 39.1504 67.7632L39.537 68.4076C39.5839 68.4858 39.6218 68.5692 39.6498 68.656L42.1364 76.3659C42.1735 76.4824 42.2334 76.5904 42.3126 76.6835C42.3918 76.7767 42.4887 76.8531 42.5977 76.9085C46.5126 78.9076 59.2295 85.6562 58.5018 88.5678C57.818 91.3035 51.4159 95.7394 49.47 97.0336C49.2719 97.1661 49.0385 97.236 48.8002 97.2342C48.5618 97.2324 48.3295 97.159 48.1334 97.0235L44.9033 94.8131C44.7456 94.7052 44.6161 94.561 44.5254 94.3927C44.4348 94.2245 44.3858 94.0369 44.3825 93.8458C44.3791 93.6547 44.4216 93.4656 44.5063 93.2943C44.5909 93.123 44.7154 92.9744 44.8692 92.861L47.0967 91.2194C47.233 91.1189 47.3394 90.9831 47.4043 90.8267C47.4692 90.6702 47.4902 90.4991 47.4651 90.3316C47.44 90.164 47.3697 90.0066 47.2618 89.876C47.1539 89.7455 47.0124 89.6469 46.8526 89.5908L34.8899 85.3925C34.7556 85.3453 34.6122 85.3296 34.4709 85.3465C34.3295 85.3634 34.194 85.4126 34.0746 85.4901C33.9552 85.5676 33.8552 85.6715 33.7822 85.7938C33.7092 85.9161 33.6652 86.0534 33.6537 86.1953L31.448 113.159C31.4236 113.448 31.2954 113.719 31.0871 113.921C30.8787 114.123 30.6043 114.242 30.3147 114.257L26.9019 114.428C26.8811 114.429 26.8605 114.429 26.8399 114.429C26.5503 114.431 26.2702 114.326 26.0522 114.135C25.8342 113.944 25.6933 113.681 25.656 113.393Z" fill="#2F2E41"/>
<path d="M31.0496 45.4344C34.5097 45.4344 37.3146 42.6289 37.3146 39.1682C37.3146 35.7075 34.5097 32.902 31.0496 32.902C27.5896 32.902 24.7847 35.7075 24.7847 39.1682C24.7847 42.6289 27.5896 45.4344 31.0496 45.4344Z" fill="#FFB8B8"/>
<path d="M25.1897 67.6598L20.5781 50.8304L20.6571 50.7771C20.7561 50.7103 30.696 44.1455 42.3337 49.4359L42.5447 49.5569L39.8121 67.0248C39.7525 67.4234 39.5556 67.7888 39.2556 68.0578C38.9555 68.3268 38.5709 68.4827 38.1683 68.4985L26.9237 68.9311C26.9011 68.9319 26.8785 68.9324 26.856 68.9324C26.4769 68.9333 26.1082 68.8091 25.8069 68.579C25.5056 68.3489 25.2887 68.0258 25.1897 67.6598Z" fill="#CCCCCC"/>
<path d="M20.4031 61.7867L16.5624 57.3691C16.3774 57.1568 16.2732 56.886 16.2683 56.6045C16.2633 56.323 16.3578 56.0487 16.5352 55.8301L20.5503 50.8691L23.6325 51.7099L25.2666 57.4304L22.2871 61.6877C22.1832 61.8371 22.0464 61.9607 21.8872 62.0489C21.7281 62.1371 21.5509 62.1877 21.3691 62.1967C21.3476 62.1977 21.3263 62.1983 21.3049 62.1983C21.1338 62.1986 20.9647 62.162 20.8091 62.091C20.6534 62.0199 20.515 61.9161 20.4031 61.7867Z" fill="#CCCCCC"/>
<path d="M41.6416 60.8664C41.4599 60.8574 41.2826 60.8069 41.1235 60.7186C40.9643 60.6304 40.8275 60.5068 40.7236 60.3574L37.7441 56.1001L39.1773 50.0785L42.0151 49.3043L42.5447 49.5571L46.4755 54.4998C46.6529 54.7185 46.7474 54.9927 46.7425 55.2742C46.7375 55.5558 46.6333 55.8265 46.4484 56.0388L42.6076 60.4564C42.4957 60.5859 42.3573 60.6897 42.2016 60.7607C42.046 60.8317 41.8769 60.8683 41.7058 60.868C41.6845 60.868 41.663 60.8674 41.6416 60.8664Z" fill="#CCCCCC"/>
<path d="M175.124 58.8937C175.126 58.9573 175.104 59.0193 175.063 59.0673C175.019 59.1187 174.956 59.1505 174.889 59.1558C174.821 59.161 174.755 59.1393 174.703 59.0953L173.849 58.358L159.319 45.8389L118.568 10.7205C118.336 10.5215 118.04 10.4123 117.734 10.4128C117.428 10.4133 117.132 10.5233 116.9 10.7231L62.0227 58.409L61.5279 58.8376C61.5089 58.8544 61.4874 58.8682 61.4641 58.8785C61.4233 58.8965 61.3784 58.9036 61.334 58.8989C61.2703 58.8921 61.2113 58.8621 61.1682 58.8147C61.146 58.7896 61.1291 58.7603 61.1182 58.7287C61.1074 58.697 61.1029 58.6635 61.105 58.6301C61.1071 58.5966 61.1158 58.564 61.1306 58.5339C61.1454 58.5039 61.166 58.477 61.1911 58.4549L61.26 58.3937L116.566 10.3379C116.891 10.0587 117.305 9.90475 117.733 9.90381C118.162 9.90288 118.576 10.055 118.902 10.3327L159.666 45.4613L175.035 58.7075C175.062 58.7308 175.083 58.7593 175.099 58.7914C175.114 58.8234 175.123 58.8582 175.124 58.8937Z" fill="#3F3D56"/>
<path d="M144.14 66.4277L143.469 64.5806L141.158 58.2024L136.179 44.4689L130.613 29.1178L120.576 1.4288C120.379 0.888837 119.976 0.449002 119.455 0.205607C118.934 -0.037787 118.339 -0.0649029 117.798 0.130197L59.7654 21.1757C59.2254 21.3726 58.7855 21.7757 58.5421 22.2965C58.2988 22.8173 58.2718 23.4134 58.4671 23.954L72.6979 63.208L72.9401 63.879L87.8775 70.6501L92.0761 72.5533L92.7571 72.862L110.534 80.9215L111.222 80.6715L122.882 76.444L140.469 70.0658L142.839 69.206C143.379 69.0093 143.82 68.6064 144.063 68.0857C144.307 67.5649 144.335 66.9687 144.14 66.4277Z" fill="#E6E6E6"/>
<path d="M119.805 33.7305C119.516 32.9358 118.923 32.2884 118.157 31.9302C117.391 31.572 116.514 31.5322 115.719 31.8196L92.757 40.1495L81.6689 44.1703C81.2749 44.3128 80.9128 44.5315 80.6034 44.8139C80.2939 45.0964 80.0432 45.4371 79.8655 45.8165C79.6878 46.196 79.5866 46.6067 79.5677 47.0253C79.5488 47.4439 79.6126 47.8621 79.7553 48.256C79.8981 48.6499 80.1171 49.0118 80.3999 49.321C80.6826 49.6303 81.0235 49.8807 81.403 50.0581C81.7825 50.2354 82.1933 50.3363 82.6118 50.3547C83.0303 50.3732 83.4484 50.309 83.8421 50.1658L92.757 46.9334L117.895 37.8177C118.689 37.5281 119.337 36.9353 119.695 36.1691C120.053 35.4029 120.093 34.526 119.805 33.7305Z" fill="white"/>
<path d="M123.849 44.8847C123.559 44.09 122.966 43.4426 122.2 43.0844C121.434 42.7262 120.558 42.6864 119.762 42.9738L115.872 44.3846L92.7573 52.7681L85.7122 55.3219C84.9177 55.6108 84.2703 56.2032 83.9124 56.9692C83.5544 57.7351 83.5151 58.6119 83.8031 59.4068C84.0911 60.2017 84.6829 60.8497 85.4484 61.2085C86.2139 61.5672 87.0904 61.6073 87.8854 61.32L92.7573 59.552L121.938 48.9693C122.005 48.9463 122.068 48.9182 122.132 48.8902C122.873 48.565 123.463 47.9703 123.781 47.2265C124.1 46.4827 124.124 45.6456 123.849 44.8847Z" fill="white"/>
<path d="M127.935 56.1562C127.646 55.3617 127.054 54.7143 126.288 54.356C125.523 53.9978 124.646 53.958 123.851 54.2453L112.942 58.2024L104.496 61.2665L92.7573 65.522L89.7985 66.5961C89.1146 66.8452 88.5363 67.3204 88.1592 67.943C87.7821 68.5656 87.6288 69.2983 87.7246 70.0199C87.7538 70.2346 87.8051 70.4458 87.8777 70.65L92.0763 72.5533L92.7573 72.3058H92.7624L114.064 64.5806L126.024 60.2434C126.819 59.9545 127.467 59.3617 127.825 58.5953C128.184 57.8289 128.223 56.9517 127.935 56.1562H127.935Z" fill="white"/>
<path d="M104.027 22.765C103.737 21.9704 103.144 21.323 102.378 20.9648C101.612 20.6065 100.736 20.5668 99.9402 20.8541L86.7527 25.6352C85.9582 25.924 85.3108 26.5165 84.9529 27.2825C84.5949 28.0484 84.5556 28.9252 84.8437 29.7201C85.1317 30.515 85.7234 31.163 86.4889 31.5218C87.2544 31.8805 88.1309 31.9206 88.9259 31.6333L93.0991 30.1204L95.8615 29.1177L102.116 26.8496C102.91 26.5607 103.558 25.9683 103.916 25.2025C104.274 24.4367 104.314 23.5601 104.027 22.765Z" fill="white"/>
<path d="M156.654 29.1178H94.925C94.5609 29.1182 94.2028 29.2102 93.8836 29.3854C93.5644 29.5606 93.2945 29.8134 93.0987 30.1205C92.8749 30.4681 92.7562 30.8729 92.7568 31.2864V72.862L110.533 80.9215L113.038 82.0568L116.994 83.8503C117.226 83.955 117.477 84.0092 117.732 84.0092C117.986 84.0092 118.237 83.955 118.469 83.8503L122.425 82.0568L134.806 76.444L146.346 71.2113L158.822 65.5577V31.2864C158.822 30.7114 158.593 30.16 158.186 29.7534C157.78 29.3468 157.229 29.1182 156.654 29.1178Z" fill="#6C63FF"/>
<path d="M143.9 58.2024H107.679C106.856 58.2029 106.064 58.5222 105.471 59.0934C104.877 59.6646 104.528 60.4433 104.496 61.2665C104.492 61.308 104.49 61.3498 104.491 61.3915C104.492 62.2369 104.828 63.0474 105.426 63.6452C106.024 64.243 106.834 64.5794 107.679 64.5806H143.9C144.746 64.5806 145.557 64.2446 146.155 63.6465C146.753 63.0484 147.089 62.2373 147.089 61.3915C147.089 60.5457 146.753 59.7345 146.155 59.1365C145.557 58.5384 144.746 58.2024 143.9 58.2024Z" fill="white"/>
<path d="M145.964 70.8261C145.389 70.3341 144.657 70.0644 143.9 70.0658H107.679C106.834 70.0658 106.023 70.4018 105.425 70.9999C104.827 71.5979 104.491 72.4091 104.491 73.2549C104.491 74.1007 104.827 74.9118 105.425 75.5099C106.023 76.108 106.834 76.444 107.679 76.444H134.807L146.346 71.2113C146.23 71.0723 146.102 70.9435 145.964 70.8261Z" fill="white"/>
<path d="M113.039 82.0568L116.995 83.8503C117.226 83.955 117.478 84.0091 117.732 84.0091C117.986 84.0091 118.238 83.955 118.469 83.8503L122.425 82.0568H113.039Z" fill="white"/>
<path d="M135.799 44.6066C135.574 43.9926 135.167 43.4625 134.631 43.0879C134.095 42.7133 133.458 42.5122 132.804 42.512H118.775C118.162 42.5125 117.563 42.6894 117.048 43.0215C116.534 43.3535 116.125 43.8267 115.872 44.3846C115.683 44.7977 115.586 45.2468 115.586 45.7011C115.588 46.5465 115.924 47.357 116.522 47.9548C117.119 48.5526 117.93 48.889 118.775 48.8902H132.804C133.317 48.8902 133.822 48.7665 134.277 48.5295C134.732 48.2924 135.123 47.9491 135.417 47.5287C135.711 47.1082 135.899 46.6231 135.966 46.1144C136.032 45.6056 135.975 45.0884 135.799 44.6066Z" fill="white"/>
<path d="M133.569 76.4439L121.188 82.0567L118.257 83.386C118.092 83.4604 117.913 83.4989 117.732 83.4989C117.55 83.4989 117.371 83.4604 117.206 83.386L114.275 82.0567H113.038L116.994 83.8503C117.226 83.955 117.477 84.0091 117.732 84.0091C117.986 84.0091 118.237 83.955 118.469 83.8503L122.425 82.0567L134.807 76.4439H133.569ZM133.569 76.4439L121.188 82.0567L118.257 83.386C118.092 83.4604 117.913 83.4989 117.732 83.4989C117.55 83.4989 117.371 83.4604 117.206 83.386L114.275 82.0567H113.038L116.994 83.8503C117.226 83.955 117.477 84.0091 117.732 84.0091C117.986 84.0091 118.237 83.955 118.469 83.8503L122.425 82.0567L134.807 76.4439H133.569ZM133.569 76.4439L121.188 82.0567L118.257 83.386C118.092 83.4604 117.913 83.4989 117.732 83.4989C117.55 83.4989 117.371 83.4604 117.206 83.386L114.275 82.0567H113.038L116.994 83.8503C117.226 83.955 117.477 84.0091 117.732 84.0091C117.986 84.0091 118.237 83.955 118.469 83.8503L122.425 82.0567L134.807 76.4439H133.569ZM175.124 58.8937C175.03 58.8001 174.927 58.7163 174.815 58.6437C174.565 58.4812 174.277 58.3845 173.979 58.3627C173.682 58.3408 173.383 58.3945 173.111 58.5187L145.964 70.826L133.569 76.4439L121.188 82.0567L118.257 83.386C118.092 83.4604 117.913 83.4989 117.732 83.4989C117.55 83.4989 117.371 83.4604 117.206 83.386L114.275 82.0567L111.222 80.6714L92.7621 72.3058L92.757 72.3032L87.7243 70.0198L72.6978 63.2079L62.3518 58.5187C62.2466 58.47 62.1362 58.4332 62.0228 58.409C61.7729 58.3465 61.5122 58.3413 61.2601 58.3937C60.8567 58.4762 60.4941 58.6954 60.2334 59.0142C59.9727 59.333 59.83 59.732 59.8291 60.1438V124.214C59.8296 124.688 60.0179 125.141 60.3527 125.476C60.6874 125.811 61.1412 125.999 61.6146 126H173.849C174.322 125.999 174.776 125.811 175.111 125.476C175.445 125.141 175.634 124.688 175.634 124.214V60.1438C175.635 59.6762 175.452 59.2271 175.124 58.8937V58.8937ZM175.124 124.214C175.124 124.552 174.99 124.877 174.75 125.116C174.511 125.355 174.187 125.49 173.849 125.49H61.6146C61.2764 125.49 60.9521 125.355 60.713 125.116C60.4738 124.877 60.3394 124.552 60.3392 124.214V60.1438C60.3393 59.9306 60.3929 59.7208 60.4949 59.5337C60.5969 59.3465 60.7443 59.1879 60.9234 59.0723C61.0494 58.9916 61.1883 58.9329 61.334 58.8988C61.377 58.8895 61.4204 58.8827 61.4642 58.8784C61.514 58.8712 61.5643 58.8678 61.6146 58.8682C61.796 58.8684 61.9752 58.9076 62.1401 58.983L72.94 63.8789L87.8774 70.65L92.076 72.5532L92.757 72.8619L110.533 80.9214L113.038 82.0567L116.994 83.8503C117.226 83.955 117.477 84.0091 117.732 84.0091C117.986 84.0091 118.237 83.955 118.469 83.8503L122.425 82.0567L134.807 76.4439L146.346 71.2113L173.323 58.983C173.517 58.895 173.73 58.8571 173.943 58.8727C174.155 58.8883 174.361 58.9569 174.54 59.0723C174.56 59.0844 174.58 59.098 174.599 59.1131C174.619 59.1262 174.638 59.1416 174.655 59.159C174.801 59.2778 174.92 59.4278 175.001 59.5982C175.082 59.7686 175.124 59.9551 175.124 60.1438L175.124 124.214ZM133.569 76.4439L121.188 82.0567L118.257 83.386C118.092 83.4604 117.913 83.4989 117.732 83.4989C117.55 83.4989 117.371 83.4604 117.206 83.386L114.275 82.0567H113.038L116.994 83.8503C117.226 83.955 117.477 84.0091 117.732 84.0091C117.986 84.0091 118.237 83.955 118.469 83.8503L122.425 82.0567L134.807 76.4439H133.569ZM133.569 76.4439L121.188 82.0567L118.257 83.386C118.092 83.4604 117.913 83.4989 117.732 83.4989C117.55 83.4989 117.371 83.4604 117.206 83.386L114.275 82.0567H113.038L116.994 83.8503C117.226 83.955 117.477 84.0091 117.732 84.0091C117.986 84.0091 118.237 83.955 118.469 83.8503L122.425 82.0567L134.807 76.4439H133.569ZM92.076 72.5532L92.757 72.8619V72.3058L92.076 72.5532ZM133.569 76.4439L121.188 82.0567L118.257 83.386C118.092 83.4604 117.913 83.4989 117.732 83.4989C117.55 83.4989 117.371 83.4604 117.206 83.386L114.275 82.0567H113.038L116.994 83.8503C117.226 83.955 117.477 84.0091 117.732 84.0091C117.986 84.0091 118.237 83.955 118.469 83.8503L122.425 82.0567L134.807 76.4439H133.569Z" fill="#3F3D56"/>
<path d="M44.7727 126H15.9489C15.8813 126 15.8164 125.973 15.7686 125.925C15.7207 125.877 15.6938 125.813 15.6938 125.745C15.6938 125.677 15.7207 125.612 15.7686 125.564C15.8164 125.517 15.8813 125.49 15.9489 125.49H44.7727C44.8403 125.49 44.9052 125.517 44.953 125.564C45.0009 125.612 45.0278 125.677 45.0278 125.745C45.0278 125.813 45.0009 125.877 44.953 125.925C44.9052 125.973 44.8403 126 44.7727 126Z" fill="#3F3D56"/>
<path d="M28.6676 43.7508C28.197 43.5119 27.8057 43.1418 27.5411 42.6852C27.2765 42.2285 27.1498 41.7049 27.1765 41.1778C27.2033 40.6507 27.3822 40.1426 27.6916 39.715C28.001 39.2875 28.4277 38.9588 28.92 38.7688C30.8105 38.0391 32.9299 39.5283 34.9116 39.1049C36.8868 38.6829 38.0293 36.3211 37.5579 34.3568C37.0864 32.3925 35.3705 30.9129 33.4784 30.2064C32.2426 29.746 30.9192 29.5695 29.606 29.6899C28.2929 29.8103 27.0236 30.2245 25.8921 30.9019C24.7723 31.5991 23.8396 32.5593 23.1753 33.699C22.5109 34.8388 22.135 36.1236 22.08 37.4417C22.0543 38.7611 22.3766 40.0639 23.0144 41.219C23.6522 42.3742 24.5831 43.3408 25.7133 44.0217C26.2169 44.312 26.8032 44.5452 27.3697 44.4144C27.8347 44.2634 28.2728 44.0393 28.6676 43.7508Z" fill="#2F2E41"/>
<path d="M26.6373 30.7491C24.9703 28.5375 22.7199 26.7207 20.1013 25.8199C17.4827 24.9192 14.4903 24.9915 12.031 26.2644C9.57168 27.5374 7.7376 30.0655 7.54615 32.8285C7.22754 37.4271 11.1561 41.3361 11.5593 45.9281C11.6871 47.3836 11.4509 48.848 10.872 50.1895C10.2931 51.531 9.38964 52.7073 8.24303 53.6126C7.09643 54.518 5.74268 55.1238 4.30371 55.3755C2.86475 55.6273 1.38578 55.5171 0 55.0548C0.987032 55.8675 2.13142 56.4672 3.36126 56.8163C4.59111 57.1654 5.87985 57.2563 7.14653 57.0834C8.41112 56.8936 9.61764 56.4246 10.6786 55.7106C11.7395 54.9965 12.6283 54.0553 13.2804 52.9551C14.1646 51.4186 14.5277 49.6338 14.6687 47.8666C14.8902 45.0723 14.5902 42.2612 13.7841 39.5767C13.3435 38.1119 12.7459 36.6046 13.0253 35.1008C13.1846 34.3186 13.5702 33.6004 14.1341 33.0355C14.698 32.4707 15.4155 32.084 16.1973 31.9235C17.4608 31.6867 18.7526 32.0724 19.9591 32.5163C21.1655 32.9602 22.3818 33.4738 23.667 33.5032C24.9521 33.5326 26.3519 32.9442 26.8485 31.7583L26.6373 30.7491Z" fill="#2F2E41"/>
</g>
<defs>
<clipPath id="clip0_370_3917">
<rect width="194" height="126" fill="white"/>
</clipPath>
</defs>
</svg>
