<svg width="20" height="20" viewBox="0 0 20 20" fill="none" xmlns="http://www.w3.org/2000/svg">
<path d="M7.53516 16.7772H3.83873C3.67534 16.7772 3.51864 16.7123 3.4031 16.5968C3.28756 16.4813 3.22266 16.3246 3.22266 16.1612V12.7199C3.22266 12.639 3.23859 12.5589 3.26955 12.4842C3.30051 12.4094 3.34589 12.3415 3.4031 12.2843L12.6442 3.04324C12.7597 2.9277 12.9164 2.86279 13.0798 2.86279C13.2432 2.86279 13.3999 2.9277 13.5154 3.04324L16.9567 6.48448C17.0722 6.60001 17.1371 6.75672 17.1371 6.92011C17.1371 7.0835 17.0722 7.2402 16.9567 7.35574L7.53516 16.7772Z" stroke="black" stroke-width="1.5" stroke-linecap="round" stroke-linejoin="round"/>
<path d="M10.6152 5.07178L14.9277 9.38428" stroke="black" stroke-width="1.5" stroke-linecap="round" stroke-linejoin="round"/>
</svg>
