<svg width="32" height="32" viewBox="0 0 32 32" fill="none" xmlns="http://www.w3.org/2000/svg">
<path d="M28.9924 26.4983C27.1265 23.2846 24.1383 20.8741 20.6024 19.7305C22.2963 18.7226 23.6125 17.1865 24.3488 15.3581C25.0851 13.5297 25.2009 11.5102 24.6782 9.60965C24.1556 7.70912 23.0234 6.03273 21.4557 4.83795C19.888 3.64318 17.9714 2.99609 16.0004 2.99609C14.0293 2.99609 12.1127 3.64318 10.545 4.83795C8.9773 6.03273 7.84517 7.70912 7.32252 9.60965C6.79986 11.5102 6.91558 13.5297 7.65189 15.3581C8.38821 17.1865 9.7044 18.7226 11.3983 19.7305C7.86256 20.8741 4.87442 23.2845 3.00847 26.4981C2.92052 26.6501 2.87415 26.8226 2.87402 26.9982C2.8739 27.1738 2.92002 27.3464 3.00776 27.4985C3.09549 27.6506 3.22175 27.777 3.37381 27.8648C3.52588 27.9526 3.6984 27.9989 3.87401 27.9989L28.1269 27.9991C28.3025 27.9992 28.475 27.9529 28.6271 27.8651C28.7792 27.7772 28.9054 27.6509 28.9932 27.4988C29.0809 27.3466 29.127 27.1741 29.1269 26.9985C29.1268 26.8228 29.0804 26.6503 28.9924 26.4983L28.9924 26.4983Z" fill="black"/>
</svg>
