<svg width="211" height="167" viewBox="0 0 211 167" fill="none" xmlns="http://www.w3.org/2000/svg">
<g clip-path="url(#clip0_370_3948)">
<path opacity="0.1" d="M123.744 28.2221C110.393 27.76 97.6757 23.4698 85.5336 18.775C73.3915 14.0802 61.3649 8.87811 48.3336 6.39106C39.9521 4.79122 30.3659 4.56531 23.6141 9.0383C17.1139 13.3511 15.0139 20.7753 13.8855 27.6717C13.0356 32.8594 12.5364 38.3181 14.8654 43.1752C16.4806 46.5474 19.3501 49.3815 21.3325 52.6223C28.237 63.8602 23.3583 77.7187 15.8762 88.6917C12.3693 93.8404 8.29512 98.7549 5.58861 104.23C2.88211 109.705 1.62788 115.988 3.99607 121.578C6.34569 127.123 11.9423 131.28 18.003 134.206C30.3164 140.152 44.8205 141.852 58.974 142.815C90.2947 144.949 121.781 144.025 153.184 143.101C164.806 142.758 176.478 142.411 187.91 140.622C194.26 139.628 200.814 138.053 205.424 134.245C211.275 129.413 212.725 121.229 208.805 115.17C202.227 105.006 184.051 102.482 179.446 91.5731C176.917 85.57 179.517 78.8831 183.193 73.3135C191.081 61.369 204.302 50.8889 204.999 37.2358C205.478 27.8565 199.12 18.4669 189.293 14.0288C178.993 9.36074 164.705 9.9522 157.109 17.6516C149.283 25.5851 135.532 28.6287 123.744 28.2221Z" fill="#3243DC"/>
<path d="M89.8284 141.809L19.22 141.466L12.2041 125.084L37.0123 123.291L32.6885 105.329L81.7563 98.9974L34.77 82.7361L38.9205 81.7544L114.474 94.0254L110.313 122.057L104.366 137.461L89.8284 141.809Z" fill="#3243DC"/>
<path d="M20.3027 134.605C20.3027 134.605 24.6348 133.915 27.234 136.962C27.234 136.962 25.3279 138.457 21.2269 136.387L20.3027 134.605Z" fill="#3243DC"/>
<path d="M19.8491 134.537C19.8491 134.537 17.0848 137.924 18.4463 141.694C18.4463 141.694 20.699 140.797 20.9445 136.225L19.8491 134.537Z" fill="#3243DC"/>
<path d="M17.3652 128.969C17.3652 128.969 19.0981 125.804 26.0293 130.234C26.0293 130.234 25.1052 132.362 22.0439 132.19C18.9825 132.017 18.1739 130.637 17.3652 128.969Z" fill="#3243DC"/>
<path d="M16.9179 128.741C16.9179 128.741 13.3223 128.33 12.9736 136.525C12.9736 136.525 15.2531 136.995 16.8725 134.403C18.4918 131.812 17.8276 130.357 16.9179 128.741Z" fill="#3243DC"/>
<path d="M14.8242 122.204C14.8242 122.204 16.8458 116.627 24.1815 120.594C24.1815 120.594 22.5064 125.712 15.5751 124.102L14.8242 122.204Z" fill="#3243DC"/>
<path d="M12.5713 113.866C12.5713 113.866 16.3835 108.231 23.1415 113.456C23.1415 113.456 20.7733 118.746 13.1489 115.871L12.5713 113.866Z" fill="#3243DC"/>
<path d="M11.7627 105.93C11.7627 105.93 16.2103 100.753 22.9023 105.93C22.9023 105.93 18.6857 110.473 11.7627 107.253V105.93Z" fill="#3243DC"/>
<path d="M11.0693 98.2233C11.0693 98.2233 15.5747 92.8179 21.9861 97.9358C21.9861 97.9358 16.9032 102.709 11.0693 99.4884V98.2233Z" fill="#3243DC"/>
<path d="M11.4736 91.3803C11.4736 91.3803 16.2183 84.4223 22.2171 89.1376C22.2171 89.1376 17.1342 95.118 11.4736 92.7029V91.3803Z" fill="#3243DC"/>
<path d="M12.5713 83.3873C12.5713 83.3873 17.5965 76.4868 23.4303 81.7771C23.4303 81.7771 17.481 87.7575 12.5713 84.6523V83.3873Z" fill="#3243DC"/>
<path d="M14.2463 76.242C14.2463 76.242 20.1956 69.7564 25.3858 72.34C25.3858 72.34 19.1869 79.2281 13.9863 77.963L14.2463 76.242Z" fill="#3243DC"/>
<path d="M16.3257 69.469C16.3257 69.469 23.191 61.5253 27.1847 64.1787C27.1847 64.1787 22.1265 70.3398 15.8389 70.9559L16.3257 69.469Z" fill="#3243DC"/>
<path d="M19.3271 61.6138C19.3271 61.6138 25.3363 55.1282 29.7261 56.7383C29.7261 56.7383 24.5854 63.4663 18.5205 63.6388L19.3271 61.6138Z" fill="#3243DC"/>
<path d="M22.0437 54.2653C22.0437 54.2653 28.6862 48.0549 31.5742 49.1475C31.5742 49.1475 26.7801 56.048 21.7549 55.6454L22.0437 54.2653Z" fill="#3243DC"/>
<path d="M24.7012 47.4798C24.7012 47.4798 30.4195 40.0598 33.5406 40.6348C33.5406 40.6348 30.0729 47.2498 24.7012 48.2336V47.4798Z" fill="#3243DC"/>
<path d="M27.5853 38.3307C27.5853 38.3307 32.6394 32.6439 35.3706 32.6563C35.3706 32.6563 31.381 40.255 27.377 40.1852L27.5853 38.3307Z" fill="#3243DC"/>
<path d="M29.2928 32.2394L34.1756 20.3936C34.1756 20.3936 34.4191 31.1016 28.6719 34.4369L29.2928 32.2394Z" fill="#3243DC"/>
<path d="M31.2752 19.1758C31.2752 19.1758 32.0838 9.28308 31.564 8.47803C31.564 8.47803 35.0544 16.7032 31.2422 23.5461L31.2752 19.1758Z" fill="#3243DC"/>
<path d="M14.6342 122.073C14.6342 122.073 9.57187 118.949 6.29395 126.591C6.29395 126.591 10.7993 129.569 15.2304 124.022L14.6342 122.073Z" fill="#3243DC"/>
<path d="M12.4086 113.548C12.4086 113.548 6.19931 110.728 3.1875 118.707C3.1875 118.707 7.9837 121.993 12.9738 115.565L12.4086 113.548Z" fill="#3243DC"/>
<path d="M11.4736 106.405C11.4736 106.405 7.02598 101.228 0.333984 106.405C0.333984 106.405 4.55052 110.948 11.4736 107.728V106.405Z" fill="#3243DC"/>
<path d="M10.9168 98.2233C10.9168 98.2233 6.41144 92.8179 0 97.9358C0 97.9358 5.08295 102.709 10.9168 99.4884V98.2233Z" fill="#3243DC"/>
<path d="M11.4741 91.5772C11.4741 91.5772 8.31374 83.7834 1.44434 87.1351C1.44434 87.1351 5.15753 94.0458 11.1935 92.8711L11.4741 91.5772Z" fill="#3243DC"/>
<path d="M12.9695 83.3479C12.9695 83.3479 9.82769 75.4185 2.86133 79.0947C2.86133 79.0947 7.12737 86.3628 12.66 84.5719L12.9695 83.3479Z" fill="#3243DC"/>
<path d="M14.9162 76.2813C14.9162 76.2813 13.6784 67.5879 7.90234 66.8096C7.90234 66.8096 9.1277 75.9774 14.1384 77.8483L14.9162 76.2813Z" fill="#3243DC"/>
<path d="M16.4722 69.4855C16.4722 69.4855 15.9894 59.0116 11.2139 58.646C11.2139 58.646 11.3748 66.5959 15.9337 70.9683L16.4722 69.4855Z" fill="#3243DC"/>
<path d="M19.8222 61.32C19.8222 61.32 18.3988 52.6102 13.8398 51.5464C13.8398 51.5464 14.4051 59.981 19.3704 63.4579L19.8222 61.32Z" fill="#3243DC"/>
<path d="M22.5844 54.3373C22.5844 54.3373 22.5369 45.264 19.752 43.9312C19.752 43.9312 18.0254 52.146 21.7778 55.4956L22.5844 54.3373Z" fill="#3243DC"/>
<path d="M24.9132 47.377C24.9132 47.377 24.5233 38.0347 21.6394 36.7183C21.6394 36.7183 20.6533 44.1116 24.482 47.9891L24.9132 47.377Z" fill="#3243DC"/>
<path d="M27.987 39.0762C27.987 39.0762 27.9705 31.4775 25.9117 29.6948C25.9117 29.6948 23.8653 38.0185 26.9122 40.6042L27.987 39.0762Z" fill="#3243DC"/>
<path d="M29.0516 31.8655L27.0485 19.2188C27.0485 19.2188 24.3276 29.5818 29.1465 34.1493L29.0516 31.8655Z" fill="#3243DC"/>
<path d="M29.4414 19.2948C29.4414 19.2948 24.3007 10.7924 24.4059 9.84766C24.4059 9.84766 24.9526 18.7587 31.4197 23.1968L29.4414 19.2948Z" fill="#3243DC"/>
<path d="M30.0439 16.7829C30.0439 16.7829 25.192 4.70706 22.9971 3.72949C22.9971 3.72949 29.9284 7.23724 30.4482 16.4379L30.0439 16.7829Z" fill="#3243DC"/>
<path d="M27.3517 40.2569L27.0195 40.1563C31.1144 26.8626 32.1355 18.3869 29.8973 16.2613L30.1345 16.0107C32.5089 18.2534 31.5455 26.6367 27.3517 40.2569Z" fill="#444053"/>
<path d="M16.0759 71.3832L15.585 71.2086C16.0202 69.9908 16.4885 68.7544 16.9795 67.5366C21.2538 56.9312 24.8927 47.0651 27.2258 39.491L27.6528 39.2856C25.3156 46.8741 21.7406 57.1181 17.4622 67.7378C16.9733 68.9331 16.5071 70.1633 16.0759 71.3832Z" fill="#444053"/>
<path d="M26.4066 144.553C26.3406 144.481 19.7043 137.041 15.0773 124.338C12.3661 116.902 10.8572 109.084 10.607 101.176C10.2893 91.2919 12.3728 80.2552 15.9416 70.229L16.3294 70.6808C8.31719 93.1834 11.5002 112.466 15.7229 124.077C20.3005 136.665 26.8625 144.023 26.9265 144.097L26.4066 144.553Z" fill="#444053"/>
<path d="M130.112 128.756C130.112 128.756 125.436 134.438 129.149 143.029L91.8107 159.151L88.2275 159.898L86.5771 152.71L87.6808 143.639V138.681L130.112 128.756Z" fill="#D5D6DB"/>
<path d="M12.2041 125.083L63.8835 115.704L132.361 126.564L89.8283 141.809L12.2041 125.083Z" fill="#3243DC"/>
<path d="M12.2041 125.083L63.8835 115.704L132.361 126.564L89.8283 141.809L12.2041 125.083Z" fill="#3243DC"/>
<path d="M12.2043 125.082C12.2043 125.082 7.37096 134.198 12.9407 142.618L89.5769 159.151C89.5769 159.151 84.8199 151.889 89.8224 141.809L12.2043 125.082Z" fill="#3243DC"/>
<path opacity="0.1" d="M12.2043 125.082C12.2043 125.082 7.37096 134.198 12.9407 142.618L89.5769 159.151C89.5769 159.151 84.8199 151.889 89.8224 141.809L12.2043 125.082Z" fill="black"/>
<path opacity="0.1" d="M14.4874 128.242C14.4874 128.242 11.7252 134.913 14.4874 139.23V128.242Z" fill="black"/>
<path d="M89.5766 159.151L132.361 140.975C132.361 140.975 134.754 141.489 133.207 143.234C131.659 144.98 90.4017 160.896 90.4017 160.896L12.9404 142.618L89.5766 159.151Z" fill="#3243DC"/>
<path opacity="0.1" d="M89.5766 159.151L132.361 140.975C132.361 140.975 134.754 141.489 133.207 143.234C131.659 144.98 90.4017 160.896 90.4017 160.896L12.9404 142.618L89.5766 159.151Z" fill="black"/>
<path opacity="0.1" d="M86.07 143.645C86.07 143.645 81.9442 148.574 86.07 155.967V143.645Z" fill="black"/>
<path opacity="0.1" d="M106.044 143.562L87.5381 149.708L87.6034 149.903L106.109 143.757L106.044 143.562Z" fill="black"/>
<path opacity="0.1" d="M109.751 142.95L87.5322 151.361L87.6055 151.553L109.824 143.142L109.751 142.95Z" fill="black"/>
<path opacity="0.1" d="M113.155 142.92L87.6562 153.311L87.7344 153.501L113.233 143.111L113.155 142.92Z" fill="black"/>
<path opacity="0.1" d="M116.857 142.031L87.9541 155.029L88.039 155.216L116.942 142.218L116.857 142.031Z" fill="black"/>
<path opacity="0.1" d="M119.966 142.035L88.1826 155.866L88.2652 156.054L120.049 142.224L119.966 142.035Z" fill="black"/>
<path opacity="0.1" d="M126.769 140.885L88.6621 157.271L88.7439 157.459L126.851 141.073L126.769 140.885Z" fill="black"/>
<path opacity="0.3" d="M31.4033 126.086L67.7101 118.487L89.8283 122.697L60.0774 132.247L31.4033 126.086Z" fill="white"/>
<path d="M132.361 126.564C132.361 126.564 134.238 127.318 133.137 128.483C132.035 129.647 89.8223 141.809 89.8223 141.809L132.361 126.564Z" fill="#3243DC"/>
<path d="M150.595 109.003C150.595 109.003 145.92 114.684 149.633 123.276L112.295 139.398L108.712 140.15L107.062 132.962L108.182 123.892V118.929L150.595 109.003Z" fill="#D5D6DB"/>
<path d="M32.6885 105.329L84.3658 95.9517L152.845 106.812L110.313 122.056L32.6885 105.329Z" fill="#3A3768"/>
<path d="M32.6803 105.329C32.6803 105.329 27.8449 114.446 33.4147 122.866L110.051 139.398C110.051 139.398 105.296 132.13 110.305 122.055L32.6803 105.329Z" fill="#3A3768"/>
<path opacity="0.1" d="M32.6803 105.329C32.6803 105.329 27.8449 114.446 33.4147 122.866L110.051 139.398C110.051 139.398 105.296 132.13 110.305 122.055L86.0698 116.832L32.6803 105.329Z" fill="black"/>
<path opacity="0.1" d="M34.9699 108.49C34.9699 108.49 32.2097 115.158 34.9699 119.477V108.49Z" fill="black"/>
<path d="M110.059 139.398L152.845 121.223C152.845 121.223 155.236 121.736 153.689 123.482C152.142 125.227 110.884 141.144 110.884 141.144L33.4229 122.866L110.059 139.398Z" fill="#3A3768"/>
<path opacity="0.1" d="M110.059 139.398L152.845 121.223C152.845 121.223 155.236 121.736 153.689 123.482C152.142 125.227 110.884 141.144 110.884 141.144L33.4229 122.866L110.059 139.398Z" fill="black"/>
<path opacity="0.1" d="M106.552 123.893C106.552 123.893 102.427 128.822 106.552 136.215V123.893Z" fill="black"/>
<path opacity="0.1" d="M126.528 123.811L108.022 129.958L108.088 130.153L126.594 124.006L126.528 123.811Z" fill="black"/>
<path opacity="0.1" d="M130.237 123.199L108.019 131.61L108.092 131.802L130.31 123.39L130.237 123.199Z" fill="black"/>
<path opacity="0.1" d="M133.638 123.167L108.14 133.557L108.218 133.747L133.716 123.357L133.638 123.167Z" fill="black"/>
<path opacity="0.1" d="M137.342 122.277L108.439 135.275L108.524 135.462L137.427 122.464L137.342 122.277Z" fill="black"/>
<path opacity="0.1" d="M140.45 122.279L108.666 136.109L108.749 136.298L140.532 122.467L140.45 122.279Z" fill="black"/>
<path opacity="0.1" d="M147.253 121.129L109.146 137.514L109.228 137.703L147.335 121.317L147.253 121.129Z" fill="black"/>
<path opacity="0.45" d="M51.8877 106.333L88.1945 98.7344L110.313 102.944L80.5618 112.494L51.8877 106.333Z" fill="white"/>
<path d="M152.845 106.812C152.845 106.812 154.72 107.566 153.621 108.728C152.521 109.891 110.312 122.055 110.312 122.055L152.845 106.812Z" fill="#3A3768"/>
<path d="M152.534 86.4062C152.534 86.4062 147.857 96.6071 151.57 105.198L114.232 116.801L110.657 117.555L109.007 110.367L110.11 101.296V96.3319L152.534 86.4062Z" fill="#D5D6DB"/>
<path d="M34.6338 82.7338L86.3131 73.3545L154.793 84.2146L112.258 99.4593L34.6338 82.7338Z" fill="#3243DC"/>
<path d="M34.6339 82.7319C34.6339 82.7319 29.7923 91.8484 35.3621 100.269L111.998 116.801C111.998 116.801 107.241 109.533 112.25 99.4595L34.6339 82.7319Z" fill="#3243DC"/>
<path opacity="0.1" d="M34.6339 82.7319C34.6339 82.7319 29.7923 91.8484 35.3621 100.269L111.998 116.801C111.998 116.801 107.241 109.533 112.25 99.4595L34.6339 82.7319Z" fill="black"/>
<path opacity="0.1" d="M36.9171 85.8926C36.9171 85.8926 34.1549 92.5631 36.9171 96.88V85.8926Z" fill="black"/>
<path d="M112.006 116.801L154.79 103.144C154.79 103.144 157.183 103.657 155.636 105.403C154.089 107.149 112.831 118.547 112.831 118.547L35.3701 100.269L112.006 116.801Z" fill="#3243DC"/>
<path opacity="0.1" d="M112.006 116.801L154.79 103.144C154.79 103.144 157.183 103.657 155.636 105.403C154.089 107.149 112.831 118.547 112.831 118.547L35.3701 100.269L112.006 116.801Z" fill="black"/>
<path opacity="0.1" d="M108.5 101.295C108.5 101.295 104.374 106.224 108.5 113.618V101.295Z" fill="black"/>
<path opacity="0.1" d="M128.476 101.214L109.97 107.36L110.035 107.555L128.541 101.409L128.476 101.214Z" fill="black"/>
<path opacity="0.1" d="M132.184 100.602L109.966 109.014L110.039 109.206L132.258 100.794L132.184 100.602Z" fill="black"/>
<path opacity="0.1" d="M135.583 100.571L110.084 110.961L110.162 111.151L135.661 100.761L135.583 100.571Z" fill="black"/>
<path opacity="0.1" d="M139.29 99.6796L110.388 112.678L110.473 112.865L139.375 99.8668L139.29 99.6796Z" fill="black"/>
<path opacity="0.1" d="M142.398 99.6833L110.614 113.514L110.697 113.702L142.481 99.8715L142.398 99.6833Z" fill="black"/>
<path opacity="0.1" d="M149.202 98.5348L111.095 114.92L111.177 115.109L149.283 98.7233L149.202 98.5348Z" fill="black"/>
<path opacity="0.3" d="M53.833 83.736L90.1397 76.1372L112.258 80.3473L82.5071 89.8971L53.833 83.736Z" fill="white"/>
<path d="M154.79 84.2148C154.79 84.2148 156.668 84.9686 155.566 86.133C154.464 87.2975 112.258 99.4596 112.258 99.4596L154.79 84.2148Z" fill="#3243DC"/>
<path d="M64.0365 21.8719C64.0365 21.8719 56.1976 21.4016 57.1135 26.8768C57.1135 26.8768 56.9299 27.8441 57.8108 28.2836C57.8108 28.2836 57.8252 27.8729 58.6153 28.0146C58.8972 28.0628 59.184 28.0766 59.4693 28.0557C59.8539 28.0295 60.2195 27.8795 60.5111 27.6285C60.5111 27.6285 62.7163 26.7208 63.5744 23.1309C63.5744 23.1309 64.2098 22.3484 64.1933 22.1471L62.8648 22.7098C62.8648 22.7098 63.3166 23.6607 62.9618 24.4514C62.9618 24.4514 62.9185 22.7448 62.6627 22.7838C62.6111 22.7838 61.9757 23.1144 61.9757 23.1144C61.9757 23.1144 62.7534 24.7718 62.1655 25.9752C62.1655 25.9752 62.3883 23.9339 61.7323 23.2335L60.7999 23.7757C60.7999 23.7757 61.7096 25.4865 61.0928 26.883C61.0928 26.883 61.2516 24.741 60.6039 23.9072L59.7581 24.5643C59.7581 24.5643 60.6142 26.2505 60.0923 27.4087C60.0923 27.4087 60.0242 24.9155 59.5766 24.7266C59.5766 24.7266 58.836 25.3756 58.7246 25.6425C58.7246 25.6425 59.3105 26.8748 58.9453 27.5135C58.9453 27.5135 58.7246 25.852 58.5328 25.8438C58.5328 25.8438 57.7963 26.9446 57.72 27.6922C57.7557 26.9952 57.974 26.3197 58.3533 25.7329C57.9289 25.8129 57.5373 26.0149 57.227 26.3141C57.227 26.3141 57.3404 25.5358 58.5369 25.468C58.5369 25.468 59.1454 24.6321 59.3084 24.5828C59.3084 24.5828 58.1181 24.4822 57.3982 24.8005C57.3982 24.8005 58.0335 24.0673 59.525 24.3898L60.3502 23.7121C60.3502 23.7121 58.7865 23.5067 58.1222 23.7346C58.1222 23.7346 58.8876 23.0857 60.575 23.558L61.4847 23.0179C61.4847 23.0179 60.1501 22.7324 59.3559 22.8351C59.3559 22.8351 60.1934 22.3854 61.7509 22.8721L62.3986 22.5825C62.3986 22.5825 61.4229 22.3915 61.1361 22.3607C60.8494 22.3299 60.8349 22.2519 60.8349 22.2519C61.4542 22.1506 62.0896 22.2217 62.6709 22.4572C62.6709 22.4572 64.0634 21.9582 64.0365 21.8719Z" fill="#3243DC"/>
<path opacity="0.1" d="M174.318 44.3768C174.318 44.3768 166.479 43.9065 167.395 49.3817C167.395 49.3817 167.211 50.349 168.092 50.7885C168.092 50.7885 168.106 50.3778 168.897 50.5195C169.179 50.5666 169.465 50.5804 169.751 50.5605C170.132 50.5326 170.493 50.3828 170.782 50.1334C170.782 50.1334 172.989 49.2256 173.845 45.6357C173.845 45.6357 174.481 44.8533 174.464 44.652L173.14 45.2147C173.14 45.2147 173.592 46.1656 173.237 46.9563C173.237 46.9563 173.194 45.2496 172.94 45.2887C172.888 45.2887 172.251 45.6193 172.251 45.6193C172.251 45.6193 173.028 47.2767 172.443 48.4801C172.443 48.4801 172.665 46.4387 172.007 45.7384L171.075 46.2806C171.075 46.2806 171.985 47.9913 171.368 49.3879C171.368 49.3879 171.527 47.2459 170.879 46.412L170.035 47.0692C170.035 47.0692 170.889 48.7553 170.367 49.9136C170.367 49.9136 170.299 47.4204 169.852 47.2315C169.852 47.2315 169.113 47.8804 169 48.1474C169 48.1474 169.586 49.3797 169.222 50.0184C169.222 50.0184 169 48.3569 168.81 48.3487C168.81 48.3487 168.073 49.4495 167.997 50.197C168.033 49.4998 168.252 48.8242 168.632 48.2378C168.208 48.3179 167.815 48.5199 167.504 48.819C167.504 48.819 167.62 48.0406 168.814 47.9729C168.814 47.9729 169.423 47.137 169.586 47.0857C169.586 47.0857 168.397 46.9871 167.675 47.3054C167.675 47.3054 168.311 46.5722 169.802 46.8947L170.627 46.2169C170.627 46.2169 169.062 46.0116 168.399 46.2395C168.399 46.2395 169.163 45.5906 170.852 46.0629L171.76 45.5228C171.76 45.5228 170.425 45.2373 169.631 45.34C169.631 45.34 170.468 44.8902 172.026 45.377L172.676 45.0874C172.676 45.0874 171.698 44.8964 171.411 44.8656C171.124 44.8348 171.11 44.7567 171.11 44.7567C171.729 44.6542 172.365 44.7253 172.946 44.9621C172.946 44.9621 174.343 44.4631 174.318 44.3768Z" fill="#3243DC"/>
<path opacity="0.1" d="M77.2386 55.6968C77.2386 55.6968 73.8225 48.6464 69.4739 52.1213C69.4739 52.1213 68.5353 52.4335 68.5807 53.4131C68.5807 53.4131 68.9417 53.2262 69.1996 53.982C69.2959 54.2491 69.4233 54.5042 69.5791 54.7419C69.7902 55.0641 70.1008 55.3091 70.4641 55.4401C70.4641 55.4401 72.3351 56.9147 75.9019 55.9084C75.9019 55.9084 76.8982 56.0788 77.0612 55.9597L75.9225 55.0828C75.9225 55.0828 75.3036 55.9392 74.4413 56.0152C74.4413 56.0152 75.9184 55.1464 75.7595 54.9452C75.7265 54.9041 75.1407 54.5077 75.1407 54.5077C75.1407 54.5077 74.0659 55.9926 72.725 56.0686C72.725 56.0686 74.6229 55.2676 74.9158 54.3537L73.9875 53.8074C73.9875 53.8074 72.9293 55.434 71.4048 55.5777C71.4048 55.5777 73.3604 54.672 73.775 53.7027L72.789 53.2919C72.789 53.2919 71.7266 54.8569 70.4559 54.9698C70.4559 54.9698 72.6095 53.6945 72.5559 53.2118C72.5559 53.2118 71.6255 52.8873 71.3367 52.9182C71.3367 52.9182 70.5487 54.0251 69.806 54.0251C69.806 54.0251 71.1531 53.0208 71.0706 52.8586C71.0706 52.8586 69.7462 52.7559 69.049 53.064C69.6773 52.7531 70.3764 52.6115 71.0768 52.6532C70.7989 52.3234 70.4304 52.0814 70.0165 51.957C70.0165 51.957 70.755 51.6777 71.3965 52.682C71.3965 52.682 72.428 52.8031 72.5497 52.9202C72.5497 52.9202 72.0567 51.8399 71.4275 51.3696C71.4275 51.3696 72.3805 51.5606 72.8158 53.0126L73.8163 53.4069C73.8163 53.4069 73.2407 51.9447 72.7106 51.4826C72.7106 51.4826 73.6513 51.8297 74.0618 53.5363L74.9777 54.0621C74.9777 54.0621 74.5796 52.7621 74.101 52.1234C74.101 52.1234 74.9034 52.6327 75.2356 54.2223L75.807 54.6453C75.807 54.6453 75.4975 53.7027 75.3944 53.4398C75.2913 53.1769 75.3428 53.1235 75.3428 53.1235C75.7353 53.6111 75.9838 54.1977 76.0607 54.8178C76.0607 54.8178 77.1644 55.7584 77.2386 55.6968Z" fill="#3243DC"/>
<path opacity="0.1" d="M156.407 34.4161C156.407 34.4161 152.993 27.3657 148.643 30.8405C148.643 30.8405 147.706 31.1527 147.75 32.1323C147.75 32.1323 148.113 31.9475 148.368 32.7012C148.465 32.9695 148.593 33.2253 148.75 33.4631C148.96 33.7847 149.27 34.0292 149.633 34.1594C149.633 34.1594 151.506 35.6339 155.071 34.6297C155.071 34.6297 156.067 34.7981 156.232 34.6789L155.1 33.8C155.1 33.8 154.481 34.6584 153.62 34.7344C153.62 34.7344 155.095 33.8636 154.937 33.6624C154.904 33.6213 154.318 33.2249 154.318 33.2249C154.318 33.2249 153.245 34.7097 151.902 34.7857C151.902 34.7857 153.802 33.9848 154.095 33.0729L153.152 32.5308C153.152 32.5308 152.096 34.1552 150.569 34.3011C150.569 34.3011 152.525 33.3933 152.942 32.424L151.954 32.0132C151.954 32.0132 150.891 33.5802 149.623 33.6911C149.623 33.6911 151.774 32.4157 151.721 31.9352C151.721 31.9352 150.792 31.6086 150.503 31.6415C150.503 31.6415 149.715 32.7464 148.971 32.7464C148.971 32.7464 150.32 31.7421 150.237 31.5799C150.237 31.5799 148.913 31.4772 148.214 31.7853C148.842 31.4743 149.541 31.3326 150.241 31.3745C149.965 31.0445 149.597 30.8024 149.183 30.6783C149.183 30.6783 149.922 30.399 150.563 31.4033C150.563 31.4033 151.595 31.5265 151.716 31.6435C151.716 31.6435 151.223 30.5612 150.592 30.0909C150.592 30.0909 151.545 30.284 151.98 31.7442L152.983 32.1385C152.983 32.1385 152.407 30.6742 151.877 30.2121C151.877 30.2121 152.818 30.5592 153.226 32.2658L154.144 32.7916C154.144 32.7916 153.744 31.4936 153.266 30.8529C153.266 30.8529 154.07 31.3622 154.4 32.9518L154.972 33.3748C154.972 33.3748 154.664 32.4322 154.559 32.1693C154.454 31.9064 154.508 31.8551 154.508 31.8551C154.899 32.3431 155.147 32.9296 155.223 33.5494C155.223 33.5494 156.343 34.4818 156.407 34.4161Z" fill="#3243DC"/>
<path opacity="0.1" d="M167.318 69.2904C167.318 69.2904 163.904 62.238 159.547 65.7129C159.547 65.7129 158.61 66.025 158.654 67.0047C158.654 67.0047 159.017 66.8198 159.273 67.5735C159.368 67.8417 159.496 68.0975 159.652 68.3355C159.863 68.6571 160.173 68.9015 160.535 69.0317C160.535 69.0317 162.408 70.5083 165.975 69.502C165.975 69.502 166.969 69.6724 167.134 69.5513L165.996 68.6743C165.996 68.6743 165.377 69.5328 164.514 69.6088C164.514 69.6088 165.989 68.738 165.831 68.5367C165.798 68.4957 165.212 68.0993 165.212 68.0993C165.212 68.0993 164.139 69.5841 162.796 69.6622C162.796 69.6622 164.696 68.8592 164.989 67.9473L164.059 67.401C164.059 67.401 163.002 69.0276 161.476 69.1713C161.476 69.1713 163.431 68.2636 163.848 67.2942L162.86 66.8835C162.86 66.8835 161.798 68.4484 160.529 68.5614C160.529 68.5614 162.683 67.286 162.629 66.8034C162.629 66.8034 161.699 66.4769 161.41 66.5097C161.41 66.5097 160.622 67.6146 159.877 67.6146C159.877 67.6146 161.226 66.6104 161.144 66.4481C161.144 66.4481 159.819 66.3454 159.12 66.6535C159.749 66.3427 160.449 66.2011 161.15 66.2427C160.873 65.9122 160.504 65.6701 160.09 65.5465C160.09 65.5465 160.828 65.2652 161.47 66.2715C161.47 66.2715 162.501 66.3927 162.623 66.5097C162.623 66.5097 162.13 65.4295 161.501 64.9571C161.501 64.9571 162.454 65.1502 162.889 66.6104L163.889 67.0047C163.889 67.0047 163.314 65.5404 162.784 65.0803C162.784 65.0803 163.724 65.4254 164.133 67.1341L165.051 67.6577C165.051 67.6577 164.651 66.3598 164.172 65.7191C164.172 65.7191 164.977 66.2284 165.309 67.82L165.88 68.2307C165.88 68.2307 165.571 67.2881 165.468 67.0252C165.364 66.7623 165.416 66.711 165.416 66.711C165.808 67.1985 166.056 67.7852 166.132 68.4053C166.132 68.4053 167.254 69.3521 167.318 69.2904Z" fill="#3243DC"/>
<path opacity="0.1" d="M41.6596 161.044C44.2788 161.044 46.4021 160.808 46.4021 160.517C46.4021 160.225 44.2788 159.989 41.6596 159.989C39.0403 159.989 36.917 160.225 36.917 160.517C36.917 160.808 39.0403 161.044 41.6596 161.044Z" fill="#3243DC"/>
<path opacity="0.1" d="M10.5697 152.074C13.189 152.074 15.3123 151.837 15.3123 151.546C15.3123 151.254 13.189 151.018 10.5697 151.018C7.95047 151.018 5.82715 151.254 5.82715 151.546C5.82715 151.837 7.95047 152.074 10.5697 152.074Z" fill="#3243DC"/>
<path opacity="0.1" d="M65.3588 167.002C67.978 167.002 70.1014 166.766 70.1014 166.474C70.1014 166.183 67.978 165.946 65.3588 165.946C62.7395 165.946 60.6162 166.183 60.6162 166.474C60.6162 166.766 62.7395 167.002 65.3588 167.002Z" fill="#3243DC"/>
<path opacity="0.1" d="M186.8 154.025C189.419 154.025 191.543 153.789 191.543 153.497C191.543 153.206 189.419 152.969 186.8 152.969C184.181 152.969 182.058 153.206 182.058 153.497C182.058 153.789 184.181 154.025 186.8 154.025Z" fill="#3243DC"/>
<path opacity="0.1" d="M147.335 151.464C149.955 151.464 152.078 151.228 152.078 150.936C152.078 150.645 149.955 150.408 147.335 150.408C144.716 150.408 142.593 150.645 142.593 150.936C142.593 151.228 144.716 151.464 147.335 151.464Z" fill="#3243DC"/>
<path opacity="0.1" d="M121.805 163.954C124.903 163.954 127.414 163.525 127.414 162.995C127.414 162.466 124.903 162.036 121.805 162.036C118.708 162.036 116.196 162.466 116.196 162.995C116.196 163.525 118.708 163.954 121.805 163.954Z" fill="#3243DC"/>
<path d="M124.308 153.355C124.308 153.355 116.497 157.372 120.532 162.104C120.532 162.104 120.912 163.131 122.01 163.059C122.01 163.059 121.791 162.66 122.628 162.342C122.926 162.227 123.21 162.078 123.472 161.896C123.827 161.652 124.092 161.3 124.227 160.892C124.227 160.892 125.824 158.764 124.586 154.827C124.586 154.827 124.747 153.714 124.607 153.534L123.658 154.83C123.658 154.83 124.638 155.485 124.751 156.448C124.751 156.448 123.72 154.832 123.513 155.01C123.468 155.047 123.043 155.719 123.043 155.719C123.043 155.719 124.743 156.867 124.869 158.358C124.869 158.358 123.912 156.269 122.878 155.971L122.286 157.023C122.286 157.023 124.143 158.148 124.349 159.841C124.349 159.841 123.27 157.694 122.168 157.261L121.733 158.372C121.733 158.372 123.524 159.506 123.689 160.915C123.689 160.915 122.191 158.559 121.653 158.633C121.653 158.633 121.314 159.676 121.36 159.999C121.36 159.999 122.624 160.841 122.647 161.668C122.647 161.668 121.479 160.2 121.3 160.297C121.3 160.297 121.226 161.773 121.585 162.541C121.585 162.541 120.966 161.445 121.067 160.297C120.705 160.615 120.445 161.032 120.318 161.496C120.318 161.496 119.982 160.685 121.089 159.937C121.089 159.937 121.195 158.789 121.323 158.647C121.323 158.647 120.124 159.231 119.615 159.945C119.615 159.945 119.802 158.879 121.428 158.35L121.84 157.224C121.84 157.224 120.215 157.91 119.714 158.514C119.714 158.514 120.075 157.456 121.968 156.949L122.529 155.922C122.529 155.922 121.085 156.407 120.38 156.949C120.38 156.949 120.927 156.039 122.703 155.62L123.159 154.973C123.159 154.973 122.111 155.345 121.818 155.479C121.525 155.612 121.467 155.546 121.467 155.546C122.002 155.095 122.653 154.801 123.346 154.696C123.346 154.696 124.38 153.425 124.308 153.355Z" fill="#3243DC"/>
<path d="M147.488 77.4846C146.139 73.8351 138.712 73.4922 135.49 74.4225C133.2 75.0858 128.373 75.8334 125.795 76.2092L125.627 76.0511C125.962 75.9525 125.97 75.7102 125.929 75.3508C125.905 74.8771 125.911 74.4024 125.949 73.9296C127.529 74.4184 128.936 73.2621 128.936 73.2621C130.793 72.4407 130.294 68.9247 130.648 67.9636C130.915 67.2448 131.201 63.01 131.329 60.8988H131.356L131.37 60.1902C131.389 59.8842 131.397 59.7056 131.397 59.7056C131.397 59.7056 131.579 54.5425 131.934 53.4972C132.264 52.536 132.532 47.6934 132.573 46.9253C132.573 46.8596 132.573 46.8247 132.573 46.8247L132.546 46.3769C132.565 46.0504 132.573 45.6869 132.571 45.3049C132.571 43.549 132.387 41.3371 132.365 40.9798C132.365 40.9284 132.365 40.8668 132.365 40.7929C132.379 40.0433 132.284 36.2891 129.077 34.87C127.895 34.3442 126.473 33.7178 125.097 33.1079C124.742 30.0581 123.932 27.0248 124.002 23.9524C124.002 23.4903 124.043 23.0282 124.089 22.5682C124.089 22.7017 124.074 22.8372 124.072 22.979C124.072 23.2767 124.072 23.5766 124.072 23.8744C124.194 20.0319 125.652 16.1688 125.516 12.4085C125.504 12.7761 125.477 13.1458 125.442 13.5154C125.513 12.2435 125.379 10.9685 125.046 9.73864C124.922 9.30531 124.755 8.8576 124.398 8.56802C124.061 8.33481 123.674 8.18229 123.267 8.12237C122.291 7.87361 121.3 7.68974 120.299 7.57197C120.147 7.1086 119.921 6.67247 119.631 6.28018C117.539 3.42141 114.44 0.735148 110.777 0.119033C108.939 -0.189025 106.824 0.0676896 105.574 1.37591C105.444 1.49083 105.321 1.61433 105.207 1.74558C104.534 2.54447 104.246 3.59392 103.557 4.39076C103.511 4.44416 103.46 4.49345 103.41 4.54479C102.061 5.74622 99.959 5.99677 98.4592 7.07497C98.195 7.26853 97.9473 7.48353 97.7187 7.71778C97.1144 8.31396 96.5725 8.96973 96.1014 9.67498C95.4268 10.6197 94.7337 11.6034 94.5191 12.7309C94.088 14.99 95.6331 17.132 95.9198 19.4055C96.5593 24.4925 90.905 29.0066 91.9756 34.0259C92.2613 35.259 92.8922 36.3862 93.7951 37.2769C91.5898 39.2649 89.7126 41.1934 89.7126 41.1934V41.3084H89.364L89.3991 41.7191H89.364L89.5558 43.9474L89.364 47.1923C89.364 47.1923 89.364 47.2272 89.364 47.2929V47.3093V47.3976C89.364 47.3976 89.364 47.4326 89.364 47.4983H89.3764C89.4403 48.6874 89.6941 52.9632 89.9952 53.8648C90.3501 54.9101 90.5295 60.0732 90.5295 60.0732C90.5295 60.0732 90.9215 67.37 91.2804 68.3353C91.6394 69.3005 91.1298 72.8062 92.9926 73.6339C93.5376 74.05 94.1828 74.3163 94.8636 74.4061C94.7687 75.1741 94.8286 75.7307 95.1359 75.9053C95.2675 75.9823 95.4166 76.0247 95.5691 76.0285C95.4428 76.2151 95.3304 76.4107 95.2329 76.6138C94.4935 76.537 93.767 76.3665 93.071 76.1065C91.07 75.285 84.4296 73.4367 82.5008 74.7367C80.572 76.0367 75.9305 77.2155 78.0738 82.4484C80.2172 87.6813 81.2156 87.8127 81.2156 87.8127C81.8753 88.2895 82.4541 88.8685 82.9299 89.5276C83.5735 90.4908 89.5703 92.6944 91.07 92.6944C91.7074 92.6846 92.3448 92.7162 92.9782 92.7889C92.9782 92.7889 91.3506 94.2101 91.5672 95.0356C91.7838 95.8612 91.0721 102.47 91.0721 102.47C91.0721 102.47 92.7224 104.125 93.4279 101.955L93.4526 101.987C93.5846 102.166 94.2984 102.973 95.6413 101.955C96.191 101.539 96.7748 101.171 97.3865 100.854L103.889 99.9379C104.567 99.8957 105.246 99.8909 105.925 99.9235C106.956 100.008 107.969 99.3998 108.607 98.9295C109.954 99.4388 111.468 99.9954 112.188 100.199C113.648 100.609 120.361 102.402 121.931 101.842C122.257 101.712 122.547 101.507 122.777 101.242L124.274 101.289L123.573 101.429C123.573 101.429 124.938 101.451 126.795 101.476L126.717 101.521L129.046 101.501C132.454 101.532 136.282 101.542 136.786 101.429C137.574 101.254 141.668 101.378 142.875 101.429H143.211C143.211 101.429 147.711 100.535 145.854 95.9906C144.426 92.4993 140.039 91.4848 138.091 91.2055C138.64 91.0966 139.113 91.0124 139.426 90.9631C140.785 90.7578 143.426 89.5255 143.641 89.1045C143.855 88.6835 146.069 87.4615 146.64 86.7653C147.211 86.0691 148.843 81.134 147.488 77.4846ZM110.222 87.6977L110.001 87.7696L109.853 87.8189L109.568 88.0982C109.341 87.9462 109.098 87.786 108.844 87.6217C109.291 87.6484 109.751 87.6751 110.222 87.6977Z" fill="url(#paint0_linear_370_3948)"/>
<path d="M123.375 66.0433C123.375 66.0433 126.531 74.2582 128.326 73.4367C130.121 72.6152 129.634 69.1239 129.976 68.1669C130.319 67.2098 130.698 59.952 130.698 59.952C130.698 59.952 130.872 54.8177 131.214 53.7785C131.532 52.8236 131.789 48.0076 131.833 47.2498C131.833 47.184 131.833 47.1491 131.833 47.1491L131.492 41.1934L129.566 40.7148L125.098 42.3578L124.479 45.8758L124.237 47.2498L124.134 47.8351L123.375 66.0433Z" fill="#BE6F72"/>
<path opacity="0.1" d="M124.415 64.6675C124.415 64.6675 127.427 67.1217 128.335 67.3373C129.242 67.553 129.799 69.467 129.799 69.467" fill="black"/>
<path d="M98.6922 66.4027C98.6922 66.4027 95.536 74.6176 93.7413 73.7961C91.9466 72.9746 92.4334 69.4833 92.091 68.5262C91.7485 67.5692 91.369 60.3114 91.369 60.3114C91.369 60.3114 91.1957 55.1771 90.8532 54.1379C90.5356 53.1829 90.2777 48.367 90.2344 47.6091C90.2344 47.5434 90.2344 47.5085 90.2344 47.5085L90.5768 41.5527L92.5036 41.0742L96.9718 42.7172L97.5906 46.2352L97.832 47.6091L97.9351 48.1945L98.6922 66.4027Z" fill="#BE6F72"/>
<path d="M119.245 22.4409H112.2V33.3729H119.245V22.4409Z" fill="#3E373A"/>
<path opacity="0.1" d="M119.245 22.4409H112.2V33.3729H119.245V22.4409Z" fill="black"/>
<path d="M97.4551 74.5847C97.4551 74.5847 95.0477 77.2196 95.9409 77.6981C96.8341 78.1766 102.612 87.1452 102.612 87.1452C102.612 87.1452 121.591 89.4721 125.17 85.9808C128.749 82.4894 128.677 76.2523 128.677 76.2523C128.677 76.2523 125.801 76.8684 125.488 76.5337C125.174 76.1989 123.452 74.5847 123.452 74.5847C123.452 74.5847 99.1054 73.1142 97.4551 74.5847Z" fill="#4B4B5B"/>
<path opacity="0.02" d="M97.4551 74.5847C97.4551 74.5847 95.0477 77.2196 95.9409 77.6981C96.8341 78.1766 102.612 87.1452 102.612 87.1452C102.612 87.1452 121.591 89.4721 125.17 85.9808C128.749 82.4894 128.677 76.2523 128.677 76.2523C128.677 76.2523 125.801 76.8684 125.488 76.5337C125.174 76.1989 123.452 74.5847 123.452 74.5847C123.452 74.5847 99.1054 73.1142 97.4551 74.5847Z" fill="black"/>
<path d="M131.62 41.2795L125.432 46.2084L123.561 46.344L122.874 46.3932L111.336 47.2353L99.3712 46.3645L97.591 46.2351L95.3218 46.0708L90.5771 41.5526C90.5771 41.5526 93.9355 37.971 96.8772 35.5537C98.0366 34.5988 99.1319 33.8266 99.9303 33.5226L100.066 33.4754C100.569 33.2804 101.017 32.9693 101.374 32.5676C103.697 30.1833 105.845 24.2994 105.845 24.2994C105.845 24.2994 116.091 19.0295 114.853 25.9423C113.615 32.8552 119.46 31.1465 119.46 31.1465L121.386 32.0213L122.148 32.3684L124.089 33.2536L128.468 35.2539C131.905 36.8291 131.62 41.2795 131.62 41.2795Z" fill="#BE6F72"/>
<path opacity="0.1" d="M110.856 29.929C115.945 29.929 120.07 25.8216 120.07 20.755C120.07 15.6884 115.945 11.5811 110.856 11.5811C105.766 11.5811 101.641 15.6884 101.641 20.755C101.641 25.8216 105.766 29.929 110.856 29.929Z" fill="black"/>
<path opacity="0.1" d="M131.634 47.8147H90.2344C90.2344 47.749 90.2344 47.7141 90.2344 47.7141L90.5768 41.7583C90.5768 41.7583 93.9352 38.1767 96.8769 35.7594L122.869 34.7326L124.078 33.4634L128.458 35.4637C131.896 37.0368 131.62 41.4872 131.62 41.4872C131.62 41.4872 132.09 46.6441 131.634 47.8147Z" fill="black"/>
<path d="M131.634 47.6092H90.2344C90.2344 47.5435 90.2344 47.5086 90.2344 47.5086L90.5768 41.5528C90.5768 41.5528 93.9352 37.9711 96.8769 35.5539L122.869 34.527L124.078 33.2578L128.458 35.2581C131.896 36.8313 131.62 41.2817 131.62 41.2817C131.62 41.2817 132.09 46.4386 131.634 47.6092Z" fill="#E7C7CA"/>
<path opacity="0.1" d="M104.219 30.9086C104.219 30.9086 110.75 39.1933 119.45 30.7382C128.149 22.283 120.413 49.5975 120.413 49.5975L101.641 51.8155L104.219 30.9086Z" fill="black"/>
<path d="M104.219 31.3193C104.219 31.3193 110.75 39.604 119.45 31.1488C128.149 22.6937 120.413 50.0081 120.413 50.0081L101.641 52.2261L104.219 31.3193Z" fill="#E7C7CA"/>
<path opacity="0.1" d="M122.137 32.7729L122.828 43.2654L123.569 46.7567L124.134 49.4265C124.134 49.4265 125.578 69.9637 125.166 70.9906C124.753 72.0174 125.372 72.8389 125.459 73.3852C125.545 73.9315 125.372 75.3034 125.44 75.9195C125.508 76.5356 125.44 76.8087 123.86 76.589C122.28 76.3692 120.076 75.9873 120.076 75.9873C120.076 75.9873 114.507 76.398 112.582 75.7141C110.657 75.0302 107.012 75.0282 107.012 75.0282C107.012 75.0282 101.511 75.1658 99.724 74.9604C97.9376 74.755 96.9722 77.1517 95.8046 76.4658C94.637 75.7798 97.1784 69.1422 98.0036 67.224C98.8287 65.3059 96.9041 60.4468 96.9041 60.4468L99.3795 46.7752L99.9303 43.6761V33.9333L100.066 33.8861C100.569 33.6911 101.017 33.3799 101.374 32.9783L101.993 42.7828L121.384 43.4687V32.4341" fill="black"/>
<path d="M122.137 32.3623L122.828 42.8547L123.569 46.3461L124.134 49.0159C124.134 49.0159 125.578 69.5531 125.166 70.5799C124.753 71.6068 125.372 72.4283 125.459 72.9745C125.545 73.5208 125.372 74.8927 125.44 75.5088C125.508 76.1249 125.44 76.3981 123.86 76.1783C122.28 75.9586 120.076 75.5766 120.076 75.5766C120.076 75.5766 114.507 75.9873 112.582 75.3035C110.657 74.6196 107.012 74.6175 107.012 74.6175C107.012 74.6175 101.511 74.7551 99.724 74.5497C97.9376 74.3444 96.9722 76.7411 95.8046 76.0551C94.637 75.3692 97.1784 68.7316 98.0036 66.8134C98.8287 64.8952 96.9041 60.0361 96.9041 60.0361L99.3795 46.3645L99.9303 43.2655V33.5226L100.066 33.4754C100.569 33.2805 101.017 32.9693 101.374 32.5677L101.993 42.3721L121.384 43.0581V32.0234" fill="#E7C7CA"/>
<path opacity="0.1" d="M124.367 10.4658C124.249 10.0366 124.086 9.59092 123.748 9.3034C123.425 9.07246 123.052 8.92049 122.659 8.8598C121.718 8.61347 120.761 8.43096 119.796 8.31351C119.658 7.85748 119.449 7.42577 119.177 7.03404C117.155 4.1917 114.164 1.5116 110.645 0.905753C108.803 0.587427 106.667 0.872893 105.487 2.31871C104.84 3.1135 104.561 4.16705 103.907 4.94747C102.647 6.46311 100.372 6.65 98.7831 7.82267C97.9352 8.43878 97.3205 9.33215 96.7202 10.1988C96.0704 11.1374 95.402 12.1149 95.1957 13.2363C94.7831 15.4769 96.2705 17.6127 96.5449 19.8739C97.1637 24.9322 91.7177 29.4196 92.7471 34.4101C93.3474 37.3202 96.0477 39.3698 98.8408 40.409C99.8248 40.7766 100.949 41.1422 101.409 42.0828C101.615 42.4935 101.65 42.9679 101.844 43.3828C102.496 44.767 104.64 44.8204 105.791 43.812C106.942 42.8036 107.305 41.173 107.441 39.6512C107.994 33.0053 105.32 26.4396 105.632 19.7774C105.725 17.7627 106.294 15.4769 108.107 14.565C110.548 13.3328 113.483 15.3865 116.169 14.9942C117.44 18.073 117.71 21.471 116.941 24.7104C116.514 26.4827 115.775 28.2017 115.721 30.0295C115.641 32.8123 117.149 35.3548 118.453 37.8151C118.732 38.2752 118.92 38.7851 119.003 39.3164C119.024 39.8554 118.923 40.3922 118.708 40.8875C117.972 42.8611 116.701 44.693 116.557 46.794C116.515 47.0392 116.57 47.2912 116.712 47.4964C116.857 47.6333 117.045 47.7172 117.244 47.7346C119.472 48.1145 121.398 46.1491 122.486 44.1755C123.698 41.9957 124.404 39.5732 124.553 37.0861C124.777 32.9047 123.272 28.7911 123.364 24.6056C123.472 19.8472 125.632 15.0559 124.367 10.4658Z" fill="black"/>
<path d="M124.573 10.2602C124.455 9.83101 124.292 9.38535 123.954 9.09783C123.631 8.86689 123.258 8.71492 122.865 8.65423C121.924 8.40791 120.967 8.22539 120.002 8.10794C119.864 7.65192 119.655 7.2202 119.383 6.82848C117.361 3.98613 114.37 1.30603 110.851 0.700186C109.009 0.38186 106.873 0.667326 105.694 2.11314C105.046 2.90793 104.767 3.96149 104.113 4.7419C102.853 6.25754 100.578 6.44443 98.9891 7.6171C98.1413 8.23322 97.5265 9.12659 96.9262 9.99325C96.2764 10.9318 95.6081 11.9094 95.4018 13.0307C94.9892 15.2713 96.4765 17.4072 96.7509 19.6683C97.3698 24.7266 91.9238 29.214 92.9531 34.2045C93.5534 37.1146 96.2537 39.1642 99.0469 40.2034C100.031 40.571 101.155 40.9366 101.615 41.8772C101.821 42.2879 101.857 42.7624 102.05 43.1772C102.702 44.5614 104.846 44.6148 105.997 43.6064C107.148 42.5981 107.511 40.9674 107.647 39.4456C108.2 32.7998 105.526 26.234 105.838 19.5718C105.931 17.5571 106.5 15.2713 108.313 14.3595C110.754 13.1272 113.689 15.1809 116.375 14.7887C117.646 17.8675 117.916 21.2654 117.147 24.5048C116.72 26.2772 115.981 27.9961 115.927 29.8239C115.847 32.6067 117.355 35.1492 118.659 37.6096C118.938 38.0697 119.126 38.5796 119.21 39.1108C119.23 39.6499 119.129 40.1867 118.915 40.6819C118.178 42.6556 116.907 44.4875 116.763 46.5884C116.721 46.8337 116.776 47.0857 116.918 47.2908C117.063 47.4277 117.251 47.5117 117.45 47.529C119.678 47.909 121.605 45.9436 122.692 43.9699C123.904 41.7901 124.61 39.3677 124.759 36.8805C124.984 32.6991 123.478 28.5855 123.57 24.4001C123.678 19.6416 125.838 14.8503 124.573 10.2602Z" fill="#3E373A"/>
<path d="M120.017 101.193L128.2 101.454L127.026 95.4116L120.757 96.0051L120.017 101.193Z" fill="#C3C7D9"/>
<path d="M145.374 86.8722C144.823 87.5561 142.692 88.7883 142.486 89.1991C142.279 89.6098 139.736 90.8421 138.428 91.0474C137.12 91.2528 132.996 92.1441 132.239 92.6226C131.697 92.9677 127.342 94.0602 124.481 94.6661C123.706 94.8486 122.922 94.9892 122.131 95.0871C120.894 95.1549 107.349 90.5689 107.349 90.5689L109.96 87.8991L110.105 87.8498C110.843 87.6013 114.255 86.4533 116.149 85.907C118.282 85.2909 120.757 82.7586 120.757 82.7586C120.757 82.7586 124.4 81.5264 124.883 81.3888C125.366 81.2512 123.645 76.5975 123.645 76.5975C123.645 76.5975 131.552 75.5049 134.647 74.5787C137.741 73.6524 144.893 73.9954 146.199 77.6243C147.505 81.2533 145.933 86.1883 145.374 86.8722Z" fill="#4B4B5B"/>
<path d="M109.341 98.4408C109.341 98.4408 107.761 100.084 106.179 99.9483C104.597 99.8127 99.064 100.359 99.064 100.359C98.0614 100.757 97.1225 101.299 96.2771 101.967C94.9836 102.982 94.2967 102.172 94.1688 102L94.1461 101.967C93.4571 104.126 91.877 102.48 91.877 102.48C91.877 102.48 92.5639 95.9086 92.3535 95.0871C92.1431 94.2656 93.7129 92.8547 93.7129 92.8547L95.5695 92.3844L100.273 91.1851L107.012 93.5119L109.341 98.4408Z" fill="#E7C7CA"/>
<path opacity="0.1" d="M95.5613 92.3843L94.1688 102L94.1461 101.967C93.4571 104.125 91.877 102.48 91.877 102.48C91.877 102.48 92.5639 95.9085 92.3535 95.087C92.1431 94.2655 93.7129 92.8546 93.7129 92.8546L95.5613 92.3843Z" fill="black"/>
<path opacity="0.1" d="M105.294 65.0327C105.294 65.0327 108.937 66.265 112.101 65.0327H105.294Z" fill="black"/>
<path opacity="0.1" d="M117.73 67.3618C117.73 67.3618 119.243 68.1135 120.412 67.3618H117.73Z" fill="black"/>
<path opacity="0.1" d="M117.73 69.1443C117.73 69.1443 120.274 69.4832 120.757 68.7993L117.73 69.1443Z" fill="black"/>
<path opacity="0.1" d="M116.905 72.9747C116.905 72.9747 121.683 72.3586 122.869 71.5371L116.905 72.9747Z" fill="black"/>
<path opacity="0.1" d="M102.327 71.5371C102.327 71.5371 105.009 73.0425 107.004 72.9747L102.327 71.5371Z" fill="black"/>
<path opacity="0.1" d="M124.479 94.6659C123.704 94.8484 122.92 94.989 122.129 95.0869C120.892 95.1547 107.347 90.5687 107.347 90.5687L109.958 87.8989L110.103 87.8496C110.515 88.1392 110.854 88.3877 111.095 88.5766C112.232 89.4679 113.329 88.3035 113.742 88.3035C114.154 88.3035 117.729 91.2465 117.729 91.2465C117.729 91.2465 121.03 92.0002 121.581 92.6841C122.131 93.3679 124.056 93.2324 124.398 93.7109C124.502 93.8588 124.514 94.2223 124.479 94.6659Z" fill="black"/>
<path d="M99.064 76.8767C99.064 76.8767 95.7262 77.0677 93.8016 76.2606C91.8769 75.4535 85.482 73.5908 83.6254 74.899C81.7688 76.2072 77.2985 77.3635 79.3614 82.5676C81.4243 87.7717 82.3876 87.9072 82.3876 87.9072C83.0259 88.3838 83.5831 88.9593 84.0379 89.6118C84.6568 90.5709 90.4329 92.7602 91.8769 92.7602C93.3209 92.7602 95.8645 92.7602 99.4394 95.2246C103.014 97.6891 106.247 97.9643 106.247 97.9643C106.247 97.9643 110.785 99.8126 112.198 100.223C113.611 100.634 120.068 102.413 121.582 101.866C123.097 101.32 124.058 97.8945 124.058 97.8945C124.058 97.8945 124.745 94.8139 124.4 94.3354C124.056 93.8569 122.131 93.9924 121.582 93.3085C121.034 92.6246 117.731 91.8709 117.731 91.8709C117.731 91.8709 114.164 88.9259 113.752 88.9259C113.339 88.9259 112.242 90.0883 111.105 89.199C108.841 87.5294 106.462 86.0197 103.986 84.6809C101.374 83.311 99.064 76.8767 99.064 76.8767Z" fill="#4B4B5B"/>
<path opacity="0.1" d="M92.3535 78.8626C92.9478 78.7417 93.5621 78.7591 94.1486 78.9133C94.735 79.0676 95.2778 79.3545 95.7346 79.7518C97.3849 81.1217 102.938 83.8716 102.938 83.8716" fill="black"/>
<path opacity="0.1" d="M133.615 78.7764C133.615 78.7764 126.257 79.8854 124.883 81.3908L133.615 78.7764Z" fill="black"/>
<path d="M142.073 101.454H141.749C140.585 101.413 136.643 101.289 135.884 101.454C134.991 101.659 123.162 101.454 123.162 101.454L125.475 100.975C125.475 100.975 124.616 97.9808 125.161 97.7323C125.161 97.7323 122.067 95.7032 124.4 94.3334C126.733 92.9636 129.248 93.5407 129.248 93.5407L135.104 91.565L136.228 91.1851C136.228 91.1851 142.83 91.528 144.616 96.0462C146.403 100.564 142.073 101.454 142.073 101.454Z" fill="#E7C7CA"/>
<path opacity="0.1" d="M142.073 101.454H141.749C143.67 99.8764 148.014 95.0748 135.104 91.5753L136.229 91.1953C136.229 91.1953 142.83 91.5383 144.616 96.0565C146.403 100.575 142.073 101.454 142.073 101.454Z" fill="black"/>
<path d="M129.937 96.1304C130.137 96.1304 130.298 95.9695 130.298 95.771C130.298 95.5725 130.137 95.4116 129.937 95.4116C129.738 95.4116 129.576 95.5725 129.576 95.771C129.576 95.9695 129.738 96.1304 129.937 96.1304Z" fill="#4B4B5B"/>
<path d="M127.839 96.7237C128.038 96.7237 128.2 96.5628 128.2 96.3643C128.2 96.1658 128.038 96.0049 127.839 96.0049C127.639 96.0049 127.478 96.1658 127.478 96.3643C127.478 96.5628 127.639 96.7237 127.839 96.7237Z" fill="#4B4B5B"/>
<g opacity="0.1">
<path opacity="0.1" d="M117.617 20.4161C117.697 18.1572 117.294 15.9071 116.433 13.8154C113.751 14.2139 110.814 12.154 108.371 13.3862C106.564 14.2981 105.997 16.5838 105.896 18.5985C105.871 19.1305 105.867 19.6624 105.877 20.1943C105.877 20.0053 105.877 19.8143 105.896 19.6254C105.991 17.6107 106.558 15.3249 108.371 14.4131C110.814 13.1808 113.747 15.2346 116.433 14.8423C117.162 16.6141 117.563 18.5023 117.617 20.4161Z" fill="black"/>
<path opacity="0.1" d="M96.8361 20.0405C96.8714 19.593 96.8624 19.1432 96.8093 18.6974C96.5906 16.8901 95.5984 15.163 95.4189 13.4009C95.1878 15.5265 96.5473 17.5679 96.8093 19.7243C96.8361 19.8352 96.8361 19.9338 96.8361 20.0405Z" fill="black"/>
<path opacity="0.1" d="M107.705 38.4706C107.577 39.9945 107.216 41.6231 106.055 42.6335C104.894 43.644 102.754 43.5885 102.109 42.2043C101.902 41.7936 101.871 41.315 101.671 40.9043C101.213 39.9637 100.087 39.5981 99.103 39.2305C96.3078 38.1893 93.6116 36.1499 93.0113 33.2316C92.9577 32.9672 92.9211 32.6997 92.902 32.4307C92.8512 33.042 92.888 33.6574 93.0113 34.2585C93.6116 37.1686 96.3119 39.2161 99.103 40.2574C100.087 40.625 101.213 40.9906 101.671 41.9312C101.878 42.3419 101.913 42.8163 102.109 43.2312C102.758 44.6154 104.902 44.6688 106.055 43.6604C107.208 42.652 107.567 41.0214 107.705 39.4975C107.768 38.6954 107.789 37.8907 107.769 37.0864C107.769 37.5526 107.742 38.0127 107.705 38.4706Z" fill="black"/>
<path opacity="0.1" d="M123.639 23.4269C123.639 23.7247 123.639 24.0205 123.639 24.3162C123.754 20.4963 125.161 16.6558 125.023 12.916C124.916 16.3745 123.717 19.911 123.639 23.4269Z" fill="black"/>
<path opacity="0.1" d="M119.212 38.8789C119.263 38.6353 119.279 38.3857 119.26 38.1376C119.177 37.6061 118.99 37.096 118.709 36.6363C117.517 34.3772 116.157 32.0647 115.996 29.5571C115.996 29.6639 115.982 29.7625 115.98 29.8775C115.897 32.6582 117.405 35.2028 118.709 37.6631C118.931 38.0442 119.1 38.4531 119.212 38.8789Z" fill="black"/>
<path opacity="0.1" d="M124.825 35.9073C124.671 38.3954 123.96 40.8178 122.744 42.9968C121.654 44.9704 119.73 46.9358 117.5 46.5558C117.3 46.5387 117.112 46.4539 116.968 46.3156C116.926 46.2685 116.893 46.2142 116.871 46.1554C116.846 46.3156 116.825 46.4778 116.813 46.6421C116.77 46.8867 116.826 47.1382 116.968 47.3424C117.112 47.4808 117.3 47.5656 117.5 47.5827C119.73 47.9626 121.654 45.9972 122.744 44.0236C123.96 41.8446 124.671 39.4223 124.825 36.9342C124.85 36.4536 124.852 35.9751 124.837 35.4966C124.833 35.6342 124.833 35.7697 124.825 35.9073Z" fill="black"/>
</g>
<path opacity="0.1" d="M125.161 97.7321C125.161 97.7321 130.382 99.9131 133.825 95.0869" stroke="black" stroke-miterlimit="10"/>
<path opacity="0.1" d="M126.188 101.544C126.188 101.544 130.452 98.7838 135.884 101.454" stroke="black" stroke-miterlimit="10"/>
<path opacity="0.1" d="M97.6465 100.918C97.6465 100.918 99.4371 96.8965 104.219 99.9628" stroke="black" stroke-miterlimit="10"/>
<path opacity="0.1" d="M91.8418 41.4502L95.4931 38.1643C95.4931 38.1643 109.651 37.2401 110.237 42.0314C110.237 42.0314 115.256 36.3508 125.811 37.6159L130.277 41.1565L117.933 46.5496L105.937 50.6919L97.1021 46.755L91.8418 41.4502Z" fill="black"/>
<path d="M91.8418 41.6558L95.4931 38.3698C95.4931 38.3698 109.651 37.4456 110.237 42.237C110.237 42.237 115.256 36.5564 125.811 37.8215L130.277 41.3621L117.933 46.7551L105.937 50.8975L97.1021 46.9605L91.8418 41.6558Z" fill="#D5D6DB"/>
<path opacity="0.1" d="M90.2266 42.0664L91.8418 61.3036L108.964 62.16L108.221 43.005L108.207 42.6825L90.2266 42.0664Z" fill="black"/>
<path d="M90.2266 41.6553L91.8418 60.8924L108.964 61.7488L108.221 42.5938L108.207 42.2714L90.2266 41.6553Z" fill="#3243DC"/>
<path opacity="0.1" d="M131.061 41.6553L113.398 44.2922V63.6157L130.659 61.1327L131.061 41.6553Z" fill="black"/>
<path d="M131.061 41.2446L113.398 43.8816V63.205L130.659 60.7221L131.061 41.2446Z" fill="#3243DC"/>
<path opacity="0.3" d="M126.896 45.96L117.355 47.0156L117.564 50.2522L126.89 49.2377L126.896 45.96Z" fill="white"/>
<path d="M92.7701 71.1943L93.7417 73.7963C93.7417 73.7963 95.1857 75.0285 96.7659 74.4124C98.346 73.7963 99.7241 73.4903 100.411 72.8906C101.098 72.2909 102.061 69.2781 102.061 69.2781C102.061 69.2781 103.025 65.9922 103.986 65.1707C104.947 64.3492 107.493 53.0312 103.986 54.1381C100.479 55.2451 97.7973 65.5137 97.7973 65.5137C97.7973 65.5137 97.1785 66.2653 96.2852 66.3352C95.392 66.405 93.6035 66.1976 93.259 66.9513C92.9145 67.705 91.7386 69.6889 92.7701 71.1943Z" fill="#BE6F72"/>
<path opacity="0.1" d="M113.399 44.2905C112.494 44.4934 111.555 44.4828 110.656 44.2595C109.756 44.0363 108.922 43.6066 108.219 43.0049L108.963 62.1578C108.963 62.1578 110.717 64.0473 113.399 63.616V44.2905Z" fill="black"/>
<path d="M113.399 43.8799C112.494 44.0827 111.555 44.0721 110.656 43.8489C109.756 43.6256 108.922 43.196 108.219 42.5942L108.963 61.7472C108.963 61.7472 110.717 63.6366 113.399 63.2053V43.8799Z" fill="#3243DC"/>
<path opacity="0.1" d="M113.399 43.8799C112.494 44.0827 111.555 44.0721 110.656 43.8489C109.756 43.6256 108.922 43.196 108.219 42.5942L108.963 61.7472C108.963 61.7472 110.717 63.6366 113.399 63.2053V43.8799Z" fill="black"/>
<path opacity="0.1" d="M113.812 41.7214C113.812 41.7214 120.997 39.5342 122.87 39.8422L113.812 41.7214Z" fill="black"/>
<path opacity="0.1" d="M105.774 40.7664C105.774 40.7664 98.81 39.1234 97.6465 39.5896L105.774 40.7664Z" fill="black"/>
<path opacity="0.1" d="M118.342 41.9945C118.342 41.9945 123.146 40.2406 124.883 41.0744L118.342 41.9945Z" fill="black"/>
<path opacity="0.1" d="M115.922 85.9912C116.666 85.4345 117.459 84.9445 118.29 84.5269C119.528 83.9334 121.797 82.3931 121.797 82.3931" fill="black"/>
<path opacity="0.1" d="M97.6468 65.0327C97.6468 65.0327 94.6329 67.4869 93.7273 67.7026C92.8217 67.9182 92.2627 69.8323 92.2627 69.8323" fill="black"/>
<path d="M129.289 70.8287L128.328 73.4369C128.328 73.4369 126.884 74.6692 125.302 74.0531C123.72 73.4369 122.346 73.1309 121.657 72.5312C120.968 71.9316 120.006 68.9188 120.006 68.9188C120.006 68.9188 119.045 65.6328 118.082 64.8113C117.118 63.9898 114.575 52.6718 118.082 53.7788C121.589 54.8857 124.27 65.1543 124.27 65.1543C124.27 65.1543 124.889 65.906 125.782 65.9758C126.676 66.0456 128.464 65.8382 128.809 66.5919C129.153 67.3456 130.321 69.3295 129.289 70.8287Z" fill="#BE6F72"/>
<path opacity="0.1" d="M127.604 66.0312C127.604 66.0312 129.574 67.2922 129.565 68.7997L127.604 66.0312Z" fill="black"/>
<path d="M110.889 29.4788C115.978 29.4788 120.104 25.3714 120.104 20.3048C120.104 15.2382 115.978 11.1309 110.889 11.1309C105.799 11.1309 101.674 15.2382 101.674 20.3048C101.674 25.3714 105.799 29.4788 110.889 29.4788Z" fill="#BE6F72"/>
<path d="M105.102 17.8428C106.22 17.6683 107.2 17.0214 108.268 16.6496C110.659 15.8138 113.304 16.3868 115.724 17.1405C116.652 17.43 117.595 17.7566 118.568 17.7566C119.542 17.7566 120.576 17.3602 121.073 16.5244C121.531 15.7563 121.442 14.7582 121.056 13.9511C120.671 13.1439 120.025 12.495 119.373 11.883C117.228 9.86621 114.566 7.9809 111.623 8.18627C110.439 8.27047 109.306 8.69148 108.217 9.15768C106.845 9.74607 105.51 10.4154 104.219 11.1621C103.227 11.7351 101.389 12.5011 100.817 13.5485C99.5177 15.9082 103.08 18.1591 105.102 17.8428Z" fill="#3E373A"/>
<path opacity="0.1" d="M121.073 15.6617C120.575 16.4976 119.542 16.8939 118.568 16.8939C117.595 16.8939 116.652 16.5797 115.722 16.2901C113.302 15.5364 110.659 14.9614 108.266 15.7993C107.2 16.171 106.218 16.8262 105.1 16.9905C103.47 17.2451 100.846 15.8322 100.561 14.0352C100.242 16.1115 103.284 17.89 105.1 17.6066C106.218 17.432 107.2 16.7851 108.266 16.4154C110.659 15.5775 113.302 16.1525 115.722 16.9062C116.652 17.1958 117.593 17.5224 118.568 17.51C119.544 17.4977 120.575 17.1157 121.073 16.2778C121.33 15.822 121.432 15.2949 121.361 14.7765C121.329 15.0886 121.231 15.3904 121.073 15.6617Z" fill="black"/>
<path d="M195.855 126.963C195.855 126.963 197.078 128.555 195.289 130.959C193.501 133.364 192.028 135.393 192.622 136.893C192.622 136.893 195.32 132.428 197.515 132.364C199.71 132.3 198.266 129.647 195.855 126.963Z" fill="#3243DC"/>
<path opacity="0.1" d="M195.854 126.963C195.961 127.117 196.045 127.285 196.104 127.462C198.245 129.967 199.388 132.307 197.327 132.364C195.409 132.42 193.108 135.835 192.558 136.695C192.575 136.765 192.597 136.834 192.622 136.901C192.622 136.901 195.32 132.436 197.515 132.372C199.71 132.309 198.266 129.647 195.854 126.963Z" fill="black"/>
<path d="M198.123 128.992C198.123 129.552 198.059 130.006 197.983 130.006C197.907 130.006 197.841 129.552 197.841 128.992C197.841 128.431 197.919 128.696 197.998 128.696C198.076 128.696 198.123 128.431 198.123 128.992Z" fill="#FFD037"/>
<path d="M198.905 129.661C198.412 129.928 197.981 130.09 197.944 130.023C197.907 129.955 198.276 129.682 198.769 129.407C199.262 129.131 199.068 129.333 199.105 129.407C199.143 129.48 199.4 129.392 198.905 129.661Z" fill="#FFD037"/>
<path d="M189.389 126.963C189.389 126.963 188.166 128.555 189.954 130.959C191.743 133.364 193.216 135.393 192.62 136.893C192.62 136.893 189.923 132.428 187.726 132.364C185.529 132.3 186.984 129.647 189.389 126.963Z" fill="#3243DC"/>
<path opacity="0.1" d="M189.389 126.963C189.283 127.117 189.199 127.285 189.14 127.462C186.998 129.967 185.855 132.307 187.916 132.364C189.833 132.42 192.135 135.835 192.686 136.695C192.668 136.765 192.646 136.834 192.62 136.901C192.62 136.901 189.923 132.436 187.726 132.372C185.529 132.309 186.984 129.647 189.389 126.963Z" fill="black"/>
<path d="M187.116 128.992C187.116 129.552 187.178 130.006 187.256 130.006C187.335 130.006 187.399 129.552 187.399 128.992C187.399 128.431 187.318 128.696 187.242 128.696C187.166 128.696 187.116 128.431 187.116 128.992Z" fill="#FFD037"/>
<path d="M186.336 129.661C186.829 129.928 187.261 130.09 187.298 130.023C187.335 129.955 186.966 129.682 186.473 129.407C185.979 129.131 186.173 129.333 186.136 129.407C186.099 129.48 185.841 129.392 186.336 129.661Z" fill="#FFD037"/>
<path opacity="0.1" d="M192.622 149.075C199.686 149.075 205.412 148.201 205.412 147.122C205.412 146.043 199.686 145.169 192.622 145.169C185.558 145.169 179.832 146.043 179.832 147.122C179.832 148.201 185.558 149.075 192.622 149.075Z" fill="#3243DC"/>
<path d="M199.204 134.746L199.142 135.243L199.056 135.946L199.02 136.239L198.934 136.942L198.897 137.235L198.812 137.936L197.832 145.925C197.746 146.637 196.576 147.194 195.163 147.194H190.078C188.665 147.194 187.497 146.637 187.409 145.925L186.429 137.936L186.342 137.235L186.307 136.942L186.22 136.239L186.183 135.946L186.099 135.243L186.037 134.746C185.989 134.336 186.62 134.003 187.421 134.003H197.822C198.62 134.003 199.254 134.342 199.204 134.746Z" fill="#65617D"/>
<path d="M199.142 135.243L199.058 135.946H186.185L186.099 135.243H199.142Z" fill="#9D9CB5"/>
<path d="M199.021 136.239L198.936 136.942H186.307L186.221 136.239H199.021Z" fill="#9D9CB5"/>
<path d="M198.899 137.235L198.813 137.938H186.429L186.345 137.235H198.899Z" fill="#9D9CB5"/>
</g>
<defs>
<linearGradient id="paint0_linear_370_3948" x1="112.765" y1="103.08" x2="112.765" y2="-8.34581e-05" gradientUnits="userSpaceOnUse">
<stop stop-color="#808080" stop-opacity="0.25"/>
<stop offset="0.54" stop-color="#808080" stop-opacity="0.12"/>
<stop offset="1" stop-color="#808080" stop-opacity="0.1"/>
</linearGradient>
<clipPath id="clip0_370_3948">
<rect width="211" height="167" fill="white"/>
</clipPath>
</defs>
</svg>
