<svg width="240" height="153" viewBox="0 0 240 153" fill="none" xmlns="http://www.w3.org/2000/svg">
<g clip-path="url(#clip0_370_4128)">
<path d="M107.898 0.0878906H0.0664062V57.1016H107.898V0.0878906Z" fill="#F2F2F2"/>
<path d="M107.831 0H0V6.60946H107.831V0Z" fill="#E6E6E6"/>
<path d="M105.879 9.28906H2.50391V54.0962H105.879V9.28906Z" fill="white"/>
<path d="M10.2186 4.38101C10.8182 4.38101 11.3044 3.8915 11.3044 3.28767C11.3044 2.68384 10.8182 2.19434 10.2186 2.19434C9.61893 2.19434 9.13281 2.68384 9.13281 3.28767C9.13281 3.8915 9.61893 4.38101 10.2186 4.38101Z" fill="white"/>
<path d="M14.3397 4.38101C14.9393 4.38101 15.4255 3.8915 15.4255 3.28767C15.4255 2.68384 14.9393 2.19434 14.3397 2.19434C13.74 2.19434 13.2539 2.68384 13.2539 3.28767C13.2539 3.8915 13.74 4.38101 14.3397 4.38101Z" fill="white"/>
<path d="M6.08577 4.38101C6.68543 4.38101 7.17155 3.8915 7.17155 3.28767C7.17155 2.68384 6.68543 2.19434 6.08577 2.19434C5.48612 2.19434 5 2.68384 5 3.28767C5 3.8915 5.48612 4.38101 6.08577 4.38101Z" fill="white"/>
<path d="M85.1294 22.4199H25.6855V25.0877H85.1294V22.4199Z" fill="#F2F2F2"/>
<path d="M46.88 29.0894H25.6855V31.7571H46.88V29.0894Z" fill="#F2F2F2"/>
<path d="M67.909 35.7588H25.6855V38.4266H67.909V35.7588Z" fill="#F2F2F2"/>
<path d="M125.957 74.7573H24.4814V128.411H125.957V74.7573Z" fill="#F2F2F2"/>
<path d="M125.895 74.6748H24.4189V80.8947H125.895V74.6748Z" fill="#E6E6E6"/>
<path d="M124.058 83.0571H26.6211V125.679H124.058V83.0571Z" fill="white"/>
<path d="M34.0354 78.7975C34.5998 78.7975 35.0572 78.3369 35.0572 77.7686C35.0572 77.2004 34.5998 76.7397 34.0354 76.7397C33.4711 76.7397 33.0137 77.2004 33.0137 77.7686C33.0137 78.3369 33.4711 78.7975 34.0354 78.7975Z" fill="white"/>
<path d="M37.9134 78.7975C38.4777 78.7975 38.9352 78.3369 38.9352 77.7686C38.9352 77.2004 38.4777 76.7397 37.9134 76.7397C37.3491 76.7397 36.8916 77.2004 36.8916 77.7686C36.8916 78.3369 37.3491 78.7975 37.9134 78.7975Z" fill="white"/>
<path d="M30.1468 78.7975C30.7111 78.7975 31.1686 78.3369 31.1686 77.7686C31.1686 77.2004 30.7111 76.7397 30.1468 76.7397C29.5825 76.7397 29.125 77.2004 29.125 77.7686C29.125 78.3369 29.5825 78.7975 30.1468 78.7975Z" fill="white"/>
<path d="M193.699 23.5132H73.3311V87.1553H193.699V23.5132Z" fill="#E6E6E6"/>
<path d="M193.626 23.415H73.2578V30.7929H193.626V23.415Z" fill="#3243DC"/>
<path d="M190.804 33.0591H76.0332V83.6037H190.804V33.0591Z" fill="white"/>
<path d="M84.6642 28.3056C85.3335 28.3056 85.8762 27.7592 85.8762 27.0852C85.8762 26.4112 85.3335 25.8647 84.6642 25.8647C83.9948 25.8647 83.4521 26.4112 83.4521 27.0852C83.4521 27.7592 83.9948 28.3056 84.6642 28.3056Z" fill="white"/>
<path d="M89.2647 28.3056C89.9341 28.3056 90.4767 27.7592 90.4767 27.0852C90.4767 26.4112 89.9341 25.8647 89.2647 25.8647C88.5954 25.8647 88.0527 26.4112 88.0527 27.0852C88.0527 27.7592 88.5954 28.3056 89.2647 28.3056Z" fill="white"/>
<path d="M80.0509 28.3056C80.7202 28.3056 81.2629 27.7592 81.2629 27.0852C81.2629 26.4112 80.7202 25.8647 80.0509 25.8647C79.3815 25.8647 78.8389 26.4112 78.8389 27.0852C78.8389 27.7592 79.3815 28.3056 80.0509 28.3056Z" fill="white"/>
<path d="M177.477 46.0737H89.4785V50.023H177.477V46.0737Z" fill="#E6E6E6"/>
<path d="M120.854 55.9468H89.4785V59.8961H120.854V55.9468Z" fill="#E6E6E6"/>
<path d="M151.985 65.8198H89.4785V69.7691H151.985V65.8198Z" fill="#E6E6E6"/>
<path d="M110.763 95.7075H44.4082V98.6855H110.763V95.7075Z" fill="#F2F2F2"/>
<path d="M68.0667 103.152H44.4082V106.13H68.0667V103.152Z" fill="#F2F2F2"/>
<path d="M91.5405 110.597H44.4082V113.575H91.5405V110.597Z" fill="#F2F2F2"/>
<path d="M136.298 24.375L130.641 27.5309L136.674 25.3884L136.298 24.375Z" fill="white"/>
<path d="M138.848 27.4802C139.677 27.209 139.909 25.6257 139.366 23.9438C138.824 22.2619 137.712 21.1182 136.883 21.3894C136.054 21.6606 135.822 23.2438 136.364 24.9258C136.907 26.6077 138.019 27.7513 138.848 27.4802Z" fill="#3F3D56"/>
<path d="M138.229 22.5861L141.982 21.2222L142.78 23.4467L139.148 25.9168L138.229 22.5861Z" fill="#3F3D56"/>
<path d="M141.047 23.6777C141.195 24.1948 141.453 24.673 141.804 25.0786C142.155 25.4842 142.59 25.8074 143.079 26.0254C143.567 26.2434 144.097 26.3509 144.632 26.3403C145.166 26.3298 145.691 26.2014 146.171 25.9642L155.401 35.1648L156.724 28.5005L147.756 20.7851C147.307 20.0003 146.588 19.4085 145.734 19.122C144.881 18.8356 143.953 18.8743 143.126 19.2308C142.299 19.5874 141.63 20.237 141.247 21.0566C140.864 21.8762 140.793 22.8088 141.047 23.6777Z" fill="#A0616A"/>
<path d="M211.39 81.7259C211.742 81.3214 212.002 80.844 212.151 80.3273C212.3 79.8107 212.335 79.2674 212.253 78.7358C212.171 78.2041 211.975 77.697 211.677 77.2501C211.38 76.8032 210.988 76.4275 210.531 76.1493L213.23 63.3564L206.946 65.8374L205.347 77.6054C204.934 78.41 204.828 79.3393 205.05 80.2172C205.272 81.095 205.806 81.8604 206.551 82.3683C207.296 82.8763 208.2 83.0914 209.091 82.973C209.983 82.8546 210.801 82.4109 211.39 81.7259Z" fill="#A0616A"/>
<path d="M180.982 148.398H176.526L174.406 131.091L180.983 131.092L180.982 148.398Z" fill="#A0616A"/>
<path d="M182.118 152.747L167.751 152.747V152.564C167.751 151.824 167.896 151.092 168.177 150.409C168.458 149.726 168.87 149.105 169.389 148.582C169.908 148.059 170.525 147.644 171.203 147.361C171.882 147.078 172.609 146.933 173.343 146.933H173.344L182.119 146.933L182.118 152.747Z" fill="#2F2E41"/>
<path d="M202.789 148.398H198.334L196.214 131.091L202.79 131.092L202.789 148.398Z" fill="#A0616A"/>
<path d="M203.925 152.747L189.558 152.747V152.564C189.558 151.824 189.702 151.092 189.983 150.409C190.264 149.726 190.676 149.105 191.196 148.582C191.715 148.059 192.331 147.644 193.01 147.361C193.688 147.078 194.415 146.933 195.15 146.933H195.15L203.925 146.933L203.925 152.747Z" fill="#2F2E41"/>
<path d="M181.446 139.361L175.138 139.107C174.708 139.088 174.302 138.9 174.009 138.583C173.715 138.265 173.557 137.845 173.569 137.411L175.346 78.7151L175.462 78.6729C186.517 74.646 195.662 74.9505 203.421 79.6025L203.508 79.6547L204.572 136.822C204.576 137.041 204.537 137.258 204.457 137.462C204.376 137.665 204.257 137.85 204.104 138.007C203.952 138.163 203.77 138.287 203.57 138.372C203.37 138.456 203.154 138.5 202.937 138.5H197.618C197.239 138.499 196.872 138.367 196.58 138.124C196.287 137.882 196.087 137.545 196.013 137.171L188.768 100.057C188.743 99.9285 188.673 99.8135 188.572 99.7323C188.47 99.6511 188.343 99.6091 188.213 99.614C188.083 99.6188 187.959 99.6701 187.864 99.7586C187.768 99.8471 187.707 99.9671 187.692 100.097L183.135 137.914C183.085 138.313 182.892 138.679 182.593 138.946C182.295 139.212 181.91 139.36 181.51 139.362C181.489 139.362 181.467 139.362 181.446 139.361Z" fill="#2F2E41"/>
<path d="M191.864 26.1393C196.19 23.758 197.78 18.2963 195.415 13.9403C193.05 9.58423 187.626 7.98334 183.301 10.3646C178.975 12.7459 177.385 18.2076 179.75 22.5636C182.114 26.9197 187.538 28.5205 191.864 26.1393Z" fill="#A0616A"/>
<path d="M147.922 27.1933C148.065 26.8906 148.296 26.6389 148.585 26.4718L151.277 24.9152C151.569 24.7474 151.905 24.6739 152.239 24.7046C152.574 24.7353 152.891 24.8688 153.148 25.087L162.093 32.7174L182.652 38.5216C183.279 38.8174 183.842 39.2347 184.308 39.7497C184.775 40.2647 185.136 40.8673 185.372 41.523C185.607 42.1787 185.712 42.8746 185.68 43.5711C185.648 44.2675 185.48 44.9508 185.185 45.5818C184.891 46.2128 184.476 46.7792 183.964 47.2486C183.452 47.718 182.853 48.0812 182.202 48.3174C181.55 48.5537 180.859 48.6583 180.167 48.6254C179.476 48.5924 178.798 48.4226 178.171 48.1255L165.039 45.1484C161.053 44.2455 157.528 41.9153 155.121 38.5915L148.078 28.8708C147.942 28.6838 147.848 28.4703 147.8 28.244C147.752 28.0177 147.752 27.7839 147.799 27.5575C147.826 27.4317 147.867 27.3094 147.922 27.1933Z" fill="#3F3D56"/>
<path d="M211.009 73.4441C210.695 73.5577 210.355 73.5725 210.034 73.4865L207.033 72.6832C206.709 72.5954 206.419 72.4094 206.203 72.1503C205.986 71.8912 205.854 71.5714 205.824 71.2343L204.808 59.4741L194.267 40.7765C194.029 40.1219 193.921 39.4265 193.95 38.7299C193.979 38.0334 194.143 37.3493 194.435 36.7169C194.726 36.0845 195.138 35.5161 195.648 35.0443C196.158 34.5725 196.755 34.2064 197.405 33.967C198.055 33.7277 198.746 33.6197 199.438 33.6493C200.13 33.6789 200.809 33.8455 201.436 34.1396C202.064 34.4337 202.628 34.8495 203.096 35.3632C203.564 35.8769 203.927 36.4784 204.164 37.1335L211.408 48.5584C213.608 52.0256 214.481 56.1791 213.867 60.2463L212.071 72.1424C212.036 72.3711 211.954 72.5899 211.83 72.7846C211.706 72.9793 211.542 73.1455 211.35 73.2724C211.244 73.343 211.129 73.4006 211.009 73.4441Z" fill="#3F3D56"/>
<path d="M177.818 34.2151C179.351 32.522 181.243 31.197 183.352 30.3381C185.462 29.4792 187.736 29.1082 190.007 29.2526C190.156 29.2618 190.305 29.2723 190.453 29.284H190.453C192.606 29.4554 194.697 30.0875 196.587 31.1382C198.478 32.1888 200.124 33.6337 201.415 35.3763C202.728 37.1433 203.651 39.1721 204.122 41.3271C204.594 43.4821 204.603 45.7137 204.15 47.8726C202.419 56.1233 202.857 64.6861 205.421 72.7141L207.815 80.2017C207.892 80.4416 207.913 80.6961 207.877 80.9455C207.841 81.1949 207.748 81.4326 207.606 81.6402C207.464 81.8479 207.277 82.0199 207.058 82.1431C206.84 82.2663 206.596 82.3373 206.346 82.3508L194.103 83.0136L190.97 77.5642V83.1832L176.09 83.9888C176.061 83.9906 176.031 83.9913 176.002 83.9913C175.776 83.9912 175.553 83.944 175.346 83.8528C175.139 83.7615 174.953 83.6281 174.8 83.4609C174.647 83.2938 174.53 83.0966 174.457 82.8816C174.383 82.6667 174.354 82.4387 174.372 82.2121L176.054 61.2113L173.945 46.948C173.603 44.6691 173.774 42.342 174.444 40.1383C175.115 37.9346 176.268 35.9105 177.818 34.2151Z" fill="#3F3D56"/>
<path d="M193.787 26.8328C192.96 27.3117 189.693 27.6292 189.46 26.698L189.455 26.6776C189.293 25.9954 189.428 25.2829 189.475 24.583C189.521 23.8831 189.453 23.1143 188.98 22.5996C188.097 21.6404 186.527 22.1489 185.251 21.9063C184.504 21.7383 183.843 21.3018 183.392 20.6785C182.941 20.0552 182.731 19.2878 182.801 18.5199C182.82 18.3744 182.848 18.2288 182.88 18.0833C182.96 17.7145 182.954 17.3321 182.862 16.9661C182.77 16.6001 182.596 16.2605 182.352 15.9739C182.108 15.6873 181.801 15.4616 181.456 15.3144C181.111 15.1672 180.737 15.1026 180.363 15.1256C179.073 15.1999 177.681 15.5933 176.614 14.6315C175.789 13.8878 175.588 11.9517 175.95 10.898C176.559 9.12727 180.462 8.20026 182.166 7.69066C184.273 7.07752 186.49 6.94497 188.654 7.30263C190.819 7.66029 192.877 8.49917 194.68 9.75829C195.756 10.5222 196.761 11.482 197.22 12.7249C197.678 13.9677 197.457 15.5357 196.423 16.3561C197.225 17.211 197.789 18.263 198.06 19.4067C198.331 20.5505 198.298 21.7458 197.966 22.873C197.455 24.5307 195.017 26.12 193.787 26.8328Z" fill="#2F2E41"/>
<path d="M239.729 153H136.354C136.282 153 136.213 152.971 136.162 152.92C136.112 152.869 136.083 152.799 136.083 152.727C136.083 152.654 136.112 152.585 136.162 152.534C136.213 152.482 136.282 152.454 136.354 152.454H239.729C239.801 152.454 239.87 152.482 239.921 152.534C239.972 152.585 240 152.654 240 152.727C240 152.799 239.972 152.869 239.921 152.92C239.87 152.971 239.801 153 239.729 153Z" fill="#3F3D56"/>
</g>
<defs>
<clipPath id="clip0_370_4128">
<rect width="240" height="153" fill="white"/>
</clipPath>
</defs>
</svg>
