<svg width="24" height="24" viewBox="0 0 24 24" fill="none" xmlns="http://www.w3.org/2000/svg">
<path d="M21.1365 12.75H18.1365C17.7387 12.75 17.3571 12.908 17.0758 13.1893C16.7945 13.4707 16.6365 13.8522 16.6365 14.25V18C16.6365 18.3978 16.7945 18.7794 17.0758 19.0607C17.3571 19.342 17.7387 19.5 18.1365 19.5H19.6365C20.0343 19.5 20.4158 19.342 20.6971 19.0607C20.9784 18.7794 21.1365 18.3978 21.1365 18V12.75ZM21.1365 12.75C21.1365 11.5624 20.9014 10.3865 20.4449 9.2901C19.9883 8.19373 19.3192 7.19856 18.4763 6.36196C17.6333 5.52536 16.6331 4.86388 15.5333 4.41564C14.4335 3.96739 13.2558 3.74125 12.0682 3.75026C10.8806 3.74125 9.70299 3.96739 8.60319 4.41564C7.50339 4.86388 6.50318 5.52536 5.66021 6.36196C4.81725 7.19856 4.1482 8.19373 3.69163 9.2901C3.23506 10.3865 3 11.5624 3 12.75V18C3 18.3978 3.15804 18.7794 3.43934 19.0607C3.72064 19.342 4.10218 19.5 4.5 19.5H6C6.39782 19.5 6.77936 19.342 7.06066 19.0607C7.34196 18.7794 7.5 18.3978 7.5 18V14.25C7.5 13.8522 7.34196 13.4707 7.06066 13.1893C6.77936 12.908 6.39782 12.75 6 12.75H3" stroke="white" stroke-width="1.5" stroke-linecap="round" stroke-linejoin="round"/>
</svg>
