<svg width="32" height="32" viewBox="0 0 32 32" fill="none" xmlns="http://www.w3.org/2000/svg">
<path d="M16 22C19.3137 22 22 19.3137 22 16C22 12.6863 19.3137 10 16 10C12.6863 10 10 12.6863 10 16C10 19.3137 12.6863 22 16 22Z" stroke="black" stroke-width="2" stroke-linecap="round" stroke-linejoin="round"/>
<path d="M15.3594 5.51924L13.0007 3.75075C12.8742 3.65555 12.7268 3.59179 12.5708 3.56472C12.4147 3.53765 12.2545 3.54804 12.1033 3.59505C11.3728 3.82381 10.664 4.11704 9.98545 4.47128C9.84498 4.54497 9.72404 4.651 9.63262 4.78063C9.54121 4.91026 9.48193 5.05978 9.45968 5.21683L9.04272 8.1357C8.88378 8.27658 8.72818 8.42312 8.57591 8.57529C8.42369 8.72752 8.27712 8.88316 8.13621 9.04222L8.13614 9.04227L5.21779 9.45961C5.06099 9.48178 4.9117 9.54089 4.78222 9.63208C4.65275 9.72327 4.5468 9.84392 4.47311 9.9841C4.11832 10.6624 3.82451 11.3709 3.59517 12.1012C3.54794 12.2526 3.5374 12.4131 3.56443 12.5694C3.59145 12.7257 3.65525 12.8734 3.75058 13.0002L5.51968 15.359C5.50692 15.571 5.50051 15.7846 5.50045 15.9999C5.50045 16.2151 5.50686 16.4288 5.51969 16.641L5.51968 16.641L3.7512 18.9997C3.65599 19.1263 3.59223 19.2737 3.56516 19.4297C3.53809 19.5857 3.54849 19.7459 3.59549 19.8972C3.82425 20.6277 4.11748 21.3364 4.47173 22.015C4.54541 22.1555 4.65144 22.2764 4.78107 22.3678C4.9107 22.4592 5.06022 22.5185 5.21728 22.5408L8.13614 22.9577C8.27702 23.1167 8.42355 23.2723 8.57573 23.4245C8.72795 23.5768 8.88359 23.7233 9.04266 23.8642L9.04271 23.8643L9.46005 26.7827C9.48221 26.9395 9.54133 27.0887 9.63252 27.2182C9.72371 27.3477 9.84436 27.4536 9.98453 27.5273C10.6628 27.8821 11.3713 28.1759 12.1017 28.4053C12.2531 28.4525 12.4136 28.463 12.5699 28.436C12.7262 28.409 12.8738 28.3452 13.0006 28.2499L15.3594 26.4808C15.5714 26.4935 15.785 26.4999 16.0003 26.5C16.2156 26.5 16.4293 26.4936 16.6414 26.4808L16.6415 26.4808L19.0002 28.2493C19.1267 28.3445 19.2741 28.4082 19.4301 28.4353C19.5862 28.4624 19.7464 28.452 19.8976 28.405C20.6281 28.1762 21.3368 27.883 22.0154 27.5287C22.1559 27.455 22.2768 27.349 22.3683 27.2194C22.4597 27.0897 22.519 26.9402 22.5412 26.7832L22.9582 23.8643C23.1171 23.7234 23.2727 23.5769 23.425 23.4247C23.5772 23.2725 23.7238 23.1169 23.8647 22.9578L23.8647 22.9577L26.7831 22.5404C26.9399 22.5182 27.0892 22.4591 27.2187 22.3679C27.3481 22.2767 27.4541 22.1561 27.5278 22.0159C27.8826 21.3376 28.1764 20.6291 28.4057 19.8988C28.4529 19.7474 28.4635 19.5869 28.4365 19.4306C28.4094 19.2743 28.3456 19.1266 28.2503 18.9998L26.4812 16.6411C26.494 16.429 26.5004 16.2154 26.5004 16.0001C26.5004 15.7849 26.494 15.5712 26.4812 15.359L26.4812 15.359L28.2497 13.0003C28.3449 12.8737 28.4087 12.7264 28.4357 12.5703C28.4628 12.4143 28.4524 12.2541 28.4054 12.1028C28.1766 11.3723 27.8834 10.6636 27.5292 9.98501C27.4555 9.84454 27.3494 9.7236 27.2198 9.63218C27.0902 9.54076 26.9407 9.48148 26.7836 9.45924L23.8648 9.04227C23.7239 8.88334 23.5773 8.72773 23.4252 8.57547C23.2729 8.42325 23.1173 8.27668 22.9582 8.13576L22.9582 8.1357L22.5408 5.21735C22.5187 5.06055 22.4596 4.91126 22.3684 4.78178C22.2772 4.65231 22.1565 4.54636 22.0164 4.47266C21.3381 4.11787 20.6296 3.82407 19.8992 3.59473C19.7478 3.5475 19.5873 3.53696 19.431 3.56398C19.2747 3.591 19.1271 3.65481 19.0003 3.75014L16.6415 5.51924C16.4295 5.50648 16.2158 5.50006 16.0006 5.5C15.7853 5.5 15.5716 5.50642 15.3595 5.51925L15.3594 5.51924Z" stroke="black" stroke-width="2" stroke-linecap="round" stroke-linejoin="round"/>
</svg>
