<svg width="30" height="30" viewBox="0 0 30 30" fill="none" xmlns="http://www.w3.org/2000/svg">
<path d="M8.41797 11.6855H3.73047V6.99799" stroke="white" stroke-width="1.57895" stroke-linecap="round" stroke-linejoin="round"/>
<path d="M7.70794 22.292C9.15017 23.7343 10.9877 24.7164 12.9881 25.1144C14.9885 25.5123 17.062 25.308 18.9464 24.5275C20.8308 23.747 22.4414 22.4252 23.5745 20.7293C24.7077 19.0334 25.3125 17.0396 25.3125 15C25.3125 12.9604 24.7077 10.9666 23.5745 9.27069C22.4414 7.5748 20.8308 6.25303 18.9464 5.4725C17.062 4.69197 14.9885 4.48775 12.9881 4.88566C10.9877 5.28357 9.15017 6.26574 7.70794 7.70797L3.73047 11.6854" stroke="white" stroke-width="1.57895" stroke-linecap="round" stroke-linejoin="round"/>
<path d="M12.0911 19.5263H13.0301V11.7387H12.0803L10.0079 13.2282V14.2051L12.0695 12.7695H12.0911V19.5263ZM17.6822 19.6558C19.3012 19.6558 20.4507 18.5657 20.4561 17.006V16.9952C20.4561 15.5003 19.3767 14.4155 17.8818 14.4155C17.1263 14.4155 16.4787 14.6962 16.1117 15.2197H16.0901L16.3545 12.6022H20.0136V11.7387H15.5558L15.1565 16.1803H16.0145C16.1171 16.0022 16.2412 15.8511 16.3815 15.7216C16.7269 15.4086 17.1803 15.252 17.7091 15.252C18.7399 15.252 19.4793 15.986 19.4847 17.0114V17.0222C19.4847 18.0692 18.7507 18.8031 17.6929 18.8031C16.7593 18.8031 16.0685 18.2149 15.9714 17.4431L15.966 17.4H15.0107L15.0161 17.4593C15.1295 18.7276 16.1926 19.6558 17.6822 19.6558Z" fill="white"/>
</svg>
