<svg width="30" height="30" viewBox="0 0 30 30" fill="none" xmlns="http://www.w3.org/2000/svg">
<path d="M21.582 11.6855H26.2695V6.99799" stroke="white" stroke-width="1.57895" stroke-linecap="round" stroke-linejoin="round"/>
<path d="M22.292 22.292C20.8498 23.7343 19.0123 24.7164 17.0119 25.1144C15.0114 25.5123 12.9379 25.308 11.0536 24.5275C9.16921 23.747 7.55862 22.4252 6.42547 20.7293C5.29232 19.0334 4.6875 17.0396 4.6875 15C4.6875 12.9604 5.29232 10.9666 6.42547 9.27069C7.55862 7.5748 9.16921 6.25303 11.0536 5.4725C12.9379 4.69197 15.0114 4.48775 17.0119 4.88566C19.0123 5.28357 20.8498 6.26574 22.292 7.70797L26.2695 11.6854" stroke="white" stroke-width="1.57895" stroke-linecap="round" stroke-linejoin="round"/>
<path d="M11.302 19.5263H12.2411V11.7387H11.2912L9.21885 13.2282V14.2051L11.2804 12.7695H11.302V19.5263ZM16.8931 19.6558C18.5121 19.6558 19.6616 18.5657 19.667 17.006V16.9952C19.667 15.5003 18.5877 14.4155 17.0928 14.4155C16.3372 14.4155 15.6896 14.6962 15.3226 15.2197H15.301L15.5655 12.6022H19.2245V11.7387H14.7668L14.3674 16.1803H15.2255C15.328 16.0022 15.4521 15.8511 15.5925 15.7216C15.9379 15.4086 16.3912 15.252 16.9201 15.252C17.9509 15.252 18.6902 15.986 18.6956 17.0114V17.0222C18.6956 18.0692 17.9617 18.8031 16.9039 18.8031C15.9702 18.8031 15.2795 18.2149 15.1823 17.4431L15.1769 17.4H14.2217L14.2271 17.4593C14.3404 18.7276 15.4036 19.6558 16.8931 19.6558Z" fill="white"/>
</svg>
