<svg width="293" height="293" viewBox="0 0 293 293" fill="none" xmlns="http://www.w3.org/2000/svg">
<path opacity="0.2" d="M146.668 292.761C227.305 292.761 292.675 227.392 292.675 146.755C292.675 66.1171 227.305 0.747559 146.668 0.747559C66.0307 0.747559 0.661133 66.1171 0.661133 146.755C0.661133 227.392 66.0307 292.761 146.668 292.761Z" fill="black"/>
<path d="M146.668 248.375C202.792 248.375 248.289 202.878 248.289 146.755C248.289 90.631 202.792 45.1338 146.668 45.1338C90.5446 45.1338 45.0474 90.631 45.0474 146.755C45.0474 202.878 90.5446 248.375 146.668 248.375Z" fill="#3243DC"/>
<path d="M143.169 71.9685C103.864 73.7533 72.02 105.186 70.3707 143.811C68.955 176.93 85.8077 201.896 115.077 213.287C116.148 213.717 117.308 213.879 118.456 213.76C119.604 213.641 120.706 213.245 121.667 212.605C122.628 211.966 123.418 211.102 123.971 210.088C124.523 209.075 124.82 207.942 124.837 206.788V144.154C124.837 141.106 123.181 140.311 120.749 140.216C105.725 139.632 95.874 145.502 89.9123 148.74C88.9481 146.946 88.2403 145.026 87.8098 143.035C110.802 128.007 127.771 134.446 127.771 134.446C121.197 131.353 107.389 128.783 87.7537 139.351C88.1754 130.834 90.9561 122.602 95.7853 115.574C103.747 111.425 112.659 109.44 121.629 109.819C130.599 110.199 139.312 112.928 146.895 117.735C162.334 107.417 182.85 107.716 197.957 115.532C202.06 120.06 206.16 133.798 206.134 139.169C182.058 127.939 170.859 131.88 164.275 134.98C164.275 134.98 182.434 128.586 205.704 143.007C205.362 145.031 204.709 146.991 203.767 148.815C194.621 142.919 183.91 139.916 173.031 140.197C170.363 140.344 168.737 140.924 168.74 144.152V206.804C168.755 207.956 169.05 209.086 169.6 210.098C170.149 211.11 170.936 211.973 171.894 212.614C172.851 213.254 173.949 213.652 175.094 213.773C176.24 213.895 177.397 213.735 178.467 213.31C206.8 202.314 223.307 178.799 223.304 147.039C223.29 104.352 187.064 69.9782 143.169 71.9685Z" fill="white"/>
<path d="M145.867 148.252C145.979 147.364 147.556 147.364 147.668 148.252C148.135 152.062 148.458 155.87 148.708 159.68C149.072 165.502 149.25 171.324 149.243 177.147C149.235 182.97 149.059 188.793 148.715 194.614C148.465 198.436 148.152 202.26 147.67 206.082C147.558 206.97 145.981 206.97 145.869 206.082C145.388 202.26 145.073 198.436 144.823 194.614C144.461 188.793 144.285 182.97 144.295 177.147C144.304 171.324 144.482 165.502 144.827 159.68C145.084 155.87 145.4 152.062 145.867 148.252Z" fill="#FF4C45"/>
<path d="M134.901 158.103C134.939 157.922 135.039 157.759 135.183 157.642C135.327 157.526 135.506 157.462 135.692 157.462C135.877 157.462 136.057 157.526 136.2 157.642C136.344 157.759 136.444 157.922 136.482 158.103C136.732 160.341 136.912 162.577 137.057 164.812C137.312 168.907 137.439 173 137.435 177.093C137.432 181.186 137.308 185.28 137.064 189.374C136.914 191.624 136.737 193.871 136.485 196.121C136.446 196.302 136.347 196.465 136.203 196.581C136.059 196.698 135.879 196.762 135.694 196.762C135.509 196.762 135.329 196.698 135.185 196.581C135.041 196.465 134.941 196.302 134.903 196.121C134.651 193.871 134.469 191.624 134.324 189.374C134.069 185.281 133.878 181.198 133.88 177.093C133.882 172.988 134.069 168.917 134.326 164.812C134.473 162.586 134.653 160.348 134.901 158.103Z" fill="#FCBD00"/>
<path d="M157.073 158.066C157.112 157.887 157.212 157.727 157.354 157.612C157.497 157.497 157.675 157.435 157.858 157.435C158.041 157.435 158.219 157.497 158.362 157.612C158.504 157.727 158.604 157.887 158.643 158.066C158.895 160.316 159.075 162.568 159.227 164.82C159.482 168.912 159.694 173.026 159.694 177.119C159.694 181.212 159.484 185.296 159.227 189.382C159.077 191.645 158.898 193.909 158.643 196.173C158.605 196.353 158.506 196.514 158.363 196.63C158.219 196.746 158.041 196.809 157.857 196.809C157.673 196.809 157.494 196.746 157.351 196.63C157.208 196.514 157.109 196.353 157.071 196.173C156.816 193.909 156.634 191.645 156.484 189.382C156.229 185.287 156.104 181.193 156.111 177.1C156.117 173.008 156.244 168.91 156.491 164.808C156.641 162.57 156.823 160.32 157.073 158.066Z" fill="#FCBD00"/>
<path d="M146.668 290.426C226.015 290.426 290.339 226.102 290.339 146.755C290.339 67.4076 226.015 3.08398 146.668 3.08398C67.3207 3.08398 2.99707 67.4076 2.99707 146.755C2.99707 226.102 67.3207 290.426 146.668 290.426Z" stroke="#3243DC" stroke-width="4.67222"/>
</svg>
