<svg width="126" height="38" viewBox="0 0 126 38" fill="none" xmlns="http://www.w3.org/2000/svg">
<path d="M31.5986 0.27911C31.3726 0.0904314 31.0837 -0.00630288 30.7896 0.00811415H27.7726C27.627 -0.0110712 27.479 0.00387921 27.3402 0.0517543C27.2013 0.0996294 27.0755 0.179113 26.9727 0.283963C26.8699 0.388812 26.7929 0.516145 26.7478 0.65588C26.7026 0.795616 26.6906 0.943924 26.7126 1.08911V3.77511C26.7126 4.54511 27.072 4.92977 27.7906 4.9291H30.8076C30.9623 4.93711 31.1166 4.90768 31.2575 4.84326C31.3983 4.77884 31.5215 4.68135 31.6166 4.55911C31.7987 4.33807 31.9 4.0615 31.9036 3.77511V1.08911C31.9152 0.939996 31.8939 0.790172 31.8412 0.650204C31.7885 0.510236 31.7057 0.383544 31.5986 0.27911Z" fill="#FF4C45"/>
<path d="M0.000678043 0.80012C-0.00388831 0.693095 0.0146516 0.586351 0.0550299 0.487131C0.0954081 0.387911 0.156686 0.298561 0.234687 0.225138C0.396929 0.0790709 0.609496 0.00163543 0.827674 0.00913447H22.1177C22.3294 0.00784432 22.5352 0.0783288 22.7017 0.209116C22.7913 0.280687 22.8644 0.370689 22.9162 0.473002C22.9679 0.575314 22.9971 0.687565 23.0017 0.802134V3.94514C23.0053 4.17483 22.9254 4.39802 22.7767 4.57313C22.6951 4.66481 22.5938 4.73669 22.4803 4.7833C22.3668 4.82992 22.2441 4.85005 22.1217 4.84214H14.0987V28.2521C14.0998 28.4655 14.0193 28.6712 13.8737 28.8271C13.7951 28.9117 13.699 28.978 13.592 29.0214C13.4851 29.0647 13.3699 29.0841 13.2547 29.0781H9.71567C9.49828 29.0775 9.28936 28.9938 9.13167 28.8441C9.04751 28.7704 8.98059 28.6791 8.93566 28.5766C8.89073 28.4741 8.86888 28.363 8.87168 28.2511V4.84114H0.83068C0.721842 4.84494 0.613334 4.827 0.511512 4.78837C0.40969 4.74974 0.316597 4.69118 0.237678 4.61613C0.154492 4.52587 0.0907869 4.41943 0.0505285 4.30348C0.0102701 4.18752 -0.00567217 4.06451 0.00368402 3.94212L0.000678043 0.80012Z" fill="#F7F7F7"/>
<path d="M31.5257 8.25712C31.419 8.15642 31.2941 8.07703 31.1577 8.02315C31.0305 7.97179 30.8949 7.9443 30.7577 7.94212H27.7727C27.6256 7.93205 27.4782 7.95514 27.3413 8.00966C27.2044 8.06418 27.0815 8.14874 26.9817 8.25712C26.7996 8.47546 26.7039 8.75297 26.7127 9.03712V27.9931C26.6918 28.1396 26.7053 28.2888 26.7521 28.4292C26.7989 28.5695 26.8777 28.697 26.9823 28.8016C27.0869 28.9061 27.2144 28.985 27.3547 29.0318C27.495 29.0785 27.6442 29.092 27.7907 29.0711H30.7727C31.5267 29.0711 31.9037 28.7118 31.9037 27.9931V9.03712C31.9052 8.88626 31.868 8.73756 31.7957 8.60515C31.7243 8.47585 31.6332 8.35843 31.5257 8.25712Z" fill="#F7F7F7"/>
<path d="M38.5717 6.78612C38.6731 6.62985 38.8166 6.5054 38.9857 6.42711C39.1047 6.32245 39.2593 6.26735 39.4177 6.27312C39.6087 6.26812 39.7877 6.26412 39.9557 6.26412H41.7697C41.9166 6.25293 42.064 6.27832 42.1987 6.338C42.3334 6.39768 42.4512 6.4898 42.5417 6.60613C42.7075 6.83046 42.8237 7.08747 42.8827 7.36013L43.0826 9.26012C43.3809 8.82756 43.7212 8.42558 44.0987 8.06011C44.5263 7.64588 45.0064 7.28951 45.5266 7.00011C46.1215 6.67078 46.755 6.41684 47.4127 6.24413C48.1929 6.04375 48.9962 5.94724 49.8017 5.95711C51.0999 5.93391 52.3875 6.1943 53.5746 6.72011C54.6449 7.20519 55.5953 7.91975 56.3586 8.81313C57.1306 9.73167 57.7134 10.7937 58.0736 11.9381C58.4707 13.1863 58.6678 14.4894 58.6576 15.7991V27.7791C58.6861 28.129 58.5787 28.4764 58.3577 28.7491C58.242 28.8617 58.104 28.9487 57.9526 29.0045C57.8011 29.0603 57.6397 29.0837 57.4786 29.0731H54.7487C54.5786 29.0943 54.4061 29.0815 54.2411 29.0353C54.0761 28.9891 53.9219 28.9105 53.7877 28.8041C53.5976 28.5251 53.5119 28.188 53.5457 27.8521V15.8901C53.5459 15.2567 53.4363 14.6281 53.2216 14.0321C53.0115 13.4361 52.6916 12.8846 52.2787 12.4061C51.8535 11.9187 51.33 11.5268 50.7426 11.2561C50.0775 10.9564 49.354 10.8089 48.6247 10.8241C48.0376 10.8313 47.4567 10.9441 46.9096 11.1571C46.3185 11.3779 45.7688 11.6967 45.2837 12.1001C44.7871 12.5133 44.3728 13.0164 44.0626 13.5831C43.7339 14.1862 43.562 14.8623 43.5626 15.5491V27.1871C43.5625 27.4152 43.5508 27.6432 43.5276 27.8701C43.5073 28.0801 43.4561 28.286 43.3756 28.4811C43.3043 28.6517 43.1895 28.8007 43.0427 28.9131C42.8798 29.0267 42.684 29.0834 42.4857 29.0741H39.5117C39.3553 29.0876 39.1978 29.07 39.0483 29.0223C38.8988 28.9746 38.7603 28.8977 38.6407 28.7961C38.5428 28.6884 38.4677 28.562 38.4199 28.4245C38.3722 28.287 38.3527 28.1413 38.3626 27.9961V7.32213C38.3707 7.12519 38.4443 6.93657 38.5717 6.78612Z" fill="#F7F7F7"/>
<path d="M81.4757 27.4581C81.5399 27.209 81.5702 26.9524 81.5656 26.6951C81.5656 26.4011 81.5777 26.1291 81.6007 25.8771C81.1699 26.3305 80.7113 26.7567 80.2277 27.1531C79.741 27.5506 79.2145 27.8968 78.6566 28.1861C78.0751 28.4868 77.4607 28.719 76.8256 28.8781C76.1262 29.0507 75.408 29.1351 74.6876 29.1291C73.6415 29.1334 72.5993 29.0007 71.5877 28.7341C70.6229 28.48 69.6959 28.0997 68.8306 27.6031C67.9836 27.1152 67.2049 26.5174 66.5147 25.8251C65.8217 25.1333 65.2211 24.3549 64.7276 23.5091C64.2237 22.642 63.837 21.7119 63.5777 20.7431C63.3065 19.7238 63.172 18.6729 63.1777 17.6181C63.1735 16.5634 63.308 15.5128 63.5777 14.4931C63.8374 13.5105 64.224 12.5659 64.7276 11.6831C65.2221 10.8186 65.8224 10.0191 66.5147 9.30313C67.2019 8.5901 67.9807 7.97138 68.8306 7.46313C69.6938 6.94888 70.6207 6.55013 71.5877 6.27713C72.5964 5.99318 73.6397 5.85146 74.6876 5.85611C75.4159 5.85196 76.1422 5.93319 76.8516 6.09811C77.5095 6.25477 78.1471 6.48699 78.7517 6.79013C79.34 7.08653 79.8968 7.44167 80.4137 7.85013C80.9229 8.25275 81.3976 8.69732 81.8327 9.17914C81.8807 8.85514 81.9267 8.53811 81.9677 8.22711C82.0087 7.91611 82.0487 7.59911 82.0847 7.27511C82.1341 6.99598 82.2414 6.73028 82.3997 6.49512C82.4989 6.39104 82.6211 6.31167 82.7566 6.2634C82.8921 6.21512 83.0369 6.19928 83.1796 6.21713C83.5743 6.21713 83.9666 6.22013 84.3566 6.22613C84.7456 6.23313 85.1366 6.23514 85.5336 6.23514C85.804 6.23306 86.0646 6.33593 86.2606 6.52212C86.3646 6.61753 86.4465 6.73435 86.5009 6.86453C86.5553 6.99471 86.5808 7.13514 86.5756 7.27612V25.5961C86.6168 27.3474 86.2926 29.0881 85.6237 30.7071C85.038 32.0813 84.1543 33.3082 83.0366 34.2991C81.9289 35.2613 80.6356 35.9859 79.2366 36.4281C77.7533 36.9014 76.2046 37.1376 74.6477 37.1281C73.9588 37.1275 73.2712 37.0707 72.5916 36.9581C71.9072 36.8453 71.2318 36.6832 70.5707 36.4731C69.922 36.2677 69.2912 36.0095 68.6846 35.7011C68.1079 35.4098 67.5604 35.0639 67.0497 34.6681C66.8993 34.5779 66.7681 34.4589 66.6637 34.3181C66.559 34.1687 66.5056 33.9894 66.5116 33.8071C66.5122 33.7061 66.5239 33.6055 66.5466 33.5071C66.5835 33.3801 66.6443 33.2614 66.7257 33.1571L68.0726 31.2001C68.1779 31.0695 68.2984 30.952 68.4317 30.8501C68.5356 30.7735 68.6615 30.7325 68.7907 30.7331C68.9034 30.7486 69.0147 30.773 69.1236 30.8061C69.2658 30.8507 69.3973 30.9243 69.5097 31.0221C69.828 31.2926 70.1893 31.5079 70.5787 31.6591C71.0109 31.8343 71.455 31.9787 71.9077 32.0911C72.3622 32.2035 72.8239 32.2843 73.2896 32.3331C73.6981 32.3784 74.1087 32.4027 74.5197 32.4061C75.3784 32.41 76.2335 32.2949 77.0607 32.0641C77.828 31.8549 78.556 31.5215 79.2157 31.0771C79.8277 30.6619 80.3526 30.131 80.7606 29.5141C81.1633 28.8975 81.4088 28.1916 81.4757 27.4581ZM68.2197 17.6161C68.2141 18.5468 68.3837 19.4702 68.7197 20.3381C69.0396 21.1712 69.5147 21.936 70.1196 22.5921C70.7158 23.2368 71.4322 23.7585 72.2287 24.1281C73.0591 24.5099 73.9637 24.7032 74.8776 24.6941C75.799 24.6996 76.711 24.5098 77.5537 24.1371C78.3724 23.7803 79.1158 23.2713 79.7446 22.6371C80.3709 22.0023 80.8732 21.2562 81.2257 20.4371C81.5914 19.5976 81.7898 18.6947 81.8096 17.7791V17.4921C81.789 16.5767 81.5907 15.6739 81.2257 14.8341C80.8717 14.0129 80.3697 13.2637 79.7446 12.6241C79.1174 11.986 78.3737 11.4741 77.5537 11.1161C76.711 10.7436 75.799 10.5538 74.8776 10.5591C73.9636 10.5491 73.0588 10.7425 72.2287 11.1251C71.4319 11.4942 70.7154 12.0161 70.1196 12.6611C69.5155 13.3178 69.0405 14.0825 68.7197 14.9151C68.384 15.7758 68.2143 16.6923 68.2197 17.6161Z" fill="#F7F7F7"/>
<path d="M91.9837 1.17015C91.9728 0.891443 92.0619 0.618016 92.2348 0.39915C92.3316 0.292607 92.4514 0.209637 92.5852 0.156596C92.7191 0.103555 92.8633 0.0818514 93.0068 0.09315H96.1498C96.2767 0.0971222 96.4017 0.1262 96.5174 0.178721C96.6331 0.231242 96.7372 0.306165 96.8238 0.39915C96.927 0.498725 97.0082 0.618697 97.0625 0.751445C97.1167 0.884193 97.1427 1.0268 97.1388 1.17015V27.9981C97.1496 28.1466 97.1285 28.2957 97.0767 28.4353C97.0249 28.5748 96.9438 28.7017 96.8388 28.8071C96.6164 28.9959 96.3301 29.0921 96.0388 29.0762H93.0388C92.8912 29.091 92.7421 29.0747 92.6012 29.0284C92.4603 28.982 92.3307 28.9067 92.2207 28.8071C92.0429 28.5766 91.9567 28.2885 91.9787 27.9981V1.17015H91.9837Z" fill="#F7F7F7"/>
<path d="M125.049 28.0161C125.057 28.2019 125.01 28.386 124.914 28.5451C124.826 28.6808 124.706 28.7923 124.564 28.8691C124.409 28.9503 124.242 29.0048 124.07 29.0301C123.877 29.0604 123.681 29.0751 123.486 29.0741H121.24C121.092 29.0914 120.942 29.0731 120.803 29.021C120.664 28.9688 120.54 28.8841 120.44 28.7741C120.277 28.5422 120.164 28.2795 120.107 28.0021L119.999 26.4751C119.567 26.9045 119.101 27.2982 118.606 27.6521C118.09 28.0224 117.539 28.3412 116.962 28.6041C116.363 28.8779 115.737 29.0884 115.095 29.2321C114.429 29.3831 113.748 29.4586 113.065 29.4571C112.012 29.4601 110.963 29.3178 109.949 29.0341C108.965 28.7601 108.021 28.3615 107.139 27.8481C106.268 27.3423 105.467 26.7236 104.759 26.0081C104.049 25.293 103.433 24.4902 102.926 23.6191C102.412 22.733 102.013 21.7851 101.74 20.7981C101.455 19.7748 101.313 18.7172 101.317 17.6551C101.313 16.593 101.455 15.5355 101.74 14.5121C102.013 13.5249 102.411 12.5768 102.926 11.6911C103.431 10.8219 104.047 10.022 104.759 9.31112C105.469 8.59981 106.269 7.98398 107.139 7.47912C108.021 6.96601 108.965 6.56747 109.949 6.29312C110.963 6.00946 112.012 5.86711 113.065 5.87011C113.802 5.86697 114.537 5.94817 115.256 6.11212C115.929 6.26592 116.582 6.49501 117.204 6.7951C117.802 7.08396 118.365 7.43955 118.883 7.8551C119.391 8.26216 119.86 8.71618 120.283 9.21112L120.534 7.28912C120.594 7.07312 120.651 6.8961 120.704 6.7601C120.749 6.63749 120.817 6.52453 120.904 6.42712C120.984 6.34084 121.089 6.28144 121.204 6.25711C121.351 6.22436 121.502 6.20958 121.654 6.2131H123.454C123.647 6.21327 123.839 6.23101 124.029 6.26611C124.209 6.29891 124.384 6.35611 124.549 6.43612C124.698 6.50897 124.825 6.6209 124.917 6.7601C125.011 6.91342 125.058 7.0912 125.052 7.27111V28.0171L125.049 28.0161ZM106.369 17.6531C106.363 18.5838 106.533 19.5072 106.869 20.3751C107.189 21.2082 107.664 21.973 108.269 22.6291C108.865 23.2737 109.581 23.7955 110.378 24.1651C111.208 24.5469 112.113 24.7402 113.027 24.7311C113.964 24.7387 114.892 24.5457 115.749 24.1651C116.574 23.8003 117.322 23.2787 117.949 22.6291C118.576 21.9762 119.075 21.2117 119.421 20.3751C119.781 19.5131 119.964 18.5873 119.959 17.6531C119.962 16.7262 119.779 15.8081 119.421 14.9531C119.074 14.1168 118.575 13.3524 117.949 12.6991C117.321 12.0485 116.574 11.524 115.749 11.1541C114.893 10.7689 113.965 10.5728 113.027 10.5791C112.112 10.5697 111.206 10.7662 110.378 11.1541C109.582 11.5289 108.866 12.0535 108.269 12.6991C107.665 13.3558 107.19 14.1205 106.869 14.9531C106.534 15.8137 106.364 16.7297 106.37 17.6531H106.369Z" fill="#F7F7F7"/>
</svg>
