<svg width="14" height="14" viewBox="0 0 14 14" fill="none" xmlns="http://www.w3.org/2000/svg">
<path d="M13.9474 5.08802C13.885 4.89203 13.765 4.7194 13.6029 4.59267C13.4409 4.46594 13.2445 4.39097 13.0392 4.37757L9.32732 4.1178L7.95037 0.650517C7.87585 0.458829 7.74517 0.294122 7.57544 0.177978C7.40571 0.0618347 7.20486 -0.000327359 6.9992 -0.000362396H6.99822C6.79288 3.86103e-06 6.59242 0.0623244 6.42307 0.17845C6.25372 0.294576 6.12334 0.459103 6.049 0.650517L4.65154 4.13782L0.960135 4.37757C0.75488 4.39097 0.558432 4.46594 0.396421 4.59267C0.23441 4.7194 0.114359 4.89203 0.0519315 5.08802C-0.0139252 5.28679 -0.0184052 5.50078 0.0390747 5.70214C0.0965545 5.90349 0.213331 6.08287 0.374197 6.21692L3.21404 8.61731L2.36931 11.9401C2.31109 12.1639 2.3218 12.4001 2.40003 12.6177C2.47827 12.8353 2.62039 13.0243 2.80779 13.1598C2.98872 13.2914 3.20508 13.3656 3.42872 13.3725C3.65236 13.3795 3.87292 13.319 4.0617 13.1989L6.99138 11.3429C6.99529 11.34 6.9992 11.338 7.00799 11.3429L10.1603 13.34C10.3315 13.4493 10.5316 13.5045 10.7346 13.4982C10.9376 13.4919 11.134 13.4245 11.298 13.3048C11.4678 13.1821 11.5966 13.0109 11.6675 12.8138C11.7385 12.6166 11.7482 12.4026 11.6955 12.1998L10.798 8.56995L13.6252 6.21692C13.786 6.08287 13.9028 5.90349 13.9603 5.70214C14.0178 5.50078 14.0133 5.28679 13.9474 5.08802Z" fill="#FCBD2C"/>
</svg>
