<svg width="22" height="21" viewBox="0 0 22 21" fill="none" xmlns="http://www.w3.org/2000/svg">
<path d="M11.4135 16.8812L16.1419 19.8769C16.7463 20.2598 17.4967 19.6903 17.3173 18.9847L15.9512 13.6108C15.9127 13.4611 15.9173 13.3036 15.9643 13.1564C16.0114 13.0092 16.0991 12.8783 16.2172 12.7787L20.4573 9.24959C21.0144 8.78588 20.7269 7.86126 20.0111 7.81481L14.4738 7.45544C14.3247 7.44479 14.1816 7.39198 14.0613 7.30317C13.941 7.21437 13.8484 7.09321 13.7943 6.95382L11.7292 1.75323C11.673 1.60528 11.5732 1.4779 11.443 1.38802C11.3127 1.29814 11.1582 1.25 11 1.25C10.8418 1.25 10.6873 1.29814 10.557 1.38802C10.4268 1.4779 10.327 1.60528 10.2708 1.75323L8.20568 6.95382C8.15157 7.09321 8.05897 7.21437 7.93868 7.30317C7.81838 7.39198 7.67533 7.44479 7.52618 7.45544L1.98894 7.81481C1.27315 7.86126 0.985597 8.78588 1.54272 9.24959L5.78278 12.7787C5.90095 12.8783 5.9886 13.0092 6.03566 13.1564C6.08272 13.3036 6.08727 13.4611 6.0488 13.6108L4.78188 18.5945C4.56667 19.4412 5.46715 20.1246 6.19243 19.6651L10.5865 16.8812C10.71 16.8025 10.8535 16.7607 11 16.7607C11.1465 16.7607 11.29 16.8025 11.4135 16.8812V16.8812Z" stroke="black" stroke-width="1.5" stroke-linecap="round" stroke-linejoin="round"/>
</svg>
