<svg width="36" height="35" viewBox="0 0 36 35" fill="none" xmlns="http://www.w3.org/2000/svg">
<path d="M18.6892 27.802L26.5698 32.7948C27.5771 33.433 28.8278 32.4838 28.5289 31.3079L26.252 22.3513C26.1879 22.1018 26.1955 21.8393 26.2739 21.594C26.3523 21.3487 26.4984 21.1304 26.6954 20.9644L33.7621 15.0826C34.6907 14.3098 34.2114 12.7688 33.0184 12.6914L23.7897 12.0924C23.5411 12.0746 23.3027 11.9866 23.1022 11.8386C22.9017 11.6906 22.7474 11.4887 22.6572 11.2564L19.2153 2.58871C19.1217 2.34213 18.9554 2.12984 18.7383 1.98003C18.5212 1.83023 18.2637 1.75 18 1.75C17.7363 1.75 17.4788 1.83023 17.2617 1.98003C17.0446 2.12984 16.8783 2.34213 16.7847 2.58871L13.3428 11.2564C13.2526 11.4887 13.0983 11.6906 12.8978 11.8386C12.6973 11.9866 12.4589 12.0746 12.2103 12.0924L2.98157 12.6914C1.78859 12.7688 1.30933 14.3098 2.23787 15.0826L9.30464 20.9644C9.50158 21.1304 9.64766 21.3487 9.72609 21.594C9.80453 21.8393 9.81212 22.1018 9.74801 22.3513L7.63647 30.6576C7.27778 32.0686 8.77859 33.2076 9.98738 32.4418L17.3108 27.802C17.5167 27.6709 17.7558 27.6012 18 27.6012C18.2442 27.6012 18.4833 27.6709 18.6892 27.802V27.802Z" stroke="black" stroke-width="2" stroke-linecap="round" stroke-linejoin="round"/>
</svg>
