<svg width="24" height="24" viewBox="0 0 24 24" fill="none" xmlns="http://www.w3.org/2000/svg">
<path d="M12 18.375C15.5208 18.375 18.375 15.5208 18.375 12C18.375 8.47918 15.5208 5.625 12 5.625C8.47918 5.625 5.625 8.47918 5.625 12C5.625 15.5208 8.47918 18.375 12 18.375Z" fill="black"/>
<path d="M12 4.125C12.1989 4.125 12.3897 4.04598 12.5303 3.90533C12.671 3.76468 12.75 3.57391 12.75 3.375V1.5C12.75 1.30109 12.671 1.11032 12.5303 0.96967C12.3897 0.829018 12.1989 0.75 12 0.75C11.8011 0.75 11.6103 0.829018 11.4697 0.96967C11.329 1.11032 11.25 1.30109 11.25 1.5V3.375C11.25 3.57391 11.329 3.76468 11.4697 3.90533C11.6103 4.04598 11.8011 4.125 12 4.125Z" fill="black"/>
<path d="M5.37101 6.43141C5.4406 6.50132 5.52329 6.55682 5.61435 6.59473C5.70542 6.63265 5.80306 6.65222 5.9017 6.65234C6.00034 6.65246 6.09804 6.63311 6.18919 6.59542C6.28035 6.55773 6.36317 6.50242 6.43292 6.43267C6.50267 6.36292 6.55797 6.2801 6.59567 6.18895C6.63336 6.09779 6.6527 6.0001 6.65258 5.90146C6.65246 5.80282 6.63289 5.70517 6.59498 5.61411C6.55707 5.52304 6.50157 5.44035 6.43165 5.37077L5.10583 4.04495C5.03621 3.97524 4.95352 3.91992 4.86251 3.88218C4.7715 3.84443 4.67394 3.82498 4.57542 3.82495C4.47689 3.82492 4.37932 3.8443 4.28828 3.882C4.19725 3.91969 4.11453 3.97495 4.04486 4.04462C3.97519 4.11429 3.91993 4.197 3.88224 4.28804C3.84455 4.37907 3.82516 4.47664 3.8252 4.57517C3.82523 4.6737 3.84467 4.77126 3.88242 4.86227C3.92017 4.95328 3.97548 5.03596 4.04519 5.10559L5.37101 6.43141Z" fill="black"/>
<path d="M4.125 12C4.125 11.8011 4.04598 11.6103 3.90533 11.4697C3.76468 11.329 3.57391 11.25 3.375 11.25H1.5C1.30109 11.25 1.11032 11.329 0.96967 11.4697C0.829018 11.6103 0.75 11.8011 0.75 12C0.75 12.1989 0.829018 12.3897 0.96967 12.5303C1.11032 12.671 1.30109 12.75 1.5 12.75H3.375C3.57391 12.75 3.76468 12.671 3.90533 12.5303C4.04598 12.3897 4.125 12.1989 4.125 12Z" fill="black"/>
<path d="M5.37101 17.5685L4.04519 18.8943C3.97548 18.9639 3.92017 19.0466 3.88242 19.1376C3.84467 19.2286 3.82523 19.3262 3.8252 19.4247C3.82516 19.5233 3.84455 19.6208 3.88224 19.7119C3.91993 19.8029 3.97519 19.8856 4.04486 19.9553C4.11453 20.025 4.19725 20.0802 4.28828 20.1179C4.37932 20.1556 4.47689 20.175 4.57542 20.175C4.67394 20.1749 4.7715 20.1555 4.86251 20.1177C4.95352 20.08 5.03621 20.0247 5.10583 19.955L6.43165 18.6291C6.50157 18.5596 6.55707 18.4769 6.59498 18.3858C6.63289 18.2947 6.65246 18.1971 6.65258 18.0984C6.6527 17.9998 6.63336 17.9021 6.59567 17.811C6.55797 17.7198 6.50267 17.637 6.43292 17.5672C6.36317 17.4975 6.28035 17.4422 6.18919 17.4045C6.09804 17.3668 6.00034 17.3474 5.9017 17.3476C5.80306 17.3477 5.70542 17.3673 5.61435 17.4052C5.52329 17.4431 5.4406 17.4986 5.37101 17.5685Z" fill="black"/>
<path d="M12 19.875C11.8011 19.875 11.6103 19.954 11.4697 20.0947C11.329 20.2353 11.25 20.4261 11.25 20.625V22.5C11.25 22.6989 11.329 22.8897 11.4697 23.0303C11.6103 23.171 11.8011 23.25 12 23.25C12.1989 23.25 12.3897 23.171 12.5303 23.0303C12.671 22.8897 12.75 22.6989 12.75 22.5V20.625C12.75 20.4261 12.671 20.2353 12.5303 20.0947C12.3897 19.954 12.1989 19.875 12 19.875Z" fill="black"/>
<path d="M18.6292 17.5685C18.5596 17.4986 18.477 17.4431 18.3859 17.4052C18.2948 17.3673 18.1972 17.3477 18.0985 17.3476C17.9999 17.3474 17.9022 17.3668 17.811 17.4045C17.7199 17.4422 17.6371 17.4975 17.5673 17.5672C17.4976 17.637 17.4423 17.7198 17.4046 17.811C17.3669 17.9021 17.3475 17.9998 17.3477 18.0984C17.3478 18.1971 17.3673 18.2947 17.4053 18.3858C17.4432 18.4769 17.4987 18.5596 17.5686 18.6291L18.8944 19.955C18.964 20.0247 19.0467 20.08 19.1377 20.1177C19.2287 20.1555 19.3263 20.1749 19.4248 20.175C19.5234 20.175 19.6209 20.1556 19.712 20.1179C19.803 20.0802 19.8857 20.025 19.9554 19.9553C20.0251 19.8856 20.0803 19.8029 20.118 19.7119C20.1557 19.6208 20.1751 19.5233 20.175 19.4247C20.175 19.3262 20.1556 19.2286 20.1178 19.1376C20.0801 19.0466 20.0248 18.9639 19.955 18.8943L18.6292 17.5685Z" fill="black"/>
<path d="M22.5 11.25H20.625C20.4261 11.25 20.2353 11.329 20.0947 11.4697C19.954 11.6103 19.875 11.8011 19.875 12C19.875 12.1989 19.954 12.3897 20.0947 12.5303C20.2353 12.671 20.4261 12.75 20.625 12.75H22.5C22.6989 12.75 22.8897 12.671 23.0303 12.5303C23.171 12.3897 23.25 12.1989 23.25 12C23.25 11.8011 23.171 11.6103 23.0303 11.4697C22.8897 11.329 22.6989 11.25 22.5 11.25Z" fill="black"/>
<path d="M18.0986 6.65109C18.1972 6.65121 18.2947 6.63187 18.3857 6.59417C18.4767 6.55647 18.5594 6.50116 18.629 6.43141L19.9548 5.10559C20.0245 5.03596 20.0798 4.95328 20.1176 4.86227C20.1553 4.77126 20.1747 4.6737 20.1748 4.57517C20.1748 4.47664 20.1554 4.37907 20.1177 4.28804C20.08 4.197 20.0248 4.11429 19.9551 4.04462C19.8854 3.97495 19.8027 3.91969 19.7117 3.882C19.6207 3.8443 19.5231 3.82492 19.4246 3.82495C19.326 3.82498 19.2285 3.84443 19.1375 3.88218C19.0465 3.91992 18.9638 3.97524 18.8941 4.04495L17.5683 5.37077C17.4634 5.47566 17.392 5.60929 17.363 5.75478C17.3341 5.90026 17.349 6.05107 17.4057 6.18811C17.4625 6.32516 17.5586 6.44229 17.682 6.5247C17.8053 6.60711 17.9503 6.6511 18.0986 6.65109H18.0986Z" fill="black"/>
</svg>
