<svg width="32" height="29" viewBox="0 0 32 29" fill="none" xmlns="http://www.w3.org/2000/svg">
<path d="M31.2924 23.4327L18.9218 2.05774C18.625 1.54583 18.1989 1.1209 17.6862 0.825511C17.1735 0.530118 16.5922 0.374634 16.0005 0.374634C15.4088 0.374634 14.8275 0.530118 14.3148 0.825511C13.8021 1.1209 13.376 1.54583 13.0793 2.05774V2.05884L0.70865 23.4327C0.411642 23.9457 0.25497 24.5278 0.254396 25.1205C0.253822 25.7132 0.409368 26.2957 0.705382 26.8092C1.0014 27.3227 1.42744 27.7492 1.94064 28.0457C2.45384 28.3423 3.03609 28.4985 3.62882 28.4985H28.3722C28.9649 28.4985 29.5472 28.3423 30.0604 28.0457C30.5736 27.7492 30.9996 27.3227 31.2957 26.8092C31.5917 26.2957 31.7472 25.7132 31.7466 25.1205C31.7461 24.5278 31.5894 23.9457 31.2924 23.4327ZM14.8744 11.6246C14.8744 11.3263 14.9929 11.0401 15.2039 10.8291C15.4149 10.6182 15.7011 10.4996 15.9994 10.4996C16.2978 10.4996 16.5839 10.6182 16.7949 10.8291C17.0059 11.0401 17.1244 11.3263 17.1244 11.6246V17.2496C17.1244 17.548 17.0059 17.8341 16.7949 18.0451C16.5839 18.2561 16.2978 18.3746 15.9994 18.3746C15.7011 18.3746 15.4149 18.2561 15.2039 18.0451C14.9929 17.8341 14.8744 17.548 14.8744 17.2496V11.6246ZM16.0002 24C15.6665 24 15.3402 23.9011 15.0627 23.7156C14.7852 23.5302 14.5689 23.2667 14.4412 22.9583C14.3135 22.65 14.2801 22.3107 14.3452 21.9833C14.4103 21.656 14.571 21.3553 14.807 21.1193C15.043 20.8833 15.3437 20.7226 15.671 20.6575C15.9984 20.5924 16.3377 20.6258 16.646 20.7535C16.9544 20.8812 17.2179 21.0975 17.4033 21.375C17.5888 21.6525 17.6877 21.9788 17.6877 22.3125C17.6877 22.7601 17.5099 23.1893 17.1935 23.5058C16.877 23.8222 16.4478 24 16.0002 24Z" fill="#FD4C45"/>
</svg>
